;TYPE=PLATED
;Layer: PTH_Through
;EasyEDA Pro v2.2.40.8, 2025-08-04 00:28:18
;Gerber Generator version 0.3
M48
METRIC,LZ,0000.00000
;Hole size 1 = 0.30500 METRIC
T01C0.30500
;Hole size 2 = 0.70002 METRIC
T02C0.70002
;Hole size 3 = 0.90002 METRIC
T03C0.90002
;Hole size 4 = 0.91440 METRIC
T04C0.91440
;Hole size 5 = 1.00000 METRIC
T05C1.00000
;Hole size 6 = 1.04999 METRIC
T06C1.04999
;Hole size 7 = 1.10002 METRIC
T07C1.10002
%
G05
G90
T01
X-38.24505Y10.24899
X-36.46705Y9.23299
X-36.46005Y4.23641
X-35.70505Y-40.55101
X-35.19705Y5.16899
X-33.48605Y9.74099
X-27.83105Y-31.40701
X-24.02105Y11.26499
X-23.38605Y8.97899
X-23.32605Y24.72699
X-22.35861Y-34.69757
X-20.21105Y21.42499
X-19.83005Y-32.42301
X-19.83005Y-2.70501
X-18.43305Y6.18499
X-17.79805Y-27.08901
X-17.54405Y16.85299
X-16.90905Y-21.24701
X-16.78205Y15.58299
X-15.96005Y17.36099
X-15.96005Y-29.62901
X-15.25805Y-25.31101
X-15.13105Y13.29699
X-15.13105Y-26.32701
X-14.62305Y-31.91501
X-12.91205Y12.28099
X-12.84505Y20.91699
X-12.46805Y-31.54429
X-12.33705Y35.64899
X-11.64205Y15.83699
X-11.38805Y12.78899
X-11.19405Y-11.84901
X-11.19405Y-14.38901
X-10.81305Y37.93499
X-10.68605Y30.06099
X-10.68605Y39.11039
X-9.67005Y27.52099
X-8.27305Y23.71099
X-8.27305Y9.23299
X-5.98705Y-44.36101
X-5.09805Y8.47099
X-4.46305Y16.85299
X-4.46305Y6.43899
X-4.08205Y25.48899
X-3.57805Y-39.16429
X-3.44705Y5.16899
X-1.92811Y-33.38399
X0.03795Y38.56999
X2.19695Y38.56999
X2.39495Y35.90299
X3.53795Y6.69299
X8.87195Y21.67899
X10.07095Y36.79199
X12.68195Y-31.91501
X13.44395Y-4.73701
X15.01682Y-4.27788
X15.58569Y-37.77507
X22.71495Y39.96699
X23.47695Y-44.10701
X25.25495Y37.17299
T02
X24.36595Y12.40799
X25.63595Y12.40799
X26.90595Y12.40799
T03
X-3.634Y-45.50401
X-1.134Y-45.50401
X1.36599Y-45.50401
X3.86599Y-45.50401
X6.36598Y-45.50401
X8.86598Y-45.50401
X-6.13386Y-45.50401
X-8.63386Y-45.50401
X-11.13385Y-45.50401
X-13.63385Y-45.50401
X-16.13384Y-45.50401
X-18.63384Y-45.50401
X-21.13383Y-45.50401
X-23.63383Y-45.50401
T04
X-29.10105Y-40.42401
X-25.41805Y31.33099
X-25.41805Y28.79099
X-25.41805Y26.25099
X-25.41805Y23.71099
X-25.41805Y21.17099
X-25.41805Y18.63099
X-25.41805Y16.09099
X-25.41805Y13.55099
X-25.41805Y11.01099
X-25.41805Y8.47099
X-25.41805Y5.93099
X-25.41805Y3.39099
X-25.41805Y0.85099
X-25.41805Y-1.68901
X-25.41805Y-4.22901
X-25.41805Y-6.76901
X-25.41805Y-9.30901
X-25.41805Y-11.84901
X-25.41805Y-14.38901
X-25.41805Y-16.92901
X-10.11805Y31.33099
X-10.11805Y28.79099
X-10.11805Y26.25099
X-10.11805Y23.71099
X-10.11805Y21.17099
X-10.11805Y18.63099
X-10.11805Y16.09099
X-10.11805Y13.55099
X-10.11805Y11.01099
X-10.11805Y8.47099
X-10.11805Y5.93099
X-10.11805Y3.39099
X-10.11805Y0.85099
X-10.11805Y-1.68901
X-10.11805Y-4.22901
X-10.11805Y-6.76901
X-10.11805Y-9.30901
X-10.11805Y-11.84901
X-10.11805Y-14.38901
X-10.11805Y-16.92901
X17.43695Y33.99799
X14.89695Y33.99799
X12.35695Y33.99799
X9.81695Y33.99799
X7.27695Y33.99799
X4.73695Y33.99799
X20.42895Y1.10499
X22.96895Y1.10499
X25.50895Y1.10499
X28.04895Y1.10499
X25.50895Y43.64999
X25.50895Y41.10999
X25.50895Y38.56999
X25.50895Y36.02999
X25.50895Y33.48999
X25.50895Y30.94999
X25.50895Y28.40999
X25.50895Y25.86999
T05
X-39.64205Y-45.50376
X-37.10205Y-45.50401
X-34.56205Y-45.50401
X-39.38805Y43.65011
X-36.84805Y43.64986
X-34.30805Y43.64986
X-26.63675Y43.65011
X-24.09675Y43.64986
X-21.55675Y43.64986
X-2.59305Y-40.41101
X-0.05305Y-40.41101
X15.60295Y12.40799
X13.06295Y12.40799
X40.99294Y12.40799
X33.39296Y12.40799
T06
X-33.16505Y-16.92901
X-33.16505Y-14.38901
X-33.16505Y-11.84901
X-33.16505Y-9.30901
X-33.16505Y-6.76901
X-33.16505Y-4.22901
X-33.16505Y-1.68901
X-33.16505Y0.85099
X-33.16505Y3.39099
X-33.16505Y5.93099
X-33.16505Y8.47099
X-33.16505Y11.01099
X-33.16505Y13.55099
X-33.16505Y16.09099
X-33.16505Y18.63099
X-33.16505Y21.17099
X-33.16505Y23.71099
X-33.16505Y26.25099
X-33.16505Y28.79099
X-33.16505Y31.33099
X-2.30405Y-16.92901
X-2.30405Y-14.38901
X-2.30405Y-11.84901
X-2.30405Y-9.30901
X-2.30405Y-6.76901
X-2.30405Y-4.22901
X-2.30405Y-1.68901
X-2.30405Y0.85099
X-2.30405Y3.39099
X-2.30405Y5.93099
X-2.30405Y8.47099
X-2.30405Y11.01099
X-2.30405Y13.55099
X-2.30405Y16.09099
X-2.30405Y18.63099
X-2.30405Y21.17099
X-2.30405Y23.71099
X-2.30405Y26.25099
X-2.30405Y28.79099
X-2.30405Y31.33099
T07
X-40.15005Y17.04692
X-40.15005Y14.54692
X-40.15005Y12.04693
X-40.15005Y9.54693
X-6.35245Y43.44412
X-8.85244Y43.44412
X-11.35244Y43.44412
X-13.85243Y43.44412
X-2.59309Y-34.75101
X-2.59309Y-32.21101
X-2.59309Y-29.67101
X-0.05305Y-34.75101
X-0.05305Y-32.21101
X-0.05305Y-29.67101
X1.25195Y44.50025
X3.79208Y44.50025
X6.33195Y44.50025
X8.87208Y44.50025
X11.41195Y44.50025
X13.95208Y44.50025
X16.49195Y44.50025
X18.52395Y-48.04401
X18.52395Y-45.50401
X18.52395Y-42.96401
X23.98495Y-45.50389
X26.52508Y-45.50389
X29.06495Y-45.50389
X31.60508Y-45.50389
X34.14495Y-45.50389
X36.68508Y-45.50389
X39.22495Y-45.50389
X38.33595Y34.75999
X38.33595Y37.29999
X38.33595Y39.83999
X38.33595Y42.37999
X40.87595Y34.75999
X40.87595Y37.29999
X40.87595Y39.83999
X40.87595Y42.37999
M30