;TYPE=PLATED
;Layer: PTH_Through_Via
;EasyEDA Pro v2.2.40.8, 2025-08-04 00:28:18
;Gerber Generator version 0.3
M48
METRIC,LZ,0000.00000
;Hole size 1 = 0.30500 METRIC
T01C0.30500
%
G05
G90
T01
X-38.24505Y10.24899
X-36.46705Y9.23299
X-36.46005Y4.23641
X-35.70505Y-40.55101
X-35.19705Y5.16899
X-33.48605Y9.74099
X-27.83105Y-31.40701
X-24.02105Y11.26499
X-23.38605Y8.97899
X-23.32605Y24.72699
X-22.35861Y-34.69757
X-20.21105Y21.42499
X-19.83005Y-32.42301
X-19.83005Y-2.70501
X-18.43305Y6.18499
X-17.79805Y-27.08901
X-17.54405Y16.85299
X-16.90905Y-21.24701
X-16.78205Y15.58299
X-15.96005Y17.36099
X-15.96005Y-29.62901
X-15.25805Y-25.31101
X-15.13105Y13.29699
X-15.13105Y-26.32701
X-14.62305Y-31.91501
X-12.91205Y12.28099
X-12.84505Y20.91699
X-12.46805Y-31.54429
X-12.33705Y35.64899
X-11.64205Y15.83699
X-11.38805Y12.78899
X-11.19405Y-11.84901
X-11.19405Y-14.38901
X-10.81305Y37.93499
X-10.68605Y30.06099
X-10.68605Y39.11039
X-9.67005Y27.52099
X-8.27305Y23.71099
X-8.27305Y9.23299
X-5.98705Y-44.36101
X-5.09805Y8.47099
X-4.46305Y16.85299
X-4.46305Y6.43899
X-4.08205Y25.48899
X-3.57805Y-39.16429
X-3.44705Y5.16899
X-1.92811Y-33.38399
X0.03795Y38.56999
X2.19695Y38.56999
X2.39495Y35.90299
X3.53795Y6.69299
X8.87195Y21.67899
X10.07095Y36.79199
X12.68195Y-31.91501
X13.44395Y-4.73701
X15.01682Y-4.27788
X15.58569Y-37.77507
X22.71495Y39.96699
X23.47695Y-44.10701
X25.25495Y37.17299
M30