G04 Layer: TopLayer*
G04 EasyEDA Pro v2.2.40.8, 2025-08-04 00:28:17*
G04 Gerber Generator version 0.3*
G04 Scale: 100 percent, Rotated: No, Reflected: No*
G04 Dimensions in millimeters*
G04 Leading zeros omitted, absolute positions, 4 integers and 5 decimals*
G04 Generated by one-click*
%FSLAX45Y45*%
%MOMM*%
%ADD10C,0.2032*%
%ADD11C,0.254*%
%ADD12C,1.524*%
%ADD13C,1.6*%
%ADD14R,1.6X1.524*%
%ADD15R,0.80648X0.86401*%
%ADD16R,1.6X1.6*%
%ADD17R,2.4732X0.98001*%
%ADD18R,2.47X0.98001*%
%ADD19R,2.47X3.59999*%
%ADD20R,0.8X0.9*%
%ADD21R,1.5X1.29601*%
%ADD22R,0.86401X0.80648*%
%ADD23R,1.25001X1.0*%
%ADD24R,1.524X1.6*%
%ADD25C,1.5*%
%ADD26R,1.5X1.5*%
%ADD27R,1.7X1.7*%
%ADD28C,1.7*%
%ADD29C,1.8*%
%ADD30R,1.8X1.8*%
%ADD31R,1.335X1.5*%
%ADD32R,1.8X1.2*%
%ADD33R,0.9X1.6*%
%ADD34O,0.9X1.6*%
%ADD35C,0.61*%
%ADD36C,0.5*%
G75*


G04 Copper Start*
G36*
G01X-4436391Y4628899D02*
G01X-4434465Y4660743D01*
G01X-4428714Y4692123D01*
G01X-4419223Y4722580D01*
G01X-4406130Y4751672D01*
G01X-4389626Y4778974D01*
G01X-4369951Y4804087D01*
G01X-4347393Y4826645D01*
G01X-4322280Y4846320D01*
G01X-4294979Y4862824D01*
G01X-4265887Y4875917D01*
G01X-4235429Y4885408D01*
G01X-4204049Y4891159D01*
G01X-4172205Y4893085D01*
G01X4227795Y4893085D01*
G01X4259639Y4891159D01*
G01X4291019Y4885408D01*
G01X4321477Y4875917D01*
G01X4350568Y4862824D01*
G01X4377870Y4846320D01*
G01X4402983Y4826645D01*
G01X4425541Y4804087D01*
G01X4445216Y4778974D01*
G01X4461720Y4751672D01*
G01X4474813Y4722580D01*
G01X4484304Y4692123D01*
G01X4490055Y4660743D01*
G01X4491981Y4628899D01*
G01X4491981Y-4771101D01*
G01X4490055Y-4802946D01*
G01X4484304Y-4834325D01*
G01X4474813Y-4864783D01*
G01X4461720Y-4893875D01*
G01X4445216Y-4921176D01*
G01X4425541Y-4946289D01*
G01X4402983Y-4968847D01*
G01X4377870Y-4988522D01*
G01X4350568Y-5005026D01*
G01X4321477Y-5018120D01*
G01X4291019Y-5027611D01*
G01X4259639Y-5033361D01*
G01X4227795Y-5035287D01*
G01X-4172205Y-5035287D01*
G01X-4204049Y-5033361D01*
G01X-4235429Y-5027611D01*
G01X-4265887Y-5018120D01*
G01X-4294979Y-5005026D01*
G01X-4322280Y-4988522D01*
G01X-4347393Y-4968847D01*
G01X-4369951Y-4946289D01*
G01X-4389626Y-4921176D01*
G01X-4406130Y-4893875D01*
G01X-4419223Y-4864783D01*
G01X-4428714Y-4834325D01*
G01X-4434465Y-4802946D01*
G01X-4436391Y-4771101D01*
G01X-4436391Y-4470376D01*
G01X-4080019Y-4470376D01*
G01X-4080019Y-4630376D01*
G01X-4078266Y-4641443D01*
G01X-4073179Y-4651427D01*
G01X-4065256Y-4659350D01*
G01X-4055272Y-4664437D01*
G01X-4044205Y-4666190D01*
G01X-3884205Y-4666190D01*
G01X-3884205Y-4666190D01*
G01X-3873138Y-4664437D01*
G01X-3863154Y-4659350D01*
G01X-3855231Y-4651427D01*
G01X-3850144Y-4641443D01*
G01X-3848391Y-4630376D01*
G01X-3848391Y-4470376D01*
G01X-3850144Y-4459309D01*
G01X-3855231Y-4449325D01*
G01X-3863154Y-4441402D01*
G01X-3873138Y-4436315D01*
G01X-3884205Y-4434562D01*
G01X-4044205Y-4434562D01*
G01X-4055272Y-4436315D01*
G01X-4065256Y-4441402D01*
G01X-4073179Y-4449325D01*
G01X-4078266Y-4459309D01*
G01X-4080019Y-4470376D01*
G01X-4436391Y-4470376D01*
G01X-4436391Y1030893D01*
G01X-4130819Y1030893D01*
G01X-4130819Y878493D01*
G01X-4129066Y867426D01*
G01X-4123979Y857442D01*
G01X-4116056Y849519D01*
G01X-4106072Y844432D01*
G01X-4095005Y842679D01*
G01X-3935005Y842679D01*
G01X-3923938Y844432D01*
G01X-3913954Y849519D01*
G01X-3906031Y857442D01*
G01X-3900944Y867426D01*
G01X-3899191Y878493D01*
G01X-3899191Y1030893D01*
G01X-3899191Y1030893D01*
G01X-3900944Y1041960D01*
G01X-3906031Y1051944D01*
G01X-3913954Y1059867D01*
G01X-3923938Y1064954D01*
G01X-3935005Y1066707D01*
G01X-4095005Y1066707D01*
G01X-4106072Y1064954D01*
G01X-4116056Y1059867D01*
G01X-4123979Y1051944D01*
G01X-4129066Y1041960D01*
G01X-4130819Y1030893D01*
G01X-4436391Y1030893D01*
G01X-4436391Y1215391D01*
G01X-4130325Y1215391D01*
G01X-4130325Y1194019D01*
G01X-4126398Y1173011D01*
G01X-4118677Y1153083D01*
G01X-4107427Y1134912D01*
G01X-4093028Y1119118D01*
G01X-4075973Y1106238D01*
G01X-4056842Y1096712D01*
G01X-4036286Y1090863D01*
G01X-4015005Y1088891D01*
G01X-4015005Y1088891D01*
G01X-3993724Y1090863D01*
G01X-3973168Y1096712D01*
G01X-3954037Y1106238D01*
G01X-3936982Y1119118D01*
G01X-3922584Y1134912D01*
G01X-3911333Y1153083D01*
G01X-3903612Y1173011D01*
G01X-3899685Y1194019D01*
G01X-3899685Y1215391D01*
G01X-3903612Y1236399D01*
G01X-3911333Y1256328D01*
G01X-3922584Y1274499D01*
G01X-3936982Y1290293D01*
G01X-3954037Y1303172D01*
G01X-3973168Y1312698D01*
G01X-3993724Y1318547D01*
G01X-4015005Y1320519D01*
G01X-4036286Y1318547D01*
G01X-4056842Y1312698D01*
G01X-4075973Y1303172D01*
G01X-4093028Y1290293D01*
G01X-4107427Y1274499D01*
G01X-4118677Y1256328D01*
G01X-4126398Y1236399D01*
G01X-4130325Y1215391D01*
G01X-4436391Y1215391D01*
G01X-4436391Y2814735D01*
G01X-4177819Y2814735D01*
G01X-4177819Y1659899D01*
G01X-4176166Y1647342D01*
G01X-4171320Y1635642D01*
G01X-4163610Y1625594D01*
G01X-4087410Y1549394D01*
G01X-4084888Y1547046D01*
G01X-4100167Y1533180D01*
G01X-4112742Y1516824D01*
G01X-4122216Y1498495D01*
G01X-4128287Y1478777D01*
G01X-4130763Y1458294D01*
G01X-4129565Y1437697D01*
G01X-4124732Y1417639D01*
G01X-4116416Y1398757D01*
G01X-4104882Y1381651D01*
G01X-4090495Y1366862D01*
G01X-4073713Y1354861D01*
G01X-4055067Y1346028D01*
G01X-4035150Y1340644D01*
G01X-4014594Y1338879D01*
G01X-3994050Y1340790D01*
G01X-3974172Y1346315D01*
G01X-3955590Y1355281D01*
G01X-3938893Y1367401D01*
G01X-3924612Y1382291D01*
G01X-3913199Y1399479D01*
G01X-3905018Y1418420D01*
G01X-3900327Y1438512D01*
G01X-3873019Y1411204D01*
G01X-3873019Y1070109D01*
G01X-3882044Y1057866D01*
G01X-3888042Y1043890D01*
G01X-3890698Y1028914D01*
G01X-3889871Y1013727D01*
G01X-3885607Y999128D01*
G01X-3878128Y985884D01*
G01X-3867829Y974693D01*
G01X-3855251Y966143D01*
G01X-3841055Y960683D01*
G01X-3825989Y958601D01*
G01X-3810845Y960007D01*
G01X-3796419Y964826D01*
G01X-3796419Y-4473071D01*
G01X-3796419Y-4473071D01*
G01X-3808905Y-4489811D01*
G01X-3818182Y-4508521D01*
G01X-3823947Y-4528594D01*
G01X-3826014Y-4549375D01*
G01X-3824316Y-4570190D01*
G01X-3818907Y-4590361D01*
G01X-3809964Y-4609233D01*
G01X-3797776Y-4626192D01*
G01X-3782741Y-4640686D01*
G01X-3765348Y-4652245D01*
G01X-3760039Y-4661457D01*
G01X-3753207Y-4669603D01*
G01X-3613507Y-4809303D01*
G01X-3604292Y-4816866D01*
G01X-3593778Y-4822486D01*
G01X-3582369Y-4825947D01*
G01X-3570505Y-4827115D01*
G01X420686Y-4827115D01*
G01X432550Y-4825947D01*
G01X443958Y-4822486D01*
G01X454472Y-4816866D01*
G01X463688Y-4809303D01*
G01X614084Y-4658907D01*
G01X633893Y-4661182D01*
G01X653789Y-4659872D01*
G01X673128Y-4655017D01*
G01X691284Y-4646775D01*
G01X707669Y-4635412D01*
G01X721753Y-4621298D01*
G01X721753Y-4627504D01*
G01X723406Y-4640060D01*
G01X728252Y-4651761D01*
G01X735962Y-4661808D01*
G01X825765Y-4751611D01*
G01X835812Y-4759321D01*
G01X847513Y-4764167D01*
G01X860069Y-4765820D01*
G01X1731581Y-4765820D01*
G01X1731581Y-4889401D01*
G01X1733334Y-4900468D01*
G01X1738421Y-4910452D01*
G01X1746344Y-4918375D01*
G01X1756328Y-4923462D01*
G01X1767395Y-4925215D01*
G01X1937395Y-4925215D01*
G01X1948462Y-4923462D01*
G01X1958446Y-4918375D01*
G01X1966369Y-4910452D01*
G01X1971456Y-4900468D01*
G01X1973209Y-4889401D01*
G01X1973209Y-4852915D01*
G01X2144495Y-4852915D01*
G01X2157051Y-4851262D01*
G01X2168752Y-4846416D01*
G01X2178799Y-4838706D01*
G01X2350716Y-4666790D01*
G01X2371487Y-4673282D01*
G01X2393066Y-4676098D01*
G01X2414808Y-4675153D01*
G01X2436062Y-4670476D01*
G01X2456192Y-4662205D01*
G01X2474596Y-4650590D01*
G01X2490722Y-4635977D01*
G01X2504089Y-4618804D01*
G01X2514297Y-4599584D01*
G01X2521040Y-4578893D01*
G01X2524117Y-4557349D01*
G01X2523435Y-4535597D01*
G01X2519014Y-4514288D01*
G01X2510988Y-4494060D01*
G01X2499596Y-4475517D01*
G01X2485179Y-4459215D01*
G01X2565810Y-4459215D01*
G01X2551011Y-4476036D01*
G01X2539430Y-4495215D01*
G01X2531435Y-4516144D01*
G01X2527278Y-4538159D01*
G01X2527092Y-4560562D01*
G01X2530882Y-4582643D01*
G01X2538529Y-4603702D01*
G01X2549790Y-4623070D01*
G01X2564307Y-4640135D01*
G01X2581621Y-4654353D01*
G01X2601182Y-4665276D01*
G01X2622371Y-4672556D01*
G01X2644514Y-4675962D01*
G01X2666911Y-4675386D01*
G01X2688851Y-4670848D01*
G01X2709637Y-4662490D01*
G01X2728612Y-4650578D01*
G01X2745173Y-4635489D01*
G01X2821390Y-4711706D01*
G01X2831438Y-4719416D01*
G01X2843138Y-4724262D01*
G01X2855695Y-4725915D01*
G01X3033495Y-4725915D01*
G01X3046051Y-4724262D01*
G01X3057752Y-4719416D01*
G01X3067799Y-4711706D01*
G01X3112716Y-4666790D01*
G01X3133293Y-4673239D01*
G01X3154669Y-4676080D01*
G01X3176216Y-4675229D01*
G01X3197302Y-4670711D01*
G01X3217306Y-4662658D01*
G01X3235642Y-4651308D01*
G01X3251769Y-4636993D01*
G01X3265216Y-4620134D01*
G01X3275585Y-4601227D01*
G01X3282574Y-4580827D01*
G01X3285977Y-4559533D01*
G01X3285693Y-4537970D01*
G01X3281731Y-4516773D01*
G01X3274208Y-4496564D01*
G01X3263344Y-4477936D01*
G01X3249459Y-4461438D01*
G01X3232960Y-4447552D01*
G01X3214332Y-4436688D01*
G01X3194123Y-4429165D01*
G01X3172926Y-4425203D01*
G01X3151363Y-4424919D01*
G01X3130069Y-4428322D01*
G01X3109669Y-4435311D01*
G01X3090762Y-4445681D01*
G01X3073903Y-4459127D01*
G01X3059588Y-4475255D01*
G01X3048238Y-4493590D01*
G01X3040185Y-4513594D01*
G01X3035667Y-4534680D01*
G01X3034816Y-4556227D01*
G01X3037657Y-4577603D01*
G01X3044106Y-4598181D01*
G01X3013400Y-4628887D01*
G01X3004826Y-4628887D01*
G01X3016359Y-4611712D01*
G01X3024921Y-4592878D01*
G01X3030281Y-4572896D01*
G01X3032294Y-4552306D01*
G01X3030906Y-4531664D01*
G01X3026153Y-4511529D01*
G01X3018165Y-4492445D01*
G01X3007157Y-4474928D01*
G01X2993428Y-4459452D01*
G01X2977347Y-4446435D01*
G01X2959351Y-4436229D01*
G01X2939926Y-4429111D01*
G01X2919597Y-4425272D01*
G01X2898914Y-4424816D01*
G01X2878435Y-4427756D01*
G01X2858716Y-4434013D01*
G01X2126118Y-3701415D01*
G01X2496900Y-3701415D01*
G01X3298106Y-4502622D01*
G01X3291657Y-4523199D01*
G01X3288816Y-4544575D01*
G01X3289667Y-4566123D01*
G01X3294185Y-4587208D01*
G01X3302238Y-4607213D01*
G01X3313588Y-4625548D01*
G01X3327903Y-4641676D01*
G01X3344762Y-4655122D01*
G01X3363669Y-4665492D01*
G01X3384069Y-4672481D01*
G01X3405363Y-4675883D01*
G01X3426926Y-4675600D01*
G01X3448123Y-4671638D01*
G01X3468332Y-4664114D01*
G01X3486960Y-4653250D01*
G01X3503459Y-4639365D01*
G01X3517344Y-4622866D01*
G01X3528208Y-4604239D01*
G01X3535731Y-4584029D01*
G01X3539693Y-4562832D01*
G01X3539857Y-4550401D01*
G01X3542681Y-4550401D01*
G01X3544592Y-4572249D01*
G01X3550269Y-4593432D01*
G01X3559537Y-4613308D01*
G01X3572116Y-4631273D01*
G01X3587623Y-4646780D01*
G01X3605588Y-4659359D01*
G01X3625464Y-4668628D01*
G01X3646647Y-4674304D01*
G01X3668495Y-4676215D01*
G01X3690342Y-4674304D01*
G01X3711526Y-4668628D01*
G01X3731402Y-4659359D01*
G01X3749366Y-4646780D01*
G01X3764874Y-4631273D01*
G01X3777453Y-4613308D01*
G01X3786721Y-4593432D01*
G01X3792397Y-4572249D01*
G01X3794309Y-4550401D01*
G01X3796681Y-4550401D01*
G01X3798592Y-4572249D01*
G01X3804269Y-4593432D01*
G01X3813537Y-4613308D01*
G01X3826116Y-4631273D01*
G01X3841623Y-4646780D01*
G01X3859588Y-4659359D01*
G01X3879464Y-4668628D01*
G01X3900647Y-4674304D01*
G01X3922495Y-4676215D01*
G01X3944342Y-4674304D01*
G01X3965526Y-4668628D01*
G01X3985402Y-4659359D01*
G01X4003366Y-4646780D01*
G01X4018874Y-4631273D01*
G01X4031453Y-4613308D01*
G01X4040721Y-4593432D01*
G01X4046397Y-4572249D01*
G01X4048309Y-4550401D01*
G01X4046397Y-4528554D01*
G01X4040721Y-4507370D01*
G01X4031453Y-4487494D01*
G01X4018874Y-4469530D01*
G01X4003366Y-4454022D01*
G01X3985402Y-4441443D01*
G01X3965526Y-4432175D01*
G01X3944342Y-4426499D01*
G01X3922495Y-4424587D01*
G01X3900647Y-4426499D01*
G01X3879464Y-4432175D01*
G01X3859588Y-4441443D01*
G01X3841623Y-4454022D01*
G01X3826116Y-4469530D01*
G01X3813537Y-4487494D01*
G01X3804269Y-4507370D01*
G01X3798592Y-4528554D01*
G01X3796681Y-4550401D01*
G01X3796681Y-4550401D01*
G01X3794309Y-4550401D01*
G01X3792397Y-4528554D01*
G01X3786721Y-4507370D01*
G01X3777453Y-4487494D01*
G01X3764874Y-4469530D01*
G01X3749366Y-4454022D01*
G01X3731402Y-4441443D01*
G01X3711526Y-4432175D01*
G01X3690342Y-4426499D01*
G01X3668495Y-4424587D01*
G01X3646647Y-4426499D01*
G01X3625464Y-4432175D01*
G01X3605588Y-4441443D01*
G01X3587623Y-4454022D01*
G01X3572116Y-4469530D01*
G01X3559537Y-4487494D01*
G01X3550269Y-4507370D01*
G01X3544592Y-4528554D01*
G01X3542681Y-4550401D01*
G01X3542681Y-4550401D01*
G01X3539857Y-4550401D01*
G01X3539977Y-4541270D01*
G01X3536574Y-4519976D01*
G01X3529585Y-4499575D01*
G01X3519216Y-4480668D01*
G01X3505769Y-4463810D01*
G01X3489642Y-4449495D01*
G01X3471306Y-4438145D01*
G01X3451302Y-4430092D01*
G01X3430216Y-4425574D01*
G01X3408669Y-4424722D01*
G01X3387293Y-4427563D01*
G01X3366716Y-4434013D01*
G01X2551299Y-3618597D01*
G01X2541252Y-3610887D01*
G01X2529551Y-3606040D01*
G01X2516995Y-3604387D01*
G01X-36014Y-3604387D01*
G01X-44486Y-3595915D01*
G01X79695Y-3595915D01*
G01X90762Y-3594162D01*
G01X100745Y-3589075D01*
G01X108669Y-3581152D01*
G01X113756Y-3571168D01*
G01X115509Y-3560101D01*
G01X115509Y-3477087D01*
G01X501095Y-3477087D01*
G01X502847Y-3488155D01*
G01X507934Y-3498138D01*
G01X515858Y-3506062D01*
G01X525841Y-3511149D01*
G01X536909Y-3512901D01*
G01X716908Y-3512901D01*
G01X727975Y-3511149D01*
G01X737959Y-3506062D01*
G01X745882Y-3498138D01*
G01X750969Y-3488155D01*
G01X752722Y-3477087D01*
G01X1301093Y-3477087D01*
G01X1302846Y-3488155D01*
G01X1307933Y-3498138D01*
G01X1315856Y-3506062D01*
G01X1325840Y-3511149D01*
G01X1336907Y-3512901D01*
G01X1516907Y-3512901D01*
G01X1527974Y-3511149D01*
G01X1537957Y-3506062D01*
G01X1545881Y-3498138D01*
G01X1550968Y-3488155D01*
G01X1552721Y-3477087D01*
G01X1847295Y-3477087D01*
G01X1849047Y-3488155D01*
G01X1854134Y-3498138D01*
G01X1862058Y-3506062D01*
G01X1872041Y-3511149D01*
G01X1883109Y-3512901D01*
G01X2063108Y-3512901D01*
G01X2074175Y-3511149D01*
G01X2084159Y-3506062D01*
G01X2092082Y-3498138D01*
G01X2097169Y-3488155D01*
G01X2098922Y-3477087D01*
G01X2647293Y-3477087D01*
G01X2649046Y-3488155D01*
G01X2654133Y-3498138D01*
G01X2662056Y-3506062D01*
G01X2672040Y-3511149D01*
G01X2683107Y-3512901D01*
G01X2863107Y-3512901D01*
G01X2874174Y-3511149D01*
G01X2884157Y-3506062D01*
G01X2892081Y-3498138D01*
G01X2897168Y-3488155D01*
G01X2898921Y-3477087D01*
G01X3193483Y-3477087D01*
G01X3195235Y-3488155D01*
G01X3200322Y-3498138D01*
G01X3208246Y-3506062D01*
G01X3218229Y-3511149D01*
G01X3229297Y-3512901D01*
G01X3409296Y-3512901D01*
G01X3420363Y-3511149D01*
G01X3430347Y-3506062D01*
G01X3438270Y-3498138D01*
G01X3443357Y-3488155D01*
G01X3445110Y-3477087D01*
G01X3445110Y-3357088D01*
G01X3993481Y-3357088D01*
G01X3993481Y-3477087D01*
G01X3993481Y-3477087D01*
G01X3995234Y-3488155D01*
G01X4000321Y-3498138D01*
G01X4008244Y-3506062D01*
G01X4018228Y-3511149D01*
G01X4029295Y-3512901D01*
G01X4209295Y-3512901D01*
G01X4220362Y-3511149D01*
G01X4230346Y-3506062D01*
G01X4238269Y-3498138D01*
G01X4243356Y-3488155D01*
G01X4245109Y-3477087D01*
G01X4245109Y-3357088D01*
G01X4243356Y-3346021D01*
G01X4238269Y-3336037D01*
G01X4230346Y-3328114D01*
G01X4220362Y-3323027D01*
G01X4209295Y-3321274D01*
G01X4029295Y-3321274D01*
G01X4018228Y-3323027D01*
G01X4008244Y-3328114D01*
G01X4000321Y-3336037D01*
G01X3995234Y-3346021D01*
G01X3993481Y-3357088D01*
G01X3445110Y-3357088D01*
G01X3443357Y-3346021D01*
G01X3438270Y-3336037D01*
G01X3430347Y-3328114D01*
G01X3420363Y-3323027D01*
G01X3409296Y-3321274D01*
G01X3229297Y-3321274D01*
G01X3218229Y-3323027D01*
G01X3208246Y-3328114D01*
G01X3200322Y-3336037D01*
G01X3195235Y-3346021D01*
G01X3193483Y-3357088D01*
G01X3193483Y-3477087D01*
G01X3193483Y-3477087D01*
G01X2898921Y-3477087D01*
G01X2898921Y-3357088D01*
G01X2897168Y-3346021D01*
G01X2892081Y-3336037D01*
G01X2884157Y-3328114D01*
G01X2874174Y-3323027D01*
G01X2863107Y-3321274D01*
G01X2683107Y-3321274D01*
G01X2672040Y-3323027D01*
G01X2662056Y-3328114D01*
G01X2654133Y-3336037D01*
G01X2649046Y-3346021D01*
G01X2647293Y-3357088D01*
G01X2647293Y-3477087D01*
G01X2647293Y-3477087D01*
G01X2098922Y-3477087D01*
G01X2098922Y-3357088D01*
G01X2097169Y-3346021D01*
G01X2092082Y-3336037D01*
G01X2084159Y-3328114D01*
G01X2074175Y-3323027D01*
G01X2063108Y-3321274D01*
G01X1883109Y-3321274D01*
G01X1872041Y-3323027D01*
G01X1862058Y-3328114D01*
G01X1854134Y-3336037D01*
G01X1849047Y-3346021D01*
G01X1847295Y-3357088D01*
G01X1847295Y-3477087D01*
G01X1847295Y-3477087D01*
G01X1552721Y-3477087D01*
G01X1552721Y-3357088D01*
G01X1550968Y-3346021D01*
G01X1545881Y-3336037D01*
G01X1537957Y-3328114D01*
G01X1527974Y-3323027D01*
G01X1516907Y-3321274D01*
G01X1336907Y-3321274D01*
G01X1325840Y-3323027D01*
G01X1315856Y-3328114D01*
G01X1307933Y-3336037D01*
G01X1302846Y-3346021D01*
G01X1301093Y-3357088D01*
G01X1301093Y-3477087D01*
G01X1301093Y-3477087D01*
G01X752722Y-3477087D01*
G01X752722Y-3357088D01*
G01X750969Y-3346021D01*
G01X745882Y-3336037D01*
G01X737959Y-3328114D01*
G01X727975Y-3323027D01*
G01X716908Y-3321274D01*
G01X536909Y-3321274D01*
G01X525841Y-3323027D01*
G01X515858Y-3328114D01*
G01X507934Y-3336037D01*
G01X502847Y-3346021D01*
G01X501095Y-3357088D01*
G01X501095Y-3477087D01*
G01X501095Y-3477087D01*
G01X115509Y-3477087D01*
G01X115509Y-3422897D01*
G01X370390Y-3168015D01*
G01X3166896Y-3168015D01*
G01X3179453Y-3166362D01*
G01X3191153Y-3161516D01*
G01X3201201Y-3153806D01*
G01X3292092Y-3062915D01*
G01X3409296Y-3062915D01*
G01X3420363Y-3061162D01*
G01X3430347Y-3056075D01*
G01X3438270Y-3048152D01*
G01X3443357Y-3038168D01*
G01X3445110Y-3027101D01*
G01X3445110Y-2907101D01*
G01X3993481Y-2907101D01*
G01X3993481Y-3027101D01*
G01X3993481Y-3027101D01*
G01X3995234Y-3038168D01*
G01X4000321Y-3048152D01*
G01X4008244Y-3056075D01*
G01X4018228Y-3061162D01*
G01X4029295Y-3062915D01*
G01X4209295Y-3062915D01*
G01X4220362Y-3061162D01*
G01X4230346Y-3056075D01*
G01X4238269Y-3048152D01*
G01X4243356Y-3038168D01*
G01X4245109Y-3027101D01*
G01X4245109Y-2907101D01*
G01X4243356Y-2896034D01*
G01X4238269Y-2886050D01*
G01X4230346Y-2878127D01*
G01X4220362Y-2873040D01*
G01X4209295Y-2871287D01*
G01X4029295Y-2871287D01*
G01X4018228Y-2873040D01*
G01X4008244Y-2878127D01*
G01X4000321Y-2886050D01*
G01X3995234Y-2896034D01*
G01X3993481Y-2907101D01*
G01X3445110Y-2907101D01*
G01X3443357Y-2896034D01*
G01X3438270Y-2886050D01*
G01X3430347Y-2878127D01*
G01X3420363Y-2873040D01*
G01X3409296Y-2871287D01*
G01X3229297Y-2871287D01*
G01X3218229Y-2873040D01*
G01X3208246Y-2878127D01*
G01X3200322Y-2886050D01*
G01X3195235Y-2896034D01*
G01X3193483Y-2907101D01*
G01X3193483Y-3024306D01*
G01X3146801Y-3070987D01*
G01X1937831Y-3070987D01*
G01X1945904Y-3062915D01*
G01X2063108Y-3062915D01*
G01X2074175Y-3061162D01*
G01X2084159Y-3056075D01*
G01X2092082Y-3048152D01*
G01X2097169Y-3038168D01*
G01X2098922Y-3027101D01*
G01X2647293Y-3027101D01*
G01X2649046Y-3038168D01*
G01X2654133Y-3048152D01*
G01X2662056Y-3056075D01*
G01X2672040Y-3061162D01*
G01X2683107Y-3062915D01*
G01X2863107Y-3062915D01*
G01X2874174Y-3061162D01*
G01X2884157Y-3056075D01*
G01X2892081Y-3048152D01*
G01X2897168Y-3038168D01*
G01X2898921Y-3027101D01*
G01X2898921Y-2907101D01*
G01X2897168Y-2896034D01*
G01X2892081Y-2886050D01*
G01X2884157Y-2878127D01*
G01X2874174Y-2873040D01*
G01X2863107Y-2871287D01*
G01X2683107Y-2871287D01*
G01X2672040Y-2873040D01*
G01X2662056Y-2878127D01*
G01X2654133Y-2886050D01*
G01X2649046Y-2896034D01*
G01X2647293Y-2907101D01*
G01X2647293Y-3027101D01*
G01X2647293Y-3027101D01*
G01X2098922Y-3027101D01*
G01X2098922Y-2907101D01*
G01X2097169Y-2896034D01*
G01X2092082Y-2886050D01*
G01X2084159Y-2878127D01*
G01X2074175Y-2873040D01*
G01X2063108Y-2871287D01*
G01X1883109Y-2871287D01*
G01X1872041Y-2873040D01*
G01X1862058Y-2878127D01*
G01X1854134Y-2886050D01*
G01X1849047Y-2896034D01*
G01X1847295Y-2907101D01*
G01X1847295Y-3008390D01*
G01X1552721Y-3008390D01*
G01X1552721Y-2907101D01*
G01X1550968Y-2896034D01*
G01X1545881Y-2886050D01*
G01X1537957Y-2878127D01*
G01X1527974Y-2873040D01*
G01X1516907Y-2871287D01*
G01X1336907Y-2871287D01*
G01X1325840Y-2873040D01*
G01X1315856Y-2878127D01*
G01X1307933Y-2886050D01*
G01X1302846Y-2896034D01*
G01X1301093Y-2907101D01*
G01X1301093Y-3008390D01*
G01X752722Y-3008390D01*
G01X752722Y-2907101D01*
G01X750969Y-2896034D01*
G01X745882Y-2886050D01*
G01X737959Y-2878127D01*
G01X727975Y-2873040D01*
G01X716908Y-2871287D01*
G01X536909Y-2871287D01*
G01X525841Y-2873040D01*
G01X515858Y-2878127D01*
G01X507934Y-2886050D01*
G01X502847Y-2896034D01*
G01X501095Y-2907101D01*
G01X501095Y-2918587D01*
G01X105340Y-2918587D01*
G01X94739Y-2899373D01*
G01X80837Y-2882393D01*
G01X64093Y-2868208D01*
G01X45060Y-2857286D01*
G01X24364Y-2849987D01*
G01X2690Y-2846552D01*
G01X-19248Y-2847095D01*
G01X-40726Y-2851596D01*
G01X-61035Y-2859909D01*
G01X-79506Y-2871758D01*
G01X-95528Y-2886753D01*
G01X-108574Y-2904399D01*
G01X-118213Y-2924114D01*
G01X-124126Y-2945247D01*
G01X-126119Y-2967101D01*
G01X-124126Y-2988955D01*
G01X-118213Y-3010088D01*
G01X-108574Y-3029803D01*
G01X-95528Y-3047449D01*
G01X-79506Y-3062444D01*
G01X-61035Y-3074293D01*
G01X-40726Y-3082606D01*
G01X-19248Y-3087108D01*
G01X2690Y-3087650D01*
G01X24364Y-3084215D01*
G01X45060Y-3076916D01*
G01X64093Y-3065994D01*
G01X80837Y-3051809D01*
G01X94739Y-3034830D01*
G01X105340Y-3015615D01*
G01X133419Y-3015615D01*
G01X124588Y-3022599D01*
G01X38628Y-3108559D01*
G01X17783Y-3102514D01*
G01X-3807Y-3100297D01*
G01X-25446Y-3101978D01*
G01X-46434Y-3107504D01*
G01X-66096Y-3116696D01*
G01X-83795Y-3129257D01*
G01X-83795Y-3094101D01*
G01X-85448Y-3081545D01*
G01X-90295Y-3069844D01*
G01X-98005Y-3059797D01*
G01X-146767Y-3011035D01*
G01X-141070Y-2991909D01*
G01X-138599Y-2972107D01*
G01X-139422Y-2952168D01*
G01X-143516Y-2932636D01*
G01X-150769Y-2914045D01*
G01X-160983Y-2896901D01*
G01X-173881Y-2881673D01*
G01X-189109Y-2868776D01*
G01X-206253Y-2858561D01*
G01X-224844Y-2851308D01*
G01X-244375Y-2847214D01*
G01X-264314Y-2846391D01*
G01X-284117Y-2848862D01*
G01X-303243Y-2854559D01*
G01X-308891Y-2848910D01*
G01X-308891Y-1778065D01*
G01X-292561Y-1790623D01*
G01X-274265Y-1800089D01*
G01X-254581Y-1806164D01*
G01X-234132Y-1808655D01*
G01X-213565Y-1807484D01*
G01X-193531Y-1802688D01*
G01X-174663Y-1794418D01*
G01X-157560Y-1782937D01*
G01X-142760Y-1768606D01*
G01X-130734Y-1751881D01*
G01X-121862Y-1733289D01*
G01X-116423Y-1713420D01*
G01X-114591Y-1692901D01*
G01X-116423Y-1672383D01*
G01X-121862Y-1652513D01*
G01X-130734Y-1633922D01*
G01X-142760Y-1617196D01*
G01X-157560Y-1602866D01*
G01X-174663Y-1591384D01*
G01X-193531Y-1583115D01*
G01X-213565Y-1578318D01*
G01X-234132Y-1577147D01*
G01X-254581Y-1579639D01*
G01X-274265Y-1585714D01*
G01X-292561Y-1595180D01*
G01X-308891Y-1607738D01*
G01X-308891Y-1524065D01*
G01X-292561Y-1536623D01*
G01X-274265Y-1546089D01*
G01X-254581Y-1552164D01*
G01X-234132Y-1554655D01*
G01X-213565Y-1553484D01*
G01X-193531Y-1548688D01*
G01X-174663Y-1540418D01*
G01X-157560Y-1528937D01*
G01X-142760Y-1514606D01*
G01X-130734Y-1497881D01*
G01X-121862Y-1479289D01*
G01X-116423Y-1459420D01*
G01X-114591Y-1438901D01*
G01X-116423Y-1418383D01*
G01X-121862Y-1398513D01*
G01X-130734Y-1379922D01*
G01X-142760Y-1363196D01*
G01X-157560Y-1348866D01*
G01X-174663Y-1337384D01*
G01X-193531Y-1329115D01*
G01X-213565Y-1324318D01*
G01X-234132Y-1323147D01*
G01X-254581Y-1325639D01*
G01X-274265Y-1331714D01*
G01X-292561Y-1341180D01*
G01X-308891Y-1353738D01*
G01X-308891Y-1270065D01*
G01X-292561Y-1282623D01*
G01X-274265Y-1292089D01*
G01X-254581Y-1298164D01*
G01X-234132Y-1300655D01*
G01X-213565Y-1299484D01*
G01X-193531Y-1294688D01*
G01X-174663Y-1286418D01*
G01X-157560Y-1274937D01*
G01X-142760Y-1260606D01*
G01X-130734Y-1243881D01*
G01X-121862Y-1225289D01*
G01X-116423Y-1205420D01*
G01X-114591Y-1184901D01*
G01X-116423Y-1164383D01*
G01X-121862Y-1144513D01*
G01X-130734Y-1125922D01*
G01X-142760Y-1109196D01*
G01X-157560Y-1094866D01*
G01X-174663Y-1083384D01*
G01X-193531Y-1075115D01*
G01X-213565Y-1070318D01*
G01X-234132Y-1069147D01*
G01X-254581Y-1071639D01*
G01X-274265Y-1077714D01*
G01X-292561Y-1087180D01*
G01X-308891Y-1099738D01*
G01X-308891Y-1077996D01*
G01X-270462Y-1039567D01*
G01X-250289Y-1044995D01*
G01X-229469Y-1046711D01*
G01X-208680Y-1044659D01*
G01X-188598Y-1038906D01*
G01X-169875Y-1029638D01*
G01X-153123Y-1017158D01*
G01X-138884Y-1001872D01*
G01X-127624Y-984276D01*
G01X-119708Y-964944D01*
G01X-115393Y-944504D01*
G01X-114820Y-923621D01*
G01X-118009Y-902976D01*
G01X-124854Y-883239D01*
G01X-135133Y-865052D01*
G01X-148512Y-849009D01*
G01X-164556Y-835629D01*
G01X-182742Y-825350D01*
G01X-202479Y-818505D01*
G01X-223125Y-815317D01*
G01X-244008Y-815889D01*
G01X-264448Y-820204D01*
G01X-283780Y-828120D01*
G01X-301376Y-839381D01*
G01X-316662Y-853619D01*
G01X-329142Y-870372D01*
G01X-338410Y-889094D01*
G01X-344163Y-909176D01*
G01X-346215Y-929966D01*
G01X-344499Y-950785D01*
G01X-339071Y-970958D01*
G01X-359691Y-991578D01*
G01X-359691Y-874796D01*
G01X-270462Y-785567D01*
G01X-250289Y-790995D01*
G01X-229469Y-792711D01*
G01X-208680Y-790659D01*
G01X-188598Y-784906D01*
G01X-169875Y-775638D01*
G01X-153123Y-763158D01*
G01X-138884Y-747872D01*
G01X-127624Y-730276D01*
G01X-119708Y-710944D01*
G01X-115393Y-690504D01*
G01X-114820Y-669621D01*
G01X-118009Y-648976D01*
G01X-124854Y-629239D01*
G01X-135133Y-611052D01*
G01X-148512Y-595009D01*
G01X-164556Y-581629D01*
G01X-182742Y-571350D01*
G01X-202479Y-564505D01*
G01X-223125Y-561317D01*
G01X-244008Y-561889D01*
G01X-264448Y-566204D01*
G01X-283780Y-574120D01*
G01X-301376Y-585381D01*
G01X-316662Y-599619D01*
G01X-329142Y-616372D01*
G01X-338410Y-635094D01*
G01X-344163Y-655176D01*
G01X-346215Y-675966D01*
G01X-344499Y-696785D01*
G01X-339071Y-716958D01*
G01X-410491Y-788378D01*
G01X-410491Y-671596D01*
G01X-270462Y-531567D01*
G01X-250289Y-536995D01*
G01X-229469Y-538711D01*
G01X-208680Y-536659D01*
G01X-188598Y-530906D01*
G01X-169875Y-521638D01*
G01X-153123Y-509158D01*
G01X-138884Y-493872D01*
G01X-130715Y-481105D01*
G01X1278495Y-481105D01*
G01X1282177Y-496648D01*
G01X1289469Y-510860D01*
G01X1299948Y-522915D01*
G01X1313005Y-532116D01*
G01X1327883Y-537927D01*
G01X1343719Y-540012D01*
G01X1356214Y-545676D01*
G01X1369795Y-547615D01*
G01X1687295Y-547615D01*
G01X1699851Y-545962D01*
G01X1711552Y-541116D01*
G01X1721599Y-533406D01*
G01X2259808Y4802D01*
G01X2279283Y-122D01*
G01X2299324Y-1489D01*
G01X2319288Y746D01*
G01X2338531Y6510D01*
G01X2356435Y15619D01*
G01X2372425Y27780D01*
G01X2385985Y42601D01*
G01X2396680Y59605D01*
G01X2404165Y78247D01*
G01X2408201Y97925D01*
G01X2408657Y118008D01*
G01X2405518Y137849D01*
G01X2398886Y156811D01*
G01X2388974Y174284D01*
G01X2376101Y189705D01*
G01X2360680Y202578D01*
G01X2343207Y212490D01*
G01X2324246Y219122D01*
G01X2304404Y222261D01*
G01X2284321Y221805D01*
G01X2264643Y217769D01*
G01X2246001Y210283D01*
G01X2228997Y199589D01*
G01X2214176Y186028D01*
G01X2202016Y170039D01*
G01X2192907Y152135D01*
G01X2187142Y132892D01*
G01X2184907Y112928D01*
G01X2186274Y92887D01*
G01X2191199Y73412D01*
G01X1667200Y-450587D01*
G01X1667200Y-450587D01*
G01X1406550Y-450587D01*
G01X1399220Y-436396D01*
G01X1388710Y-424368D01*
G01X1375628Y-415203D01*
G01X1360734Y-409432D01*
G01X1344892Y-407389D01*
G01X1329021Y-409194D01*
G01X1314043Y-414741D01*
G01X1300825Y-423709D01*
G01X1290135Y-435578D01*
G01X1282593Y-449658D01*
G01X1278637Y-465133D01*
G01X1278495Y-481105D01*
G01X-130715Y-481105D01*
G01X-127624Y-476276D01*
G01X-119708Y-456944D01*
G01X-115393Y-436504D01*
G01X-114820Y-415621D01*
G01X-118009Y-394976D01*
G01X-124854Y-375239D01*
G01X-135133Y-357052D01*
G01X-148512Y-341009D01*
G01X-164556Y-327629D01*
G01X-182742Y-317350D01*
G01X-202479Y-310505D01*
G01X-223125Y-307317D01*
G01X-244008Y-307889D01*
G01X-264448Y-312204D01*
G01X-283780Y-320120D01*
G01X-301376Y-331381D01*
G01X-316662Y-345619D01*
G01X-329142Y-362372D01*
G01X-338410Y-381094D01*
G01X-344163Y-401176D01*
G01X-346215Y-421966D01*
G01X-344499Y-442785D01*
G01X-339071Y-462958D01*
G01X-473991Y-597878D01*
G01X-473991Y-158215D01*
G01X-345725Y-158215D01*
G01X-345725Y-179587D01*
G01X-341798Y-200595D01*
G01X-334077Y-220524D01*
G01X-322827Y-238695D01*
G01X-308428Y-254489D01*
G01X-291373Y-267368D01*
G01X-272242Y-276895D01*
G01X-251686Y-282743D01*
G01X-230405Y-284715D01*
G01X-209124Y-282743D01*
G01X-188568Y-276895D01*
G01X-169437Y-267368D01*
G01X-152382Y-254489D01*
G01X-137984Y-238695D01*
G01X-126733Y-220524D01*
G01X-119012Y-200595D01*
G01X-115085Y-179587D01*
G01X-115085Y-158215D01*
G01X-119012Y-137207D01*
G01X-126733Y-117279D01*
G01X-137984Y-99108D01*
G01X-152382Y-83314D01*
G01X-169437Y-70434D01*
G01X-188568Y-60908D01*
G01X-209124Y-55059D01*
G01X-230405Y-53087D01*
G01X-230405Y-53087D01*
G01X-251686Y-55059D01*
G01X-272242Y-60908D01*
G01X-291373Y-70434D01*
G01X-308428Y-83314D01*
G01X-322827Y-99108D01*
G01X-334077Y-117279D01*
G01X-341798Y-137207D01*
G01X-345725Y-158215D01*
G01X-473991Y-158215D01*
G01X-473991Y547604D01*
G01X-456719Y564876D01*
G01X-456719Y491499D01*
G01X-455066Y478942D01*
G01X-450220Y467242D01*
G01X-442510Y457194D01*
G01X-344469Y359154D01*
G01X-346210Y337657D01*
G01X-343935Y316210D01*
G01X-337722Y295556D01*
G01X-327788Y276413D01*
G01X-314476Y259444D01*
G01X-298249Y245237D01*
G01X-279669Y234285D01*
G01X-259381Y226968D01*
G01X-238087Y223540D01*
G01X-216528Y224119D01*
G01X-195449Y228686D01*
G01X-175583Y237082D01*
G01X-157618Y249016D01*
G01X-142177Y264074D01*
G01X-129797Y281734D01*
G01X-120905Y301383D01*
G01X-115810Y322340D01*
G01X-114690Y343878D01*
G01X-117583Y365251D01*
G01X-124388Y385717D01*
G01X-134870Y404566D01*
G01X-148665Y421144D01*
G01X-140099Y425663D01*
G01X-132601Y431794D01*
G01X122598Y686992D01*
G01X289885Y686992D01*
G01X287522Y671635D01*
G01X-190348Y193765D01*
G01X-210521Y199193D01*
G01X-231341Y200909D01*
G01X-252130Y198857D01*
G01X-272213Y193103D01*
G01X-290935Y183836D01*
G01X-307688Y171356D01*
G01X-321926Y156069D01*
G01X-333186Y138473D01*
G01X-341103Y119141D01*
G01X-345417Y98701D01*
G01X-345990Y77819D01*
G01X-342802Y57173D01*
G01X-335957Y37436D01*
G01X-325677Y19250D01*
G01X-312298Y3206D01*
G01X-296254Y-10173D01*
G01X-278068Y-20453D01*
G01X-258331Y-27298D01*
G01X-237685Y-30486D01*
G01X-216803Y-29914D01*
G01X-196363Y-25599D01*
G01X-177030Y-17683D01*
G01X-159435Y-6422D01*
G01X-144148Y7816D01*
G01X-131668Y24569D01*
G01X-122401Y43291D01*
G01X-116647Y63374D01*
G01X-114595Y84163D01*
G01X-116311Y104983D01*
G01X-117795Y110499D01*
G01X1930881Y110499D01*
G01X1932788Y89916D01*
G01X1938445Y70035D01*
G01X1947659Y51531D01*
G01X1960115Y35035D01*
G01X1975391Y21110D01*
G01X1992966Y10228D01*
G01X2012241Y2761D01*
G01X2032559Y-1037D01*
G01X2053230Y-1037D01*
G01X2073549Y2761D01*
G01X2092824Y10228D01*
G01X2110398Y21110D01*
G01X2125674Y35035D01*
G01X2138131Y51531D01*
G01X2147345Y70035D01*
G01X2153002Y89916D01*
G01X2154909Y110499D01*
G01X2153002Y131081D01*
G01X2147345Y150963D01*
G01X2138131Y169466D01*
G01X2125674Y185962D01*
G01X2110398Y199888D01*
G01X2092824Y210770D01*
G01X2073549Y218237D01*
G01X2053230Y222035D01*
G01X2032559Y222035D01*
G01X2012241Y218237D01*
G01X1992966Y210770D01*
G01X1975391Y199888D01*
G01X1960115Y185962D01*
G01X1947659Y169466D01*
G01X1938445Y150963D01*
G01X1932788Y131081D01*
G01X1930881Y110499D01*
G01X1930881Y110499D01*
G01X-117795Y110499D01*
G01X-121739Y125156D01*
G01X356131Y603026D01*
G01X370903Y605230D01*
G01X384808Y610683D01*
G01X397139Y619111D01*
G01X407271Y630084D01*
G01X414691Y643046D01*
G01X419022Y657340D01*
G01X420044Y672241D01*
G01X417705Y686992D01*
G01X1092976Y686992D01*
G01X1103474Y681193D01*
G01X1115298Y679184D01*
G01X1195946Y679184D01*
G01X1205560Y680499D01*
G01X1214468Y684346D01*
G01X1222016Y690443D01*
G01X1227651Y698342D01*
G01X1230958Y707465D01*
G01X1234266Y698342D01*
G01X1239901Y690443D01*
G01X1247449Y684346D01*
G01X1256357Y680499D01*
G01X1265971Y679184D01*
G01X1346619Y679184D01*
G01X1357686Y680937D01*
G01X1367670Y686024D01*
G01X1375593Y693947D01*
G01X1380680Y703931D01*
G01X1382433Y714998D01*
G01X1382433Y801399D01*
G01X1380442Y813174D01*
G01X1374690Y823640D01*
G01X1365817Y831633D01*
G01X1354809Y836264D01*
G01X1354809Y1135636D01*
G01X1372911Y1146062D01*
G01X1388847Y1159570D01*
G01X1402096Y1175722D01*
G01X1412228Y1193990D01*
G01X1418913Y1213782D01*
G01X1421935Y1234453D01*
G01X1421193Y1255330D01*
G01X1416714Y1275734D01*
G01X1408641Y1295002D01*
G01X1397239Y1312506D01*
G01X1389389Y1320799D01*
G01X1444481Y1320799D01*
G01X1444481Y1160799D01*
G01X1446234Y1149732D01*
G01X1451321Y1139748D01*
G01X1459244Y1131825D01*
G01X1469228Y1126738D01*
G01X1480295Y1124985D01*
G01X1640295Y1124985D01*
G01X1651362Y1126738D01*
G01X1661346Y1131825D01*
G01X1669269Y1139748D01*
G01X1674356Y1149732D01*
G01X1676109Y1160799D01*
G01X1676109Y1320799D01*
G01X1674356Y1331866D01*
G01X1669269Y1341849D01*
G01X1661346Y1349773D01*
G01X1651362Y1354860D01*
G01X1640295Y1356613D01*
G01X1480295Y1356613D01*
G01X1480295Y1356613D01*
G01X1469228Y1354860D01*
G01X1459244Y1349773D01*
G01X1451321Y1341849D01*
G01X1446234Y1331866D01*
G01X1444481Y1320799D01*
G01X1389389Y1320799D01*
G01X1382878Y1327677D01*
G01X1366025Y1340022D01*
G01X1347228Y1349137D01*
G01X1327100Y1354728D01*
G01X1306295Y1356613D01*
G01X1285490Y1354728D01*
G01X1265361Y1349137D01*
G01X1246565Y1340022D01*
G01X1229712Y1327677D01*
G01X1215350Y1312506D01*
G01X1203948Y1295002D01*
G01X1195876Y1275734D01*
G01X1191396Y1255330D01*
G01X1190655Y1234453D01*
G01X1193676Y1213782D01*
G01X1200362Y1193990D01*
G01X1210494Y1175722D01*
G01X1223743Y1159570D01*
G01X1239678Y1146062D01*
G01X1257781Y1135636D01*
G01X1257781Y836264D01*
G01X1248401Y832607D01*
G01X1240410Y826484D01*
G01X1234438Y818379D01*
G01X1230958Y808933D01*
G01X1227651Y818055D01*
G01X1222016Y825955D01*
G01X1214468Y832052D01*
G01X1205560Y835899D01*
G01X1195946Y837213D01*
G01X1115298Y837213D01*
G01X1104231Y835460D01*
G01X1094247Y830373D01*
G01X1086324Y822450D01*
G01X1081237Y812466D01*
G01X1079484Y801399D01*
G01X1079484Y784020D01*
G01X102502Y784020D01*
G01X89946Y782367D01*
G01X78245Y777521D01*
G01X68198Y769811D01*
G01X-114760Y586853D01*
G01X-115495Y607540D01*
G01X-119902Y627766D01*
G01X-127839Y646885D01*
G01X-139052Y664285D01*
G01X-153184Y679411D01*
G01X-145301Y685794D01*
G01X34305Y865399D01*
G01X42014Y875447D01*
G01X46861Y887148D01*
G01X48514Y899704D01*
G01X48514Y1260609D01*
G01X889531Y2101626D01*
G01X903512Y2103623D01*
G01X916753Y2108537D01*
G01X928653Y2116142D01*
G01X938673Y2126095D01*
G01X946358Y2137944D01*
G01X951359Y2151152D01*
G01X2336784Y765727D01*
G01X2336784Y714998D01*
G01X2338537Y703931D01*
G01X2343624Y693947D01*
G01X2351547Y686024D01*
G01X2361531Y680937D01*
G01X2372598Y679184D01*
G01X2443371Y679184D01*
G01X2443371Y169508D01*
G01X2444222Y160461D01*
G01X2446746Y151731D01*
G01X2440936Y131857D01*
G01X2438883Y111253D01*
G01X2440658Y90624D01*
G01X2446200Y70673D01*
G01X2455319Y52083D01*
G01X2467703Y35490D01*
G01X2482931Y21459D01*
G01X2500480Y10471D01*
G01X2519753Y2901D01*
G01X2540089Y-993D01*
G01X2560794Y-1077D01*
G01X2581162Y2651D01*
G01X2600495Y10065D01*
G01X2618133Y20910D01*
G01X2633474Y34816D01*
G01X2645993Y51309D01*
G01X2655263Y69824D01*
G01X2660966Y89728D01*
G01X2662909Y110343D01*
G01X2661024Y130963D01*
G01X2655376Y150883D01*
G01X2646157Y169424D01*
G01X2633684Y185951D01*
G01X2618382Y199900D01*
G01X2600774Y210794D01*
G01X2581462Y218261D01*
G01X2561105Y222046D01*
G01X2540399Y222020D01*
G01X2540399Y679184D01*
G01X2603919Y679184D01*
G01X2614986Y680937D01*
G01X2624970Y686024D01*
G01X2632893Y693947D01*
G01X2637980Y703931D01*
G01X2639733Y714998D01*
G01X2639733Y801399D01*
G01X2637742Y813174D01*
G01X2631990Y823640D01*
G01X2623117Y831633D01*
G01X2612109Y836264D01*
G01X2612109Y1141167D01*
G01X2620079Y1148002D01*
G01X2627095Y1155812D01*
G01X2638669Y1143875D01*
G01X2652441Y1134559D01*
G01X2667828Y1128258D01*
G01X2684179Y1125240D01*
G01X2700801Y1125632D01*
G01X2716992Y1129418D01*
G01X2732065Y1136437D01*
G01X2745383Y1146392D01*
G01X2756381Y1158862D01*
G01X2756381Y211462D01*
G01X2739128Y201173D01*
G01X2723990Y187968D01*
G01X2711454Y172271D01*
G01X2701923Y154588D01*
G01X2695704Y135487D01*
G01X2692996Y115582D01*
G01X2693888Y95514D01*
G01X2698349Y75927D01*
G01X2706237Y57453D01*
G01X2717299Y40684D01*
G01X2731177Y26161D01*
G01X2747426Y14350D01*
G01X2765524Y5632D01*
G01X2784888Y286D01*
G01X2804895Y-1515D01*
G01X2824902Y286D01*
G01X2844266Y5632D01*
G01X2862363Y14350D01*
G01X2878613Y26161D01*
G01X2892491Y40684D01*
G01X2903552Y57453D01*
G01X2911440Y75927D01*
G01X2915902Y95514D01*
G01X2916793Y115582D01*
G01X2914086Y135487D01*
G01X2907867Y154588D01*
G01X2898336Y172271D01*
G01X2885800Y187968D01*
G01X2870662Y201173D01*
G01X2853409Y211462D01*
G01X2853409Y1240799D01*
G01X3213484Y1240799D01*
G01X3215396Y1218951D01*
G01X3221072Y1197768D01*
G01X3230340Y1177892D01*
G01X3242919Y1159927D01*
G01X3258427Y1144420D01*
G01X3276391Y1131841D01*
G01X3296267Y1122572D01*
G01X3317451Y1116896D01*
G01X3339298Y1114985D01*
G01X3361145Y1116896D01*
G01X3382329Y1122572D01*
G01X3402205Y1131841D01*
G01X3420170Y1144420D01*
G01X3435677Y1159927D01*
G01X3448256Y1177892D01*
G01X3457524Y1197768D01*
G01X3463201Y1218951D01*
G01X3465112Y1240799D01*
G01X3973478Y1240799D01*
G01X3975389Y1218951D01*
G01X3981065Y1197768D01*
G01X3990334Y1177892D01*
G01X4002913Y1159927D01*
G01X4018420Y1144420D01*
G01X4036385Y1131841D01*
G01X4056261Y1122572D01*
G01X4077444Y1116896D01*
G01X4099292Y1114985D01*
G01X4121139Y1116896D01*
G01X4142322Y1122572D01*
G01X4162198Y1131841D01*
G01X4180163Y1144420D01*
G01X4195670Y1159927D01*
G01X4208249Y1177892D01*
G01X4217518Y1197768D01*
G01X4223194Y1218951D01*
G01X4225105Y1240799D01*
G01X4223194Y1262646D01*
G01X4217518Y1283830D01*
G01X4208249Y1303706D01*
G01X4195670Y1321670D01*
G01X4180163Y1337178D01*
G01X4162198Y1349757D01*
G01X4142322Y1359025D01*
G01X4121139Y1364701D01*
G01X4099292Y1366613D01*
G01X4077444Y1364701D01*
G01X4056261Y1359025D01*
G01X4036385Y1349757D01*
G01X4018420Y1337178D01*
G01X4002913Y1321670D01*
G01X3990334Y1303706D01*
G01X3981065Y1283830D01*
G01X3975389Y1262646D01*
G01X3973478Y1240799D01*
G01X3973478Y1240799D01*
G01X3465112Y1240799D01*
G01X3463201Y1262646D01*
G01X3457524Y1283830D01*
G01X3448256Y1303706D01*
G01X3435677Y1321670D01*
G01X3420170Y1337178D01*
G01X3402205Y1349757D01*
G01X3382329Y1359025D01*
G01X3361145Y1364701D01*
G01X3339298Y1366613D01*
G01X3317451Y1364701D01*
G01X3296267Y1359025D01*
G01X3276391Y1349757D01*
G01X3258427Y1337178D01*
G01X3242919Y1321670D01*
G01X3230340Y1303706D01*
G01X3221072Y1283830D01*
G01X3215396Y1262646D01*
G01X3213484Y1240799D01*
G01X3213484Y1240799D01*
G01X2853409Y1240799D01*
G01X2853409Y3348999D01*
G01X2851756Y3361555D01*
G01X2846909Y3373256D01*
G01X2839199Y3383303D01*
G01X2661504Y3560999D01*
G01X3712781Y3560999D01*
G01X3712781Y3390999D01*
G01X3714534Y3379932D01*
G01X3719621Y3369948D01*
G01X3727544Y3362025D01*
G01X3737528Y3356938D01*
G01X3748595Y3355185D01*
G01X3918595Y3355185D01*
G01X3929662Y3356938D01*
G01X3939646Y3362025D01*
G01X3947569Y3369948D01*
G01X3952656Y3379932D01*
G01X3954409Y3390999D01*
G01X3954409Y3560999D01*
G01X3954409Y3560999D01*
G01X3966781Y3560999D01*
G01X3966781Y3390999D01*
G01X3968534Y3379932D01*
G01X3973621Y3369948D01*
G01X3981544Y3362025D01*
G01X3991528Y3356938D01*
G01X4002595Y3355185D01*
G01X4172595Y3355185D01*
G01X4183662Y3356938D01*
G01X4193646Y3362025D01*
G01X4201569Y3369948D01*
G01X4206656Y3379932D01*
G01X4208409Y3390999D01*
G01X4208409Y3560999D01*
G01X4208409Y3560999D01*
G01X4206656Y3572066D01*
G01X4201569Y3582049D01*
G01X4193646Y3589973D01*
G01X4183662Y3595060D01*
G01X4172595Y3596813D01*
G01X4002595Y3596813D01*
G01X3991528Y3595060D01*
G01X3981544Y3589973D01*
G01X3973621Y3582049D01*
G01X3968534Y3572066D01*
G01X3966781Y3560999D01*
G01X3954409Y3560999D01*
G01X3952656Y3572066D01*
G01X3947569Y3582049D01*
G01X3939646Y3589973D01*
G01X3929662Y3595060D01*
G01X3918595Y3596813D01*
G01X3748595Y3596813D01*
G01X3737528Y3595060D01*
G01X3727544Y3589973D01*
G01X3719621Y3582049D01*
G01X3714534Y3572066D01*
G01X3712781Y3560999D01*
G01X2661504Y3560999D01*
G01X2656591Y3565912D01*
G01X2661365Y3584466D01*
G01X2662907Y3603563D01*
G01X2661173Y3622643D01*
G01X2656212Y3641149D01*
G01X2648170Y3658538D01*
G01X2637283Y3674303D01*
G01X2623868Y3687981D01*
G01X2608318Y3699174D01*
G01X2591089Y3707553D01*
G01X2591636Y3722088D01*
G01X2590178Y3729999D01*
G01X3712781Y3729999D01*
G01X3714616Y3709020D01*
G01X3720067Y3688678D01*
G01X3728967Y3669592D01*
G01X3741046Y3652341D01*
G01X3755937Y3637450D01*
G01X3773188Y3625371D01*
G01X3792274Y3616471D01*
G01X3812616Y3611020D01*
G01X3833595Y3609185D01*
G01X3833595Y3609185D01*
G01X3854574Y3611020D01*
G01X3874916Y3616471D01*
G01X3894002Y3625371D01*
G01X3911252Y3637450D01*
G01X3926144Y3652341D01*
G01X3938223Y3669592D01*
G01X3947123Y3688678D01*
G01X3952573Y3709020D01*
G01X3954409Y3729999D01*
G01X3966781Y3729999D01*
G01X3968616Y3709020D01*
G01X3974067Y3688678D01*
G01X3982967Y3669592D01*
G01X3995046Y3652341D01*
G01X4009937Y3637450D01*
G01X4027188Y3625371D01*
G01X4046274Y3616471D01*
G01X4066616Y3611020D01*
G01X4087595Y3609185D01*
G01X4087595Y3609185D01*
G01X4108574Y3611020D01*
G01X4128916Y3616471D01*
G01X4148002Y3625371D01*
G01X4165252Y3637450D01*
G01X4180144Y3652341D01*
G01X4192223Y3669592D01*
G01X4201123Y3688678D01*
G01X4206573Y3709020D01*
G01X4208409Y3729999D01*
G01X4206573Y3750978D01*
G01X4201123Y3771319D01*
G01X4192223Y3790406D01*
G01X4180144Y3807656D01*
G01X4165252Y3822547D01*
G01X4148002Y3834627D01*
G01X4128916Y3843527D01*
G01X4108574Y3848977D01*
G01X4087595Y3850813D01*
G01X4066616Y3848977D01*
G01X4046274Y3843527D01*
G01X4027188Y3834627D01*
G01X4009937Y3822547D01*
G01X3995046Y3807656D01*
G01X3982967Y3790406D01*
G01X3974067Y3771319D01*
G01X3968616Y3750978D01*
G01X3966781Y3729999D01*
G01X3954409Y3729999D01*
G01X3952573Y3750978D01*
G01X3947123Y3771319D01*
G01X3938223Y3790406D01*
G01X3926144Y3807656D01*
G01X3911252Y3822547D01*
G01X3894002Y3834627D01*
G01X3874916Y3843527D01*
G01X3854574Y3848977D01*
G01X3833595Y3850813D01*
G01X3812616Y3848977D01*
G01X3792274Y3843527D01*
G01X3773188Y3834627D01*
G01X3755937Y3822547D01*
G01X3741046Y3807656D01*
G01X3728967Y3790406D01*
G01X3720067Y3771319D01*
G01X3714616Y3750978D01*
G01X3712781Y3729999D01*
G01X2590178Y3729999D01*
G01X2589001Y3736392D01*
G01X2583311Y3749778D01*
G01X2602275Y3757464D01*
G01X2619524Y3768471D01*
G01X2634484Y3782433D01*
G01X2646654Y3798883D01*
G01X2655628Y3817273D01*
G01X2661107Y3836988D01*
G01X2662908Y3857371D01*
G01X2660971Y3877742D01*
G01X2655361Y3897420D01*
G01X2646265Y3915750D01*
G01X2633986Y3932119D01*
G01X2618934Y3945981D01*
G01X2601612Y3956873D01*
G01X2582597Y3964433D01*
G01X2562524Y3968407D01*
G01X2542063Y3968664D01*
G01X2521897Y3965194D01*
G01X2502698Y3958114D01*
G01X2485108Y3947659D01*
G01X2469714Y3934179D01*
G01X2457028Y3918123D01*
G01X2447475Y3900027D01*
G01X2441373Y3880496D01*
G01X2438926Y3860180D01*
G01X2440216Y3839758D01*
G01X2445199Y3819912D01*
G01X1171900Y2546613D01*
G01X-145242Y2546613D01*
G01X-132187Y2563731D01*
G01X-122526Y2582969D01*
G01X-116592Y2603664D01*
G01X-114591Y2625099D01*
G01X-116592Y2646534D01*
G01X-122526Y2667228D01*
G01X-132187Y2686467D01*
G01X-145242Y2703585D01*
G01X587995Y2703585D01*
G01X600551Y2705238D01*
G01X612252Y2710084D01*
G01X622300Y2717794D01*
G01X1198608Y3294102D01*
G01X1218256Y3289150D01*
G01X1238475Y3287819D01*
G01X1258603Y3290152D01*
G01X1277981Y3296073D01*
G01X1295976Y3305388D01*
G01X1311998Y3317792D01*
G01X1325523Y3332880D01*
G01X1336109Y3350158D01*
G01X1343409Y3369060D01*
G01X1347184Y3388968D01*
G01X1347311Y3409230D01*
G01X1343786Y3429184D01*
G01X1336724Y3448176D01*
G01X1326356Y3465585D01*
G01X1355300Y3465585D01*
G01X1383999Y3436886D01*
G01X1379074Y3417411D01*
G01X1377707Y3397369D01*
G01X1379942Y3377406D01*
G01X1385707Y3358162D01*
G01X1394816Y3340258D01*
G01X1406976Y3324269D01*
G01X1421797Y3310709D01*
G01X1438802Y3300014D01*
G01X1457443Y3292528D01*
G01X1477121Y3288493D01*
G01X1497204Y3288037D01*
G01X1517046Y3291175D01*
G01X1536008Y3297807D01*
G01X1553480Y3307719D01*
G01X1568901Y3320593D01*
G01X1581774Y3336014D01*
G01X1591687Y3353486D01*
G01X1598319Y3372448D01*
G01X1601457Y3392289D01*
G01X1601287Y3399799D01*
G01X1631681Y3399799D01*
G01X1633588Y3379216D01*
G01X1639245Y3359335D01*
G01X1648459Y3340831D01*
G01X1660916Y3324335D01*
G01X1676191Y3310410D01*
G01X1693766Y3299528D01*
G01X1713041Y3292061D01*
G01X1733360Y3288263D01*
G01X1754030Y3288263D01*
G01X1774349Y3292061D01*
G01X1793624Y3299528D01*
G01X1811199Y3310410D01*
G01X1826474Y3324335D01*
G01X1838931Y3340831D01*
G01X1848145Y3359335D01*
G01X1853802Y3379216D01*
G01X1855709Y3399799D01*
G01X1855709Y3399799D01*
G01X1853802Y3420381D01*
G01X1848145Y3440263D01*
G01X1838931Y3458766D01*
G01X1826474Y3475262D01*
G01X1811199Y3489188D01*
G01X1793624Y3500070D01*
G01X1774349Y3507537D01*
G01X1754030Y3511335D01*
G01X1733360Y3511335D01*
G01X1713041Y3507537D01*
G01X1693766Y3500070D01*
G01X1676191Y3489188D01*
G01X1660916Y3475262D01*
G01X1648459Y3458766D01*
G01X1639245Y3440263D01*
G01X1633588Y3420381D01*
G01X1631681Y3399799D01*
G01X1601287Y3399799D01*
G01X1601001Y3412372D01*
G01X1596965Y3432051D01*
G01X1589480Y3450692D01*
G01X1578785Y3467697D01*
G01X1565225Y3482517D01*
G01X1549236Y3494678D01*
G01X1531331Y3503787D01*
G01X1512088Y3509552D01*
G01X1492125Y3511786D01*
G01X1472083Y3510419D01*
G01X1452608Y3505495D01*
G01X1409700Y3548403D01*
G01X1399652Y3556113D01*
G01X1387951Y3560960D01*
G01X1375395Y3562613D01*
G01X1191995Y3562613D01*
G01X1179438Y3560960D01*
G01X1167738Y3556113D01*
G01X1157690Y3548403D01*
G01X1081490Y3472203D01*
G01X1074231Y3462920D01*
G01X1061145Y3478760D01*
G01X1045385Y3491944D01*
G01X1027483Y3502027D01*
G01X1008040Y3508671D01*
G01X987711Y3511651D01*
G01X967179Y3510868D01*
G01X947135Y3506348D01*
G01X928255Y3498243D01*
G01X911172Y3486826D01*
G01X896463Y3472480D01*
G01X884621Y3455689D01*
G01X876045Y3437018D01*
G01X871024Y3417094D01*
G01X869727Y3396588D01*
G01X872197Y3376190D01*
G01X878351Y3356587D01*
G01X887983Y3338438D01*
G01X900767Y3322353D01*
G01X916275Y3308874D01*
G01X933984Y3298454D01*
G01X953298Y3291444D01*
G01X973567Y3288080D01*
G01X740100Y3054613D01*
G01X-114591Y3054613D01*
G01X-114591Y3213099D01*
G01X-116344Y3224166D01*
G01X-121431Y3234149D01*
G01X-129354Y3242073D01*
G01X-139338Y3247160D01*
G01X-150405Y3248913D01*
G01X-310405Y3248913D01*
G01X-321472Y3247160D01*
G01X-331456Y3242073D01*
G01X-339379Y3234149D01*
G01X-344466Y3224166D01*
G01X-346219Y3213099D01*
G01X-346219Y3054613D01*
G01X-931886Y3054613D01*
G01X-919056Y3070292D01*
G01X-909260Y3088026D01*
G01X-902818Y3107234D01*
G01X-899942Y3127289D01*
G01X-900725Y3147533D01*
G01X-905142Y3167306D01*
G01X-913048Y3185959D01*
G01X-924185Y3202883D01*
G01X-938189Y3217525D01*
G01X-954600Y3229404D01*
G01X-972883Y3238133D01*
G01X-992439Y3243426D01*
G01X-1012628Y3245110D01*
G01X-1032791Y3243129D01*
G01X-1032791Y3399799D01*
G01X361681Y3399799D01*
G01X363588Y3379216D01*
G01X369245Y3359335D01*
G01X378459Y3340831D01*
G01X390916Y3324335D01*
G01X406191Y3310410D01*
G01X423766Y3299528D01*
G01X443041Y3292061D01*
G01X463360Y3288263D01*
G01X484030Y3288263D01*
G01X504349Y3292061D01*
G01X523624Y3299528D01*
G01X541199Y3310410D01*
G01X556474Y3324335D01*
G01X568931Y3340831D01*
G01X578145Y3359335D01*
G01X583802Y3379216D01*
G01X585709Y3399799D01*
G01X585709Y3399799D01*
G01X615681Y3399799D01*
G01X617588Y3379216D01*
G01X623245Y3359335D01*
G01X632459Y3340831D01*
G01X644916Y3324335D01*
G01X660191Y3310410D01*
G01X677766Y3299528D01*
G01X697041Y3292061D01*
G01X717360Y3288263D01*
G01X738030Y3288263D01*
G01X758349Y3292061D01*
G01X777624Y3299528D01*
G01X795199Y3310410D01*
G01X810474Y3324335D01*
G01X822931Y3340831D01*
G01X832145Y3359335D01*
G01X837802Y3379216D01*
G01X839709Y3399799D01*
G01X839709Y3399799D01*
G01X837802Y3420381D01*
G01X832145Y3440263D01*
G01X822931Y3458766D01*
G01X810474Y3475262D01*
G01X795199Y3489188D01*
G01X777624Y3500070D01*
G01X758349Y3507537D01*
G01X738030Y3511335D01*
G01X717360Y3511335D01*
G01X697041Y3507537D01*
G01X677766Y3500070D01*
G01X660191Y3489188D01*
G01X644916Y3475262D01*
G01X632459Y3458766D01*
G01X623245Y3440263D01*
G01X617588Y3420381D01*
G01X615681Y3399799D01*
G01X585709Y3399799D01*
G01X583802Y3420381D01*
G01X578145Y3440263D01*
G01X568931Y3458766D01*
G01X556474Y3475262D01*
G01X541199Y3489188D01*
G01X523624Y3500070D01*
G01X504349Y3507537D01*
G01X484030Y3511335D01*
G01X463360Y3511335D01*
G01X443041Y3507537D01*
G01X423766Y3500070D01*
G01X406191Y3489188D01*
G01X390916Y3475262D01*
G01X378459Y3458766D01*
G01X369245Y3440263D01*
G01X363588Y3420381D01*
G01X361681Y3399799D01*
G01X-1032791Y3399799D01*
G01X-1032791Y3748289D01*
G01X-1024166Y3759844D01*
G01X-1018242Y3772990D01*
G01X-1015300Y3787106D01*
G01X-1015478Y3801524D01*
G01X-1018769Y3815562D01*
G01X-1025017Y3828558D01*
G01X-1033925Y3839896D01*
G01X-1045074Y3849040D01*
G01X-1031028Y3856399D01*
G01X-1019131Y3866882D01*
G01X-1010062Y3879889D01*
G01X-1004341Y3894678D01*
G01X-1002294Y3910402D01*
G01X-1004039Y3926163D01*
G01X-1009475Y3941058D01*
G01X-1018292Y3954238D01*
G01X-1029986Y3964947D01*
G01X-1043888Y3972574D01*
G01X-1059203Y3976683D01*
G01X-1075056Y3977039D01*
G01X-1090539Y3973620D01*
G01X-1104769Y3966624D01*
G01X-1116931Y3956450D01*
G01X-1126330Y3943679D01*
G01X-1132429Y3929042D01*
G01X-1134878Y3913375D01*
G01X-1204510Y3843744D01*
G01X-1212220Y3833696D01*
G01X-1217066Y3821995D01*
G01X-1218719Y3809439D01*
G01X-1218719Y3629497D01*
G01X-1233207Y3631211D01*
G01X-1247719Y3629715D01*
G01X-1261552Y3625083D01*
G01X-1274038Y3617537D01*
G01X-1284572Y3607444D01*
G01X-1292644Y3595292D01*
G01X-1297864Y3581670D01*
G01X-1299978Y3567235D01*
G01X-1987397Y2879816D01*
G01X-1995107Y2869769D01*
G01X-1999953Y2858068D01*
G01X-2001606Y2845512D01*
G01X-2001606Y2205881D01*
G01X-2016520Y2208654D01*
G01X-2031674Y2207965D01*
G01X-2046274Y2203851D01*
G01X-2059558Y2196526D01*
G01X-2070830Y2186374D01*
G01X-2079499Y2173926D01*
G01X-2085113Y2159834D01*
G01X-2087378Y2144835D01*
G01X-2320600Y1911613D01*
G01X-2440842Y1911613D01*
G01X-2451631Y1929550D01*
G01X-2465569Y1945167D01*
G01X-2482169Y1957918D01*
G01X-2500852Y1967358D01*
G01X-2520965Y1973157D01*
G01X-2541805Y1975113D01*
G01X-2562646Y1973157D01*
G01X-2582758Y1967358D01*
G01X-2601441Y1957918D01*
G01X-2618041Y1945167D01*
G01X-2631979Y1929550D01*
G01X-2642768Y1911613D01*
G01X-3211342Y1911613D01*
G01X-3221768Y1929715D01*
G01X-3235277Y1945650D01*
G01X-3251428Y1958900D01*
G01X-3269697Y1969032D01*
G01X-3289489Y1975717D01*
G01X-3310159Y1978739D01*
G01X-3331036Y1977997D01*
G01X-3351441Y1973518D01*
G01X-3370709Y1965445D01*
G01X-3388213Y1954043D01*
G01X-3403384Y1939682D01*
G01X-3415728Y1922829D01*
G01X-3424844Y1904032D01*
G01X-3430435Y1883904D01*
G01X-3432319Y1863099D01*
G01X-3430435Y1842293D01*
G01X-3424844Y1822165D01*
G01X-3415728Y1803369D01*
G01X-3403384Y1786516D01*
G01X-3388213Y1772154D01*
G01X-3370709Y1760752D01*
G01X-3351441Y1752680D01*
G01X-3331036Y1748200D01*
G01X-3310159Y1747459D01*
G01X-3289489Y1750480D01*
G01X-3269697Y1757166D01*
G01X-3251428Y1767298D01*
G01X-3235277Y1780547D01*
G01X-3221768Y1796482D01*
G01X-3211342Y1814585D01*
G01X-2642768Y1814585D01*
G01X-2631979Y1796647D01*
G01X-2618041Y1781030D01*
G01X-2601441Y1768279D01*
G01X-2582758Y1758840D01*
G01X-2562646Y1753040D01*
G01X-2541805Y1751085D01*
G01X-2520965Y1753040D01*
G01X-2500852Y1758840D01*
G01X-2482169Y1768279D01*
G01X-2465569Y1781030D01*
G01X-2451631Y1796647D01*
G01X-2440842Y1814585D01*
G01X-2300505Y1814585D01*
G01X-2287949Y1816238D01*
G01X-2276248Y1821084D01*
G01X-2266201Y1828794D01*
G01X-2018769Y2076226D01*
G01X-2010092Y2077105D01*
G01X-2001606Y2079116D01*
G01X-2001606Y1595607D01*
G01X-2404441Y1192772D01*
G01X-2418146Y1190843D01*
G01X-2431152Y1186113D01*
G01X-2442892Y1178786D01*
G01X-2452857Y1169182D01*
G01X-2466596Y1184109D01*
G01X-2482803Y1196314D01*
G01X-2500945Y1205394D01*
G01X-2520428Y1211054D01*
G01X-2540612Y1213106D01*
G01X-2560835Y1211484D01*
G01X-2580434Y1206241D01*
G01X-2598766Y1197549D01*
G01X-2615229Y1185693D01*
G01X-2629283Y1171061D01*
G01X-2640468Y1154135D01*
G01X-2648416Y1135468D01*
G01X-2652867Y1115675D01*
G01X-2653674Y1095403D01*
G01X-2650812Y1075317D01*
G01X-2644374Y1056078D01*
G01X-2634571Y1038316D01*
G01X-2621724Y1022613D01*
G01X-3231342Y1022613D01*
G01X-3218875Y1038799D01*
G01X-3209447Y1056924D01*
G01X-3203350Y1076425D01*
G01X-3200775Y1096692D01*
G01X-3201802Y1117098D01*
G01X-3206398Y1137005D01*
G01X-3214421Y1155794D01*
G01X-3225621Y1172882D01*
G01X-3239649Y1187736D01*
G01X-3256069Y1199893D01*
G01X-3274370Y1208976D01*
G01X-3293982Y1214701D01*
G01X-3314295Y1216891D01*
G01X-3334677Y1215478D01*
G01X-3354493Y1210505D01*
G01X-3373128Y1202127D01*
G01X-3390000Y1190605D01*
G01X-3404584Y1176298D01*
G01X-3416428Y1159650D01*
G01X-3425162Y1141180D01*
G01X-3430515Y1121463D01*
G01X-3432319Y1101112D01*
G01X-3430519Y1080760D01*
G01X-3425171Y1061042D01*
G01X-3447596Y1038617D01*
G01X-3447596Y1365785D01*
G01X-3431825Y1365785D01*
G01X-3431825Y1344413D01*
G01X-3427898Y1323405D01*
G01X-3420177Y1303476D01*
G01X-3408927Y1285305D01*
G01X-3394528Y1269511D01*
G01X-3377473Y1256632D01*
G01X-3358342Y1247105D01*
G01X-3337786Y1241257D01*
G01X-3316505Y1239285D01*
G01X-3295224Y1241257D01*
G01X-3274668Y1247105D01*
G01X-3255537Y1256632D01*
G01X-3238482Y1269511D01*
G01X-3224084Y1285305D01*
G01X-3212833Y1303476D01*
G01X-3205112Y1323405D01*
G01X-3201185Y1344413D01*
G01X-3201185Y1365434D01*
G01X-2653341Y1365434D01*
G01X-2653341Y1344763D01*
G01X-2649543Y1324445D01*
G01X-2642076Y1305170D01*
G01X-2631194Y1287595D01*
G01X-2617269Y1272319D01*
G01X-2600773Y1259862D01*
G01X-2582269Y1250649D01*
G01X-2562388Y1244992D01*
G01X-2541805Y1243085D01*
G01X-2521223Y1244992D01*
G01X-2501341Y1250649D01*
G01X-2482837Y1259862D01*
G01X-2466342Y1272319D01*
G01X-2452416Y1287595D01*
G01X-2441534Y1305170D01*
G01X-2434067Y1324445D01*
G01X-2430269Y1344763D01*
G01X-2430269Y1365434D01*
G01X-2434067Y1385753D01*
G01X-2441534Y1405028D01*
G01X-2452416Y1422602D01*
G01X-2466342Y1437878D01*
G01X-2482837Y1450335D01*
G01X-2501341Y1459549D01*
G01X-2521223Y1465205D01*
G01X-2541805Y1467113D01*
G01X-2541805Y1467113D01*
G01X-2562388Y1465205D01*
G01X-2582269Y1459549D01*
G01X-2600773Y1450335D01*
G01X-2617269Y1437878D01*
G01X-2631194Y1422602D01*
G01X-2642076Y1405028D01*
G01X-2649543Y1385753D01*
G01X-2653341Y1365434D01*
G01X-3201185Y1365434D01*
G01X-3201185Y1365785D01*
G01X-3205112Y1386793D01*
G01X-3212833Y1406721D01*
G01X-3224084Y1424892D01*
G01X-3238482Y1440686D01*
G01X-3255537Y1453566D01*
G01X-3274668Y1463092D01*
G01X-3295224Y1468941D01*
G01X-3316505Y1470913D01*
G01X-3316505Y1470913D01*
G01X-3337786Y1468941D01*
G01X-3358342Y1463092D01*
G01X-3377473Y1453566D01*
G01X-3394528Y1440686D01*
G01X-3408927Y1424892D01*
G01X-3420177Y1406721D01*
G01X-3427898Y1386793D01*
G01X-3431825Y1365785D01*
G01X-3447596Y1365785D01*
G01X-3447596Y1409398D01*
G01X-3356562Y1500433D01*
G01X-3336389Y1495005D01*
G01X-3315569Y1493289D01*
G01X-3294780Y1495341D01*
G01X-3274698Y1501094D01*
G01X-3255975Y1510362D01*
G01X-3239223Y1522842D01*
G01X-3224984Y1538128D01*
G01X-3213724Y1555724D01*
G01X-3205808Y1575056D01*
G01X-3201493Y1595496D01*
G01X-3200920Y1616379D01*
G01X-3201392Y1619434D01*
G01X-2653341Y1619434D01*
G01X-2653341Y1598763D01*
G01X-2649543Y1578445D01*
G01X-2642076Y1559170D01*
G01X-2631194Y1541595D01*
G01X-2617269Y1526319D01*
G01X-2600773Y1513862D01*
G01X-2582269Y1504649D01*
G01X-2562388Y1498992D01*
G01X-2541805Y1497085D01*
G01X-2521223Y1498992D01*
G01X-2501341Y1504649D01*
G01X-2482837Y1513862D01*
G01X-2466342Y1526319D01*
G01X-2452416Y1541595D01*
G01X-2441534Y1559170D01*
G01X-2434067Y1578445D01*
G01X-2430269Y1598763D01*
G01X-2430269Y1619434D01*
G01X-2434067Y1639753D01*
G01X-2441534Y1659028D01*
G01X-2452416Y1676602D01*
G01X-2466342Y1691878D01*
G01X-2482837Y1704335D01*
G01X-2501341Y1713549D01*
G01X-2521223Y1719205D01*
G01X-2541805Y1721113D01*
G01X-2541805Y1721113D01*
G01X-2562388Y1719205D01*
G01X-2582269Y1713549D01*
G01X-2600773Y1704335D01*
G01X-2617269Y1691878D01*
G01X-2631194Y1676602D01*
G01X-2642076Y1659028D01*
G01X-2649543Y1639753D01*
G01X-2653341Y1619434D01*
G01X-3201392Y1619434D01*
G01X-3204109Y1637024D01*
G01X-3210954Y1656761D01*
G01X-3221233Y1674948D01*
G01X-3234612Y1690991D01*
G01X-3250656Y1704371D01*
G01X-3268842Y1714650D01*
G01X-3288579Y1721495D01*
G01X-3309225Y1724683D01*
G01X-3330108Y1724111D01*
G01X-3350548Y1719796D01*
G01X-3369880Y1711880D01*
G01X-3387476Y1700619D01*
G01X-3402762Y1686381D01*
G01X-3415242Y1669628D01*
G01X-3424510Y1650906D01*
G01X-3430263Y1630824D01*
G01X-3432315Y1610034D01*
G01X-3430599Y1589215D01*
G01X-3425171Y1569042D01*
G01X-3530415Y1463798D01*
G01X-3538125Y1453751D01*
G01X-3542971Y1442050D01*
G01X-3544624Y1429494D01*
G01X-3544624Y887979D01*
G01X-3551608Y896811D01*
G01X-3580432Y925635D01*
G01X-3583008Y941743D01*
G01X-3589437Y956735D01*
G01X-3599332Y969703D01*
G01X-3612094Y979864D01*
G01X-3626950Y986602D01*
G01X-3643001Y989509D01*
G01X-3659277Y988410D01*
G01X-3674791Y983371D01*
G01X-3674791Y2104596D01*
G01X-3651603Y2127785D01*
G01X-3431825Y2127785D01*
G01X-3431825Y2106413D01*
G01X-3427898Y2085405D01*
G01X-3420177Y2065476D01*
G01X-3408927Y2047305D01*
G01X-3394528Y2031511D01*
G01X-3377473Y2018632D01*
G01X-3358342Y2009105D01*
G01X-3337786Y2003257D01*
G01X-3316505Y2001285D01*
G01X-3295224Y2003257D01*
G01X-3274668Y2009105D01*
G01X-3255537Y2018632D01*
G01X-3238482Y2031511D01*
G01X-3224084Y2047305D01*
G01X-3212833Y2065476D01*
G01X-3205112Y2085405D01*
G01X-3201185Y2106413D01*
G01X-3201185Y2127434D01*
G01X-2653341Y2127434D01*
G01X-2653341Y2106763D01*
G01X-2649543Y2086445D01*
G01X-2642076Y2067170D01*
G01X-2631194Y2049595D01*
G01X-2617269Y2034319D01*
G01X-2600773Y2021862D01*
G01X-2582269Y2012649D01*
G01X-2562388Y2006992D01*
G01X-2541805Y2005085D01*
G01X-2521223Y2006992D01*
G01X-2501341Y2012649D01*
G01X-2482837Y2021862D01*
G01X-2466342Y2034319D01*
G01X-2452416Y2049595D01*
G01X-2441534Y2067170D01*
G01X-2434067Y2086445D01*
G01X-2430269Y2106763D01*
G01X-2430269Y2127434D01*
G01X-2434067Y2147753D01*
G01X-2441534Y2167028D01*
G01X-2452416Y2184602D01*
G01X-2466342Y2199878D01*
G01X-2482837Y2212335D01*
G01X-2501341Y2221549D01*
G01X-2521223Y2227205D01*
G01X-2541805Y2229113D01*
G01X-2541805Y2229113D01*
G01X-2562388Y2227205D01*
G01X-2582269Y2221549D01*
G01X-2600773Y2212335D01*
G01X-2617269Y2199878D01*
G01X-2631194Y2184602D01*
G01X-2642076Y2167028D01*
G01X-2649543Y2147753D01*
G01X-2653341Y2127434D01*
G01X-3201185Y2127434D01*
G01X-3201185Y2127785D01*
G01X-3205112Y2148793D01*
G01X-3212833Y2168721D01*
G01X-3224084Y2186892D01*
G01X-3238482Y2202686D01*
G01X-3255537Y2215566D01*
G01X-3274668Y2225092D01*
G01X-3295224Y2230941D01*
G01X-3316505Y2232913D01*
G01X-3316505Y2232913D01*
G01X-3337786Y2230941D01*
G01X-3358342Y2225092D01*
G01X-3377473Y2215566D01*
G01X-3394528Y2202686D01*
G01X-3408927Y2186892D01*
G01X-3420177Y2168721D01*
G01X-3427898Y2148793D01*
G01X-3431825Y2127785D01*
G01X-3651603Y2127785D01*
G01X-3430223Y2349164D01*
G01X-3424282Y2328708D01*
G01X-3414695Y2309686D01*
G01X-3401787Y2292741D01*
G01X-3385994Y2278448D01*
G01X-3367849Y2267288D01*
G01X-3347968Y2259641D01*
G01X-3327023Y2255763D01*
G01X-3305721Y2255788D01*
G01X-3284785Y2259713D01*
G01X-3264922Y2267407D01*
G01X-3246803Y2278608D01*
G01X-3231043Y2292939D01*
G01X-3218173Y2309913D01*
G01X-3208631Y2328957D01*
G01X-3202737Y2349427D01*
G01X-3200692Y2370630D01*
G01X-3201646Y2381434D01*
G01X-2653341Y2381434D01*
G01X-2653341Y2360763D01*
G01X-2649543Y2340445D01*
G01X-2642076Y2321170D01*
G01X-2631194Y2303595D01*
G01X-2617269Y2288319D01*
G01X-2600773Y2275862D01*
G01X-2582269Y2266649D01*
G01X-2562388Y2260992D01*
G01X-2541805Y2259085D01*
G01X-2521223Y2260992D01*
G01X-2501341Y2266649D01*
G01X-2482837Y2275862D01*
G01X-2466342Y2288319D01*
G01X-2452416Y2303595D01*
G01X-2441534Y2321170D01*
G01X-2434067Y2340445D01*
G01X-2430269Y2360763D01*
G01X-2430269Y2381434D01*
G01X-2434067Y2401753D01*
G01X-2441534Y2421028D01*
G01X-2452416Y2438602D01*
G01X-2466342Y2453878D01*
G01X-2482837Y2466335D01*
G01X-2501341Y2475549D01*
G01X-2521223Y2481205D01*
G01X-2541805Y2483113D01*
G01X-2541805Y2483113D01*
G01X-2562388Y2481205D01*
G01X-2582269Y2475549D01*
G01X-2600773Y2466335D01*
G01X-2617269Y2453878D01*
G01X-2631194Y2438602D01*
G01X-2642076Y2421028D01*
G01X-2649543Y2401753D01*
G01X-2653341Y2381434D01*
G01X-3201646Y2381434D01*
G01X-3202565Y2391849D01*
G01X-3208293Y2412365D01*
G01X-3217681Y2431486D01*
G01X-3230413Y2448564D01*
G01X-3222691Y2455097D01*
G01X-3108403Y2569384D01*
G01X-3100840Y2578600D01*
G01X-3095220Y2589113D01*
G01X-3091760Y2600522D01*
G01X-3090591Y2612386D01*
G01X-3090591Y2635434D01*
G01X-2653341Y2635434D01*
G01X-2653341Y2614763D01*
G01X-2649543Y2594445D01*
G01X-2642076Y2575170D01*
G01X-2631194Y2557595D01*
G01X-2617269Y2542319D01*
G01X-2600773Y2529862D01*
G01X-2582269Y2520649D01*
G01X-2562388Y2514992D01*
G01X-2541805Y2513085D01*
G01X-2521223Y2514992D01*
G01X-2501341Y2520649D01*
G01X-2482837Y2529862D01*
G01X-2466342Y2542319D01*
G01X-2452416Y2557595D01*
G01X-2441534Y2575170D01*
G01X-2434067Y2594445D01*
G01X-2430269Y2614763D01*
G01X-2430269Y2635434D01*
G01X-2434067Y2655753D01*
G01X-2441534Y2675028D01*
G01X-2452416Y2692602D01*
G01X-2466342Y2707878D01*
G01X-2482837Y2720335D01*
G01X-2501341Y2729549D01*
G01X-2521223Y2735205D01*
G01X-2541805Y2737113D01*
G01X-2541805Y2737113D01*
G01X-2562388Y2735205D01*
G01X-2582269Y2729549D01*
G01X-2600773Y2720335D01*
G01X-2617269Y2707878D01*
G01X-2631194Y2692602D01*
G01X-2642076Y2675028D01*
G01X-2649543Y2655753D01*
G01X-2653341Y2635434D01*
G01X-3090591Y2635434D01*
G01X-3090591Y2889434D01*
G01X-2653341Y2889434D01*
G01X-2653341Y2868763D01*
G01X-2649543Y2848445D01*
G01X-2642076Y2829170D01*
G01X-2631194Y2811595D01*
G01X-2617269Y2796319D01*
G01X-2600773Y2783862D01*
G01X-2582269Y2774649D01*
G01X-2562388Y2768992D01*
G01X-2541805Y2767085D01*
G01X-2521223Y2768992D01*
G01X-2501341Y2774649D01*
G01X-2482837Y2783862D01*
G01X-2466342Y2796319D01*
G01X-2452416Y2811595D01*
G01X-2441534Y2829170D01*
G01X-2434067Y2848445D01*
G01X-2430269Y2868763D01*
G01X-2430269Y2889434D01*
G01X-2434067Y2909753D01*
G01X-2441534Y2929028D01*
G01X-2452416Y2946602D01*
G01X-2466342Y2961878D01*
G01X-2482837Y2974335D01*
G01X-2501341Y2983549D01*
G01X-2521223Y2989205D01*
G01X-2541805Y2991113D01*
G01X-2541805Y2991113D01*
G01X-2562388Y2989205D01*
G01X-2582269Y2983549D01*
G01X-2600773Y2974335D01*
G01X-2617269Y2961878D01*
G01X-2631194Y2946602D01*
G01X-2642076Y2929028D01*
G01X-2649543Y2909753D01*
G01X-2653341Y2889434D01*
G01X-3090591Y2889434D01*
G01X-3090591Y3143434D01*
G01X-2653341Y3143434D01*
G01X-2653341Y3122763D01*
G01X-2649543Y3102445D01*
G01X-2642076Y3083170D01*
G01X-2631194Y3065595D01*
G01X-2617269Y3050319D01*
G01X-2600773Y3037862D01*
G01X-2582269Y3028649D01*
G01X-2562388Y3022992D01*
G01X-2541805Y3021085D01*
G01X-2521223Y3022992D01*
G01X-2501341Y3028649D01*
G01X-2482837Y3037862D01*
G01X-2466342Y3050319D01*
G01X-2452416Y3065595D01*
G01X-2441534Y3083170D01*
G01X-2434067Y3102445D01*
G01X-2430269Y3122763D01*
G01X-2430269Y3143434D01*
G01X-2434067Y3163753D01*
G01X-2441534Y3183028D01*
G01X-2452416Y3200602D01*
G01X-2466342Y3215878D01*
G01X-2482837Y3228335D01*
G01X-2501341Y3237549D01*
G01X-2521223Y3243205D01*
G01X-2541805Y3245113D01*
G01X-2541805Y3245113D01*
G01X-2562388Y3243205D01*
G01X-2582269Y3237549D01*
G01X-2600773Y3228335D01*
G01X-2617269Y3215878D01*
G01X-2631194Y3200602D01*
G01X-2642076Y3183028D01*
G01X-2649543Y3163753D01*
G01X-2653341Y3143434D01*
G01X-3090591Y3143434D01*
G01X-3090591Y3831586D01*
G01X-3091760Y3843450D01*
G01X-3095220Y3854858D01*
G01X-3100840Y3865372D01*
G01X-3108403Y3874588D01*
G01X-3572109Y4338294D01*
G01X-3569123Y4359469D01*
G01X-3569370Y4364986D01*
G01X-3546619Y4364986D01*
G01X-3544647Y4343705D01*
G01X-3538798Y4323149D01*
G01X-3529272Y4304018D01*
G01X-3516393Y4286963D01*
G01X-3500599Y4272565D01*
G01X-3482428Y4261314D01*
G01X-3462499Y4253593D01*
G01X-3441491Y4249666D01*
G01X-3420119Y4249666D01*
G01X-3399111Y4253593D01*
G01X-3379183Y4261314D01*
G01X-3361012Y4272565D01*
G01X-3345218Y4286963D01*
G01X-3332338Y4304018D01*
G01X-3322812Y4323149D01*
G01X-3316963Y4343705D01*
G01X-3314991Y4364986D01*
G01X-3316963Y4386267D01*
G01X-3322812Y4406823D01*
G01X-3332338Y4425954D01*
G01X-3345218Y4443009D01*
G01X-3347414Y4445011D01*
G01X-2779489Y4445011D01*
G01X-2779489Y4285012D01*
G01X-2777736Y4273944D01*
G01X-2772649Y4263961D01*
G01X-2764726Y4256037D01*
G01X-2754742Y4250950D01*
G01X-2743675Y4249198D01*
G01X-2616470Y4249198D01*
G01X-2381119Y4013846D01*
G01X-2381119Y4013846D01*
G01X-2381119Y2517909D01*
G01X-2390217Y2505537D01*
G01X-2396226Y2491405D01*
G01X-2398823Y2476270D01*
G01X-2397869Y2460943D01*
G01X-2393415Y2446246D01*
G01X-2385700Y2432968D01*
G01X-2375137Y2421821D01*
G01X-2362294Y2413402D01*
G01X-2347859Y2408163D01*
G01X-2332605Y2406385D01*
G01X-2317352Y2408163D01*
G01X-2302916Y2413402D01*
G01X-2290073Y2421821D01*
G01X-2279511Y2432968D01*
G01X-2271796Y2446246D01*
G01X-2267342Y2460943D01*
G01X-2266387Y2476270D01*
G01X-2268984Y2491405D01*
G01X-2274993Y2505537D01*
G01X-2284091Y2517909D01*
G01X-2284091Y4033941D01*
G01X-2285744Y4046498D01*
G01X-2290591Y4058198D01*
G01X-2298301Y4068246D01*
G01X-2547861Y4317807D01*
G01X-2547861Y4364986D01*
G01X-2525489Y4364986D01*
G01X-2523517Y4343705D01*
G01X-2517668Y4323149D01*
G01X-2508142Y4304018D01*
G01X-2495263Y4286963D01*
G01X-2479469Y4272565D01*
G01X-2461298Y4261314D01*
G01X-2441369Y4253593D01*
G01X-2420361Y4249666D01*
G01X-2398989Y4249666D01*
G01X-2377981Y4253593D01*
G01X-2358052Y4261314D01*
G01X-2339882Y4272565D01*
G01X-2324088Y4286963D01*
G01X-2311208Y4304018D01*
G01X-2301682Y4323149D01*
G01X-2295833Y4343705D01*
G01X-2293861Y4364986D01*
G01X-2271489Y4364986D01*
G01X-2269517Y4343705D01*
G01X-2263668Y4323149D01*
G01X-2254142Y4304018D01*
G01X-2241263Y4286963D01*
G01X-2225469Y4272565D01*
G01X-2207298Y4261314D01*
G01X-2187369Y4253593D01*
G01X-2166361Y4249666D01*
G01X-2144989Y4249666D01*
G01X-2123981Y4253593D01*
G01X-2104052Y4261314D01*
G01X-2085882Y4272565D01*
G01X-2070088Y4286963D01*
G01X-2057208Y4304018D01*
G01X-2047682Y4323149D01*
G01X-2041833Y4343705D01*
G01X-2039861Y4364986D01*
G01X-2041833Y4386267D01*
G01X-2047682Y4406823D01*
G01X-2056440Y4424412D01*
G01X-1497257Y4424412D01*
G01X-1497257Y4264412D01*
G01X-1495504Y4253345D01*
G01X-1490417Y4243361D01*
G01X-1482494Y4235438D01*
G01X-1472510Y4230351D01*
G01X-1461443Y4228598D01*
G01X-1309043Y4228598D01*
G01X-1297976Y4230351D01*
G01X-1287992Y4235438D01*
G01X-1280069Y4243361D01*
G01X-1274982Y4253345D01*
G01X-1273229Y4264412D01*
G01X-1273229Y4344412D01*
G01X-1251045Y4344412D01*
G01X-1249073Y4323131D01*
G01X-1243224Y4302575D01*
G01X-1233698Y4283444D01*
G01X-1220819Y4266389D01*
G01X-1205025Y4251991D01*
G01X-1186854Y4240740D01*
G01X-1166925Y4233019D01*
G01X-1145917Y4229092D01*
G01X-1124545Y4229092D01*
G01X-1103537Y4233019D01*
G01X-1083608Y4240740D01*
G01X-1065438Y4251991D01*
G01X-1049644Y4266389D01*
G01X-1036764Y4283444D01*
G01X-1027238Y4302575D01*
G01X-1021389Y4323131D01*
G01X-1019417Y4344412D01*
G01X-1001058Y4344412D01*
G01X-999086Y4323131D01*
G01X-993238Y4302575D01*
G01X-983711Y4283444D01*
G01X-970832Y4266389D01*
G01X-955038Y4251991D01*
G01X-936867Y4240740D01*
G01X-916938Y4233019D01*
G01X-895930Y4229092D01*
G01X-874558Y4229092D01*
G01X-853550Y4233019D01*
G01X-833622Y4240740D01*
G01X-815451Y4251991D01*
G01X-799657Y4266389D01*
G01X-786777Y4283444D01*
G01X-777251Y4302575D01*
G01X-771402Y4323131D01*
G01X-769431Y4344412D01*
G01X-751046Y4344412D01*
G01X-749074Y4323131D01*
G01X-743225Y4302575D01*
G01X-733699Y4283444D01*
G01X-720820Y4266389D01*
G01X-705026Y4251991D01*
G01X-686855Y4240740D01*
G01X-666926Y4233019D01*
G01X-645918Y4229092D01*
G01X-624546Y4229092D01*
G01X-603538Y4233019D01*
G01X-583609Y4240740D01*
G01X-565439Y4251991D01*
G01X-549645Y4266389D01*
G01X-536765Y4283444D01*
G01X-527239Y4302575D01*
G01X-521390Y4323131D01*
G01X-519418Y4344412D01*
G01X-521390Y4365693D01*
G01X-527239Y4386249D01*
G01X-536765Y4405380D01*
G01X-549645Y4422435D01*
G01X-565439Y4436833D01*
G01X-583609Y4448084D01*
G01X-603538Y4455805D01*
G01X-624546Y4459732D01*
G01X-645918Y4459732D01*
G01X-666926Y4455805D01*
G01X-686855Y4448084D01*
G01X-705026Y4436833D01*
G01X-720820Y4422435D01*
G01X-733699Y4405380D01*
G01X-743225Y4386249D01*
G01X-749074Y4365693D01*
G01X-751046Y4344412D01*
G01X-751046Y4344412D01*
G01X-769431Y4344412D01*
G01X-771402Y4365693D01*
G01X-777251Y4386249D01*
G01X-786777Y4405380D01*
G01X-799657Y4422435D01*
G01X-815451Y4436833D01*
G01X-833622Y4448084D01*
G01X-853550Y4455805D01*
G01X-874558Y4459732D01*
G01X-895930Y4459732D01*
G01X-916938Y4455805D01*
G01X-936867Y4448084D01*
G01X-955038Y4436833D01*
G01X-970832Y4422435D01*
G01X-983711Y4405380D01*
G01X-993238Y4386249D01*
G01X-999086Y4365693D01*
G01X-1001058Y4344412D01*
G01X-1001058Y4344412D01*
G01X-1019417Y4344412D01*
G01X-1021389Y4365693D01*
G01X-1027238Y4386249D01*
G01X-1036764Y4405380D01*
G01X-1049644Y4422435D01*
G01X-1065438Y4436833D01*
G01X-1083608Y4448084D01*
G01X-1103537Y4455805D01*
G01X-1124545Y4459732D01*
G01X-1145917Y4459732D01*
G01X-1166925Y4455805D01*
G01X-1186854Y4448084D01*
G01X-1205025Y4436833D01*
G01X-1220819Y4422435D01*
G01X-1233698Y4405380D01*
G01X-1243224Y4386249D01*
G01X-1249073Y4365693D01*
G01X-1251045Y4344412D01*
G01X-1251045Y4344412D01*
G01X-1273229Y4344412D01*
G01X-1273229Y4370422D01*
G01X-1047367Y4596285D01*
G01X-496895Y4596285D01*
G01X-303919Y4403309D01*
G01X-303919Y3933199D01*
G01X-302394Y3919666D01*
G01X-297897Y3906812D01*
G01X-290651Y3895282D01*
G01X-281022Y3885652D01*
G01X-269491Y3878407D01*
G01X-256638Y3873909D01*
G01X-243105Y3872385D01*
G01X-97595Y3872385D01*
G01X-97595Y3872385D01*
G01X-57905Y3832695D01*
G01X-50066Y3818314D01*
G01X-38942Y3806292D01*
G01X-25210Y3797364D01*
G01X-9709Y3792074D01*
G01X6615Y3790745D01*
G01X22768Y3793457D01*
G01X37763Y3800045D01*
G01X50686Y3810108D01*
G01X60749Y3823031D01*
G01X67337Y3838026D01*
G01X70049Y3854178D01*
G01X69590Y3859819D01*
G01X153441Y3859819D01*
G01X154771Y3843494D01*
G01X160061Y3827993D01*
G01X168989Y3814262D01*
G01X181010Y3803138D01*
G01X195391Y3795299D01*
G01X351877Y3638813D01*
G01X284705Y3638813D01*
G01X272334Y3647911D01*
G01X258201Y3653920D01*
G01X243066Y3656517D01*
G01X227739Y3655562D01*
G01X213042Y3651108D01*
G01X199764Y3643393D01*
G01X188617Y3632831D01*
G01X180198Y3619987D01*
G01X174959Y3605552D01*
G01X173181Y3590299D01*
G01X174959Y3575045D01*
G01X180198Y3560610D01*
G01X188617Y3547767D01*
G01X199764Y3537204D01*
G01X213042Y3529489D01*
G01X227739Y3525035D01*
G01X243066Y3524081D01*
G01X258201Y3526678D01*
G01X272334Y3532686D01*
G01X284705Y3541785D01*
G01X1001495Y3541785D01*
G01X1014051Y3543438D01*
G01X1025752Y3548284D01*
G01X1035799Y3555994D01*
G01X1427990Y3948185D01*
G01X2226285Y3948185D01*
G01X2238966Y3938911D01*
G01X2253472Y3932881D01*
G01X2268990Y3930432D01*
G01X2284649Y3931702D01*
G01X2299569Y3936620D01*
G01X2312914Y3944910D01*
G01X2323934Y3956107D01*
G01X2332011Y3969581D01*
G01X2336511Y3983999D01*
G01X3712781Y3983999D01*
G01X3714616Y3963020D01*
G01X3720067Y3942678D01*
G01X3728967Y3923592D01*
G01X3741046Y3906341D01*
G01X3755937Y3891450D01*
G01X3773188Y3879371D01*
G01X3792274Y3870471D01*
G01X3812616Y3865020D01*
G01X3833595Y3863185D01*
G01X3833595Y3863185D01*
G01X3854574Y3865020D01*
G01X3874916Y3870471D01*
G01X3894002Y3879371D01*
G01X3911252Y3891450D01*
G01X3926144Y3906341D01*
G01X3938223Y3923592D01*
G01X3947123Y3942678D01*
G01X3952573Y3963020D01*
G01X3954409Y3983999D01*
G01X3966781Y3983999D01*
G01X3968616Y3963020D01*
G01X3974067Y3942678D01*
G01X3982967Y3923592D01*
G01X3995046Y3906341D01*
G01X4009937Y3891450D01*
G01X4027188Y3879371D01*
G01X4046274Y3870471D01*
G01X4066616Y3865020D01*
G01X4087595Y3863185D01*
G01X4087595Y3863185D01*
G01X4108574Y3865020D01*
G01X4128916Y3870471D01*
G01X4148002Y3879371D01*
G01X4165252Y3891450D01*
G01X4180144Y3906341D01*
G01X4192223Y3923592D01*
G01X4201123Y3942678D01*
G01X4206573Y3963020D01*
G01X4208409Y3983999D01*
G01X4206573Y4004978D01*
G01X4201123Y4025319D01*
G01X4192223Y4044406D01*
G01X4180144Y4061656D01*
G01X4165252Y4076547D01*
G01X4148002Y4088627D01*
G01X4128916Y4097527D01*
G01X4108574Y4102977D01*
G01X4087595Y4104813D01*
G01X4066616Y4102977D01*
G01X4046274Y4097527D01*
G01X4027188Y4088627D01*
G01X4009937Y4076547D01*
G01X3995046Y4061656D01*
G01X3982967Y4044406D01*
G01X3974067Y4025319D01*
G01X3968616Y4004978D01*
G01X3966781Y3983999D01*
G01X3954409Y3983999D01*
G01X3952573Y4004978D01*
G01X3947123Y4025319D01*
G01X3938223Y4044406D01*
G01X3926144Y4061656D01*
G01X3911252Y4076547D01*
G01X3894002Y4088627D01*
G01X3874916Y4097527D01*
G01X3854574Y4102977D01*
G01X3833595Y4104813D01*
G01X3812616Y4102977D01*
G01X3792274Y4097527D01*
G01X3773188Y4088627D01*
G01X3755937Y4076547D01*
G01X3741046Y4061656D01*
G01X3728967Y4044406D01*
G01X3720067Y4025319D01*
G01X3714616Y4004978D01*
G01X3712781Y3983999D01*
G01X2336511Y3983999D01*
G01X2336692Y3984578D01*
G01X2337713Y4000254D01*
G01X2335019Y4015731D01*
G01X2328759Y4030140D01*
G01X2319286Y4042673D01*
G01X2307130Y4052625D01*
G01X2375839Y4121334D01*
G01X2439359Y4121334D01*
G01X2439359Y4100663D01*
G01X2443157Y4080345D01*
G01X2450624Y4061070D01*
G01X2461506Y4043495D01*
G01X2475431Y4028219D01*
G01X2491927Y4015762D01*
G01X2510431Y4006549D01*
G01X2530312Y4000892D01*
G01X2550895Y3998985D01*
G01X2571477Y4000892D01*
G01X2591359Y4006549D01*
G01X2609863Y4015762D01*
G01X2626358Y4028219D01*
G01X2640284Y4043495D01*
G01X2651166Y4061070D01*
G01X2658633Y4080345D01*
G01X2662431Y4100663D01*
G01X2662431Y4121334D01*
G01X2658633Y4141653D01*
G01X2651166Y4160928D01*
G01X2640284Y4178502D01*
G01X2626358Y4193778D01*
G01X2609863Y4206235D01*
G01X2591359Y4215449D01*
G01X2571477Y4221105D01*
G01X2550895Y4223013D01*
G01X2550895Y4223013D01*
G01X2530312Y4221105D01*
G01X2510431Y4215449D01*
G01X2491927Y4206235D01*
G01X2475431Y4193778D01*
G01X2461506Y4178502D01*
G01X2450624Y4160928D01*
G01X2443157Y4141653D01*
G01X2439359Y4121334D01*
G01X2375839Y4121334D01*
G01X2492504Y4237999D01*
G01X3712781Y4237999D01*
G01X3714616Y4217020D01*
G01X3720067Y4196678D01*
G01X3728967Y4177592D01*
G01X3741046Y4160341D01*
G01X3755937Y4145450D01*
G01X3773188Y4133371D01*
G01X3792274Y4124471D01*
G01X3812616Y4119020D01*
G01X3833595Y4117185D01*
G01X3833595Y4117185D01*
G01X3854574Y4119020D01*
G01X3874916Y4124471D01*
G01X3894002Y4133371D01*
G01X3911252Y4145450D01*
G01X3926144Y4160341D01*
G01X3938223Y4177592D01*
G01X3947123Y4196678D01*
G01X3952573Y4217020D01*
G01X3954409Y4237999D01*
G01X3966781Y4237999D01*
G01X3968616Y4217020D01*
G01X3974067Y4196678D01*
G01X3982967Y4177592D01*
G01X3995046Y4160341D01*
G01X4009937Y4145450D01*
G01X4027188Y4133371D01*
G01X4046274Y4124471D01*
G01X4066616Y4119020D01*
G01X4087595Y4117185D01*
G01X4087595Y4117185D01*
G01X4108574Y4119020D01*
G01X4128916Y4124471D01*
G01X4148002Y4133371D01*
G01X4165252Y4145450D01*
G01X4180144Y4160341D01*
G01X4192223Y4177592D01*
G01X4201123Y4196678D01*
G01X4206573Y4217020D01*
G01X4208409Y4237999D01*
G01X4206573Y4258978D01*
G01X4201123Y4279319D01*
G01X4192223Y4298406D01*
G01X4180144Y4315656D01*
G01X4165252Y4330547D01*
G01X4148002Y4342627D01*
G01X4128916Y4351527D01*
G01X4108574Y4356977D01*
G01X4087595Y4358813D01*
G01X4066616Y4356977D01*
G01X4046274Y4351527D01*
G01X4027188Y4342627D01*
G01X4009937Y4330547D01*
G01X3995046Y4315656D01*
G01X3982967Y4298406D01*
G01X3974067Y4279319D01*
G01X3968616Y4258978D01*
G01X3966781Y4237999D01*
G01X3954409Y4237999D01*
G01X3952573Y4258978D01*
G01X3947123Y4279319D01*
G01X3938223Y4298406D01*
G01X3926144Y4315656D01*
G01X3911252Y4330547D01*
G01X3894002Y4342627D01*
G01X3874916Y4351527D01*
G01X3854574Y4356977D01*
G01X3833595Y4358813D01*
G01X3812616Y4356977D01*
G01X3792274Y4351527D01*
G01X3773188Y4342627D01*
G01X3755937Y4330547D01*
G01X3741046Y4315656D01*
G01X3728967Y4298406D01*
G01X3720067Y4279319D01*
G01X3714616Y4258978D01*
G01X3712781Y4237999D01*
G01X2492504Y4237999D01*
G01X2513808Y4259302D01*
G01X2533283Y4254378D01*
G01X2553324Y4253011D01*
G01X2573288Y4255246D01*
G01X2592531Y4261010D01*
G01X2610435Y4270119D01*
G01X2626425Y4282280D01*
G01X2639985Y4297101D01*
G01X2650680Y4314105D01*
G01X2658165Y4332747D01*
G01X2662201Y4352425D01*
G01X2662657Y4372508D01*
G01X2659518Y4392349D01*
G01X2652886Y4411311D01*
G01X2642974Y4428784D01*
G01X2630101Y4444205D01*
G01X2614680Y4457078D01*
G01X2597207Y4466990D01*
G01X2578246Y4473622D01*
G01X2558404Y4476761D01*
G01X2538321Y4476305D01*
G01X2518643Y4472269D01*
G01X2500001Y4464783D01*
G01X2482997Y4454089D01*
G01X2468176Y4440528D01*
G01X2456016Y4424539D01*
G01X2446907Y4406635D01*
G01X2441142Y4387392D01*
G01X2438907Y4367428D01*
G01X2440274Y4347387D01*
G01X2445199Y4327912D01*
G01X2204210Y4086923D01*
G01X1366305Y4086923D01*
G01X1366305Y4086923D01*
G01X1353749Y4085270D01*
G01X1342048Y4080423D01*
G01X1332001Y4072714D01*
G01X1004759Y3745472D01*
G01X992449Y3743875D01*
G01X980652Y3740013D01*
G01X422685Y3740013D01*
G01X281395Y3881303D01*
G01X273556Y3895684D01*
G01X262432Y3907705D01*
G01X248700Y3916633D01*
G01X233199Y3921923D01*
G01X216875Y3923253D01*
G01X200722Y3920541D01*
G01X185727Y3913952D01*
G01X172804Y3903890D01*
G01X162741Y3890967D01*
G01X156153Y3875972D01*
G01X153441Y3859819D01*
G01X69590Y3859819D01*
G01X68719Y3870503D01*
G01X63429Y3886004D01*
G01X54501Y3899735D01*
G01X42480Y3910860D01*
G01X28099Y3918698D01*
G01X-29403Y3976201D01*
G01X-38619Y3983764D01*
G01X-49132Y3989383D01*
G01X-60541Y3992844D01*
G01X-72405Y3994013D01*
G01X-182291Y3994013D01*
G01X-182291Y4428499D01*
G01X-183460Y4440363D01*
G01X-186387Y4450012D01*
G01X-619Y4450012D01*
G01X1292Y4428165D01*
G01X6969Y4406982D01*
G01X16237Y4387106D01*
G01X28816Y4369141D01*
G01X44323Y4353634D01*
G01X62288Y4341055D01*
G01X82164Y4331786D01*
G01X103347Y4326110D01*
G01X125195Y4324199D01*
G01X147042Y4326110D01*
G01X168226Y4331786D01*
G01X188102Y4341055D01*
G01X206066Y4353634D01*
G01X221574Y4369141D01*
G01X234153Y4387106D01*
G01X243421Y4406982D01*
G01X249097Y4428165D01*
G01X251009Y4450012D01*
G01X253381Y4450012D01*
G01X255292Y4428165D01*
G01X260969Y4406982D01*
G01X270237Y4387106D01*
G01X282816Y4369141D01*
G01X298323Y4353634D01*
G01X316288Y4341055D01*
G01X336164Y4331786D01*
G01X357347Y4326110D01*
G01X379195Y4324199D01*
G01X401042Y4326110D01*
G01X422226Y4331786D01*
G01X442102Y4341055D01*
G01X460066Y4353634D01*
G01X475574Y4369141D01*
G01X488153Y4387106D01*
G01X497421Y4406982D01*
G01X503097Y4428165D01*
G01X505009Y4450012D01*
G01X507381Y4450012D01*
G01X509292Y4428165D01*
G01X514969Y4406982D01*
G01X524237Y4387106D01*
G01X536816Y4369141D01*
G01X552323Y4353634D01*
G01X570288Y4341055D01*
G01X590164Y4331786D01*
G01X611347Y4326110D01*
G01X633195Y4324199D01*
G01X655042Y4326110D01*
G01X676226Y4331786D01*
G01X696102Y4341055D01*
G01X714066Y4353634D01*
G01X729574Y4369141D01*
G01X742153Y4387106D01*
G01X751421Y4406982D01*
G01X757097Y4428165D01*
G01X759009Y4450012D01*
G01X761381Y4450012D01*
G01X763292Y4428165D01*
G01X768969Y4406982D01*
G01X778237Y4387106D01*
G01X790816Y4369141D01*
G01X806323Y4353634D01*
G01X824288Y4341055D01*
G01X844164Y4331786D01*
G01X865347Y4326110D01*
G01X887195Y4324199D01*
G01X909042Y4326110D01*
G01X930226Y4331786D01*
G01X950102Y4341055D01*
G01X968066Y4353634D01*
G01X983574Y4369141D01*
G01X996153Y4387106D01*
G01X1005421Y4406982D01*
G01X1011097Y4428165D01*
G01X1013009Y4450012D01*
G01X1015381Y4450012D01*
G01X1017292Y4428165D01*
G01X1022969Y4406982D01*
G01X1032237Y4387106D01*
G01X1044816Y4369141D01*
G01X1060323Y4353634D01*
G01X1078288Y4341055D01*
G01X1098164Y4331786D01*
G01X1119347Y4326110D01*
G01X1141195Y4324199D01*
G01X1163042Y4326110D01*
G01X1184226Y4331786D01*
G01X1204102Y4341055D01*
G01X1222066Y4353634D01*
G01X1237574Y4369141D01*
G01X1250153Y4387106D01*
G01X1259421Y4406982D01*
G01X1265097Y4428165D01*
G01X1267009Y4450012D01*
G01X1269381Y4450012D01*
G01X1271292Y4428165D01*
G01X1276969Y4406982D01*
G01X1286237Y4387106D01*
G01X1298816Y4369141D01*
G01X1314323Y4353634D01*
G01X1332288Y4341055D01*
G01X1352164Y4331786D01*
G01X1373347Y4326110D01*
G01X1395195Y4324199D01*
G01X1417042Y4326110D01*
G01X1438226Y4331786D01*
G01X1458102Y4341055D01*
G01X1476066Y4353634D01*
G01X1491574Y4369141D01*
G01X1504153Y4387106D01*
G01X1513421Y4406982D01*
G01X1519097Y4428165D01*
G01X1521009Y4450012D01*
G01X1523381Y4450012D01*
G01X1525292Y4428165D01*
G01X1530969Y4406982D01*
G01X1540237Y4387106D01*
G01X1552816Y4369141D01*
G01X1568323Y4353634D01*
G01X1586288Y4341055D01*
G01X1606164Y4331786D01*
G01X1627347Y4326110D01*
G01X1649195Y4324199D01*
G01X1671042Y4326110D01*
G01X1692226Y4331786D01*
G01X1712102Y4341055D01*
G01X1730066Y4353634D01*
G01X1745574Y4369141D01*
G01X1758153Y4387106D01*
G01X1767421Y4406982D01*
G01X1773097Y4428165D01*
G01X1775009Y4450012D01*
G01X1773097Y4471860D01*
G01X1767421Y4493043D01*
G01X1758153Y4512919D01*
G01X1745574Y4530884D01*
G01X1730066Y4546391D01*
G01X1712102Y4558970D01*
G01X1692226Y4568239D01*
G01X1671042Y4573915D01*
G01X1649195Y4575826D01*
G01X1627347Y4573915D01*
G01X1606164Y4568239D01*
G01X1586288Y4558970D01*
G01X1568323Y4546391D01*
G01X1552816Y4530884D01*
G01X1540237Y4512919D01*
G01X1530969Y4493043D01*
G01X1525292Y4471860D01*
G01X1523381Y4450012D01*
G01X1523381Y4450012D01*
G01X1521009Y4450012D01*
G01X1519097Y4471860D01*
G01X1513421Y4493043D01*
G01X1504153Y4512919D01*
G01X1491574Y4530884D01*
G01X1476066Y4546391D01*
G01X1458102Y4558970D01*
G01X1438226Y4568239D01*
G01X1417042Y4573915D01*
G01X1395195Y4575826D01*
G01X1373347Y4573915D01*
G01X1352164Y4568239D01*
G01X1332288Y4558970D01*
G01X1314323Y4546391D01*
G01X1298816Y4530884D01*
G01X1286237Y4512919D01*
G01X1276969Y4493043D01*
G01X1271292Y4471860D01*
G01X1269381Y4450012D01*
G01X1269381Y4450012D01*
G01X1267009Y4450012D01*
G01X1265097Y4471860D01*
G01X1259421Y4493043D01*
G01X1250153Y4512919D01*
G01X1237574Y4530884D01*
G01X1222066Y4546391D01*
G01X1204102Y4558970D01*
G01X1184226Y4568239D01*
G01X1163042Y4573915D01*
G01X1141195Y4575826D01*
G01X1119347Y4573915D01*
G01X1098164Y4568239D01*
G01X1078288Y4558970D01*
G01X1060323Y4546391D01*
G01X1044816Y4530884D01*
G01X1032237Y4512919D01*
G01X1022969Y4493043D01*
G01X1017292Y4471860D01*
G01X1015381Y4450012D01*
G01X1015381Y4450012D01*
G01X1013009Y4450012D01*
G01X1011097Y4471860D01*
G01X1005421Y4493043D01*
G01X996153Y4512919D01*
G01X983574Y4530884D01*
G01X968066Y4546391D01*
G01X950102Y4558970D01*
G01X930226Y4568239D01*
G01X909042Y4573915D01*
G01X887195Y4575826D01*
G01X865347Y4573915D01*
G01X844164Y4568239D01*
G01X824288Y4558970D01*
G01X806323Y4546391D01*
G01X790816Y4530884D01*
G01X778237Y4512919D01*
G01X768969Y4493043D01*
G01X763292Y4471860D01*
G01X761381Y4450012D01*
G01X761381Y4450012D01*
G01X759009Y4450012D01*
G01X757097Y4471860D01*
G01X751421Y4493043D01*
G01X742153Y4512919D01*
G01X729574Y4530884D01*
G01X714066Y4546391D01*
G01X696102Y4558970D01*
G01X676226Y4568239D01*
G01X655042Y4573915D01*
G01X633195Y4575826D01*
G01X611347Y4573915D01*
G01X590164Y4568239D01*
G01X570288Y4558970D01*
G01X552323Y4546391D01*
G01X536816Y4530884D01*
G01X524237Y4512919D01*
G01X514969Y4493043D01*
G01X509292Y4471860D01*
G01X507381Y4450012D01*
G01X507381Y4450012D01*
G01X505009Y4450012D01*
G01X503097Y4471860D01*
G01X497421Y4493043D01*
G01X488153Y4512919D01*
G01X475574Y4530884D01*
G01X460066Y4546391D01*
G01X442102Y4558970D01*
G01X422226Y4568239D01*
G01X401042Y4573915D01*
G01X379195Y4575826D01*
G01X357347Y4573915D01*
G01X336164Y4568239D01*
G01X316288Y4558970D01*
G01X298323Y4546391D01*
G01X282816Y4530884D01*
G01X270237Y4512919D01*
G01X260969Y4493043D01*
G01X255292Y4471860D01*
G01X253381Y4450012D01*
G01X253381Y4450012D01*
G01X251009Y4450012D01*
G01X249097Y4471860D01*
G01X243421Y4493043D01*
G01X234153Y4512919D01*
G01X221574Y4530884D01*
G01X206066Y4546391D01*
G01X188102Y4558970D01*
G01X168226Y4568239D01*
G01X147042Y4573915D01*
G01X125195Y4575826D01*
G01X103347Y4573915D01*
G01X82164Y4568239D01*
G01X62288Y4558970D01*
G01X44323Y4546391D01*
G01X28816Y4530884D01*
G01X16237Y4512919D01*
G01X6969Y4493043D01*
G01X1292Y4471860D01*
G01X-619Y4450012D01*
G01X-619Y4450012D01*
G01X-186387Y4450012D01*
G01X-186920Y4451771D01*
G01X-192540Y4462285D01*
G01X-200103Y4471501D01*
G01X-428703Y4700101D01*
G01X-437919Y4707664D01*
G01X-448433Y4713283D01*
G01X-459841Y4716744D01*
G01X-471705Y4717913D01*
G01X-1072557Y4717913D01*
G01X-1084421Y4716744D01*
G01X-1095829Y4713283D01*
G01X-1106343Y4707664D01*
G01X-1115559Y4700101D01*
G01X-1355433Y4460226D01*
G01X-1461443Y4460226D01*
G01X-1472510Y4458473D01*
G01X-1482494Y4453386D01*
G01X-1490417Y4445463D01*
G01X-1495504Y4435479D01*
G01X-1497257Y4424412D01*
G01X-2056440Y4424412D01*
G01X-2057208Y4425954D01*
G01X-2070088Y4443009D01*
G01X-2085882Y4457407D01*
G01X-2104052Y4468658D01*
G01X-2123981Y4476379D01*
G01X-2144989Y4480306D01*
G01X-2166361Y4480306D01*
G01X-2187369Y4476379D01*
G01X-2207298Y4468658D01*
G01X-2225469Y4457407D01*
G01X-2241263Y4443009D01*
G01X-2254142Y4425954D01*
G01X-2263668Y4406823D01*
G01X-2269517Y4386267D01*
G01X-2271489Y4364986D01*
G01X-2271489Y4364986D01*
G01X-2293861Y4364986D01*
G01X-2295833Y4386267D01*
G01X-2301682Y4406823D01*
G01X-2311208Y4425954D01*
G01X-2324088Y4443009D01*
G01X-2339882Y4457407D01*
G01X-2358052Y4468658D01*
G01X-2377981Y4476379D01*
G01X-2398989Y4480306D01*
G01X-2420361Y4480306D01*
G01X-2441369Y4476379D01*
G01X-2461298Y4468658D01*
G01X-2479469Y4457407D01*
G01X-2495263Y4443009D01*
G01X-2508142Y4425954D01*
G01X-2517668Y4406823D01*
G01X-2523517Y4386267D01*
G01X-2525489Y4364986D01*
G01X-2525489Y4364986D01*
G01X-2547861Y4364986D01*
G01X-2547861Y4445011D01*
G01X-2549614Y4456078D01*
G01X-2554701Y4466062D01*
G01X-2562624Y4473985D01*
G01X-2572608Y4479072D01*
G01X-2583675Y4480825D01*
G01X-2743675Y4480825D01*
G01X-2754742Y4479072D01*
G01X-2764726Y4473985D01*
G01X-2772649Y4466062D01*
G01X-2777736Y4456078D01*
G01X-2779489Y4445011D01*
G01X-3347414Y4445011D01*
G01X-3361012Y4457407D01*
G01X-3379183Y4468658D01*
G01X-3399111Y4476379D01*
G01X-3420119Y4480306D01*
G01X-3441491Y4480306D01*
G01X-3462499Y4476379D01*
G01X-3482428Y4468658D01*
G01X-3500599Y4457407D01*
G01X-3516393Y4443009D01*
G01X-3529272Y4425954D01*
G01X-3538798Y4406823D01*
G01X-3544647Y4386267D01*
G01X-3546619Y4364986D01*
G01X-3546619Y4364986D01*
G01X-3569370Y4364986D01*
G01X-3570081Y4380833D01*
G01X-3574950Y4401656D01*
G01X-3583565Y4421228D01*
G01X-3595631Y4438884D01*
G01X-3610738Y4454019D01*
G01X-3628370Y4466119D01*
G01X-3647927Y4474771D01*
G01X-3668741Y4479680D01*
G01X-3690102Y4480679D01*
G01X-3711283Y4477732D01*
G01X-3731561Y4470942D01*
G01X-3750245Y4460539D01*
G01X-3766698Y4446879D01*
G01X-3780359Y4430426D01*
G01X-3790761Y4411742D01*
G01X-3797552Y4391464D01*
G01X-3800498Y4370283D01*
G01X-3799499Y4348921D01*
G01X-3794591Y4328108D01*
G01X-3785939Y4308551D01*
G01X-3773838Y4290919D01*
G01X-3758703Y4275812D01*
G01X-3741048Y4263745D01*
G01X-3721475Y4255131D01*
G01X-3700652Y4250261D01*
G01X-3679288Y4249304D01*
G01X-3658113Y4252290D01*
G01X-3212219Y3806396D01*
G01X-3212219Y3239420D01*
G01X-3219436Y3244583D01*
G01X-3227700Y3247813D01*
G01X-3236505Y3248913D01*
G01X-3396505Y3248913D01*
G01X-3407572Y3247160D01*
G01X-3417556Y3242073D01*
G01X-3425479Y3234149D01*
G01X-3430566Y3224166D01*
G01X-3432319Y3213099D01*
G01X-3432319Y3181613D01*
G01X-3838527Y3181613D01*
G01X-3841441Y3191336D01*
G01X-3846965Y3199851D01*
G01X-3854656Y3206475D01*
G01X-3863897Y3210675D01*
G01X-3873945Y3212113D01*
G01X-3954593Y3212113D01*
G01X-3964206Y3210799D01*
G01X-3973114Y3206952D01*
G01X-3980663Y3200855D01*
G01X-3986298Y3192955D01*
G01X-3989605Y3183833D01*
G01X-3992913Y3192955D01*
G01X-3998547Y3200855D01*
G01X-4006096Y3206952D01*
G01X-4015004Y3210799D01*
G01X-4024618Y3212113D01*
G01X-4105265Y3212113D01*
G01X-4116332Y3210360D01*
G01X-4126316Y3205273D01*
G01X-4134239Y3197350D01*
G01X-4139326Y3187366D01*
G01X-4141079Y3176299D01*
G01X-4141079Y3089898D01*
G01X-4139088Y3078123D01*
G01X-4133336Y3067657D01*
G01X-4124463Y3059665D01*
G01X-4113456Y3055033D01*
G01X-4113456Y2957164D01*
G01X-4124463Y2952533D01*
G01X-4133336Y2944540D01*
G01X-4139088Y2934074D01*
G01X-4141079Y2922299D01*
G01X-4141079Y2871570D01*
G01X-4163610Y2849040D01*
G01X-4171320Y2838992D01*
G01X-4176166Y2827291D01*
G01X-4177819Y2814735D01*
G01X-4436391Y2814735D01*
G01X-4436391Y4445011D01*
G01X-4054619Y4445011D01*
G01X-4054619Y4285012D01*
G01X-4052866Y4273944D01*
G01X-4047779Y4263961D01*
G01X-4039856Y4256037D01*
G01X-4029872Y4250950D01*
G01X-4018805Y4249198D01*
G01X-3858805Y4249198D01*
G01X-3858805Y4249198D01*
G01X-3847738Y4250950D01*
G01X-3837754Y4256037D01*
G01X-3829831Y4263961D01*
G01X-3824744Y4273944D01*
G01X-3822991Y4285012D01*
G01X-3822991Y4445011D01*
G01X-3824744Y4456078D01*
G01X-3829831Y4466062D01*
G01X-3837754Y4473985D01*
G01X-3847738Y4479072D01*
G01X-3858805Y4480825D01*
G01X-4018805Y4480825D01*
G01X-4029872Y4479072D01*
G01X-4039856Y4473985D01*
G01X-4047779Y4466062D01*
G01X-4052866Y4456078D01*
G01X-4054619Y4445011D01*
G01X-4436391Y4445011D01*
G01X-4436391Y4628899D01*
G37*
G36*
G01X-3940573Y1615976D02*
G01X-3926686Y1629787D01*
G01X-3915325Y1645741D01*
G01X-3906814Y1663381D01*
G01X-3901398Y1682203D01*
G01X-3899231Y1701669D01*
G01X-3900375Y1721221D01*
G01X-3904798Y1740301D01*
G01X-3912372Y1758363D01*
G01X-3922882Y1774891D01*
G01X-3936026Y1789411D01*
G01X-3951429Y1801508D01*
G01X-3968651Y1810837D01*
G01X-3987198Y1817130D01*
G01X-4006540Y1820208D01*
G01X-4026125Y1819983D01*
G01X-4045391Y1816461D01*
G01X-4063789Y1809742D01*
G01X-4080791Y1800020D01*
G01X-4080791Y2794640D01*
G01X-4075347Y2800084D01*
G01X-4024618Y2800084D01*
G01X-4015004Y2801399D01*
G01X-4006096Y2805246D01*
G01X-3998547Y2811343D01*
G01X-3992913Y2819242D01*
G01X-3989605Y2828365D01*
G01X-3986298Y2819242D01*
G01X-3980663Y2811343D01*
G01X-3973114Y2805246D01*
G01X-3964206Y2801399D01*
G01X-3954593Y2800084D01*
G01X-3873945Y2800084D01*
G01X-3863897Y2801523D01*
G01X-3854656Y2805722D01*
G01X-3846965Y2812346D01*
G01X-3841441Y2820861D01*
G01X-3838527Y2830585D01*
G01X-3421668Y2830585D01*
G01X-3411694Y2813130D01*
G01X-3398853Y2797663D01*
G01X-3383530Y2784650D01*
G01X-3366187Y2774483D01*
G01X-3347348Y2767467D01*
G01X-3327579Y2763816D01*
G01X-3307477Y2763637D01*
G01X-3287647Y2766938D01*
G01X-3268686Y2773618D01*
G01X-3251166Y2783476D01*
G01X-3235615Y2796216D01*
G01X-3222501Y2811452D01*
G01X-3212219Y2828727D01*
G01X-3212219Y2675470D01*
G01X-3222327Y2692502D01*
G01X-3235189Y2707564D01*
G01X-3250429Y2720213D01*
G01X-3267601Y2730081D01*
G01X-3286204Y2736878D01*
G01X-3305693Y2740407D01*
G01X-3325498Y2740563D01*
G01X-3345040Y2737342D01*
G01X-3363748Y2730839D01*
G01X-3381074Y2721243D01*
G01X-3396511Y2708835D01*
G01X-3409609Y2693979D01*
G01X-3419984Y2677108D01*
G01X-3427333Y2658716D01*
G01X-3431440Y2639341D01*
G01X-3432186Y2619549D01*
G01X-3429549Y2599920D01*
G01X-3423606Y2581027D01*
G01X-3414530Y2563422D01*
G01X-3402588Y2547622D01*
G01X-3410294Y2541101D01*
G01X-3778607Y2172788D01*
G01X-3786170Y2163572D01*
G01X-3791790Y2153058D01*
G01X-3795251Y2141650D01*
G01X-3796419Y2129786D01*
G01X-3796419Y1471822D01*
G01X-3940573Y1615976D01*
G37*
G36*
G01X-4016428Y3055033D02*
G01X-4007048Y3058690D01*
G01X-3999057Y3064813D01*
G01X-3993085Y3072918D01*
G01X-3989605Y3082365D01*
G01X-3986298Y3073242D01*
G01X-3980663Y3065343D01*
G01X-3973114Y3059246D01*
G01X-3964206Y3055399D01*
G01X-3954593Y3054084D01*
G01X-3873945Y3054084D01*
G01X-3863897Y3055523D01*
G01X-3854656Y3059722D01*
G01X-3846965Y3066346D01*
G01X-3841441Y3074861D01*
G01X-3838527Y3084585D01*
G01X-3432319Y3084585D01*
G01X-3432319Y3053099D01*
G01X-3430566Y3042032D01*
G01X-3425479Y3032048D01*
G01X-3417556Y3024125D01*
G01X-3407572Y3019038D01*
G01X-3396505Y3017285D01*
G01X-3236505Y3017285D01*
G01X-3227700Y3018384D01*
G01X-3219436Y3021614D01*
G01X-3212219Y3026777D01*
G01X-3212219Y2929470D01*
G01X-3222501Y2946745D01*
G01X-3235615Y2961982D01*
G01X-3251166Y2974721D01*
G01X-3268686Y2984579D01*
G01X-3287647Y2991259D01*
G01X-3307477Y2994560D01*
G01X-3327579Y2994382D01*
G01X-3347348Y2990730D01*
G01X-3366187Y2983715D01*
G01X-3383530Y2973547D01*
G01X-3398853Y2960534D01*
G01X-3411694Y2945067D01*
G01X-3421668Y2927613D01*
G01X-3838527Y2927613D01*
G01X-3841441Y2937336D01*
G01X-3846965Y2945851D01*
G01X-3854656Y2952475D01*
G01X-3863897Y2956675D01*
G01X-3873945Y2958113D01*
G01X-3954593Y2958113D01*
G01X-3964206Y2956799D01*
G01X-3973114Y2952952D01*
G01X-3980663Y2946855D01*
G01X-3986298Y2938955D01*
G01X-3989605Y2929833D01*
G01X-3993085Y2939279D01*
G01X-3999057Y2947384D01*
G01X-4007048Y2953507D01*
G01X-4016428Y2957164D01*
G01X-4016428Y3055033D01*
G37*
G36*
G01X-3648341Y357368D02*
G01X-3647329Y356356D01*
G01X-3647329Y-2900149D01*
G01X-3645676Y-2912705D01*
G01X-3640829Y-2924406D01*
G01X-3633120Y-2934454D01*
G01X-3403708Y-3163865D01*
G01X-3403708Y-3436398D01*
G01X-3401956Y-3447465D01*
G01X-3396869Y-3457449D01*
G01X-3388945Y-3465372D01*
G01X-3378962Y-3470459D01*
G01X-3367894Y-3472212D01*
G01X-3120895Y-3472212D01*
G01X-3109828Y-3470459D01*
G01X-3099844Y-3465372D01*
G01X-3091921Y-3457449D01*
G01X-3086834Y-3447465D01*
G01X-3085081Y-3436398D01*
G01X-3085081Y-3307873D01*
G01X-2836644Y-3307873D01*
G01X-2834313Y-3318332D01*
G01X-2828992Y-3327633D01*
G01X-2821157Y-3334944D01*
G01X-2811511Y-3339610D01*
G01X-2800916Y-3341213D01*
G01X-2661211Y-3341213D01*
G01X-2636917Y-3365506D01*
G01X-2626870Y-3373216D01*
G01X-2615169Y-3378062D01*
G01X-2602613Y-3379715D01*
G01X-2192149Y-3379715D01*
G01X-2189404Y-3390359D01*
G01X-2183562Y-3399669D01*
G01X-2175171Y-3406768D01*
G01X-2165022Y-3410988D01*
G01X-2165022Y-3446487D01*
G01X-2188536Y-3446487D01*
G01X-2199603Y-3448240D01*
G01X-2209587Y-3453327D01*
G01X-2217510Y-3461250D01*
G01X-2222597Y-3471234D01*
G01X-2224350Y-3482301D01*
G01X-2224350Y-3611902D01*
G01X-2222597Y-3622969D01*
G01X-2217510Y-3632953D01*
G01X-2209587Y-3640876D01*
G01X-2199603Y-3645963D01*
G01X-2188536Y-3647716D01*
G01X-2081530Y-3647716D01*
G01X-1533432Y-4195814D01*
G01X-1533432Y-4473686D01*
G01X-1549274Y-4460025D01*
G01X-1567401Y-4449584D01*
G01X-1587168Y-4442736D01*
G01X-1607869Y-4439725D01*
G01X-1628767Y-4440659D01*
G01X-1649118Y-4445503D01*
G01X-1668195Y-4454085D01*
G01X-1685320Y-4466099D01*
G01X-1699882Y-4481118D01*
G01X-1711361Y-4498606D01*
G01X-1719350Y-4517940D01*
G01X-1723562Y-4538430D01*
G01X-1723849Y-4559347D01*
G01X-1720200Y-4579945D01*
G01X-1712745Y-4599491D01*
G01X-1701749Y-4617287D01*
G01X-1687605Y-4632699D01*
G01X-1670816Y-4645179D01*
G01X-1651981Y-4654281D01*
G01X-1631771Y-4659681D01*
G01X-1610906Y-4661187D01*
G01X-1590130Y-4658745D01*
G01X-1570183Y-4652442D01*
G01X-1551776Y-4642502D01*
G01X-1535565Y-4629281D01*
G01X-1522128Y-4613248D01*
G01X-1519222Y-4616424D01*
G01X-1436640Y-4699006D01*
G01X-1428606Y-4705487D01*
G01X-1951439Y-4705487D01*
G01X-1943405Y-4699006D01*
G01X-1899554Y-4655155D01*
G01X-1880300Y-4659920D01*
G01X-1860505Y-4661177D01*
G01X-1840804Y-4658885D01*
G01X-1821826Y-4653117D01*
G01X-1804181Y-4644059D01*
G01X-1788433Y-4632000D01*
G01X-1775088Y-4617327D01*
G01X-1764572Y-4600509D01*
G01X-1757222Y-4582087D01*
G01X-1753274Y-4562649D01*
G01X-1752855Y-4542819D01*
G01X-1755978Y-4523232D01*
G01X-1762542Y-4504515D01*
G01X-1772338Y-4487268D01*
G01X-1785052Y-4472044D01*
G01X-1800276Y-4459330D01*
G01X-1817523Y-4449534D01*
G01X-1836240Y-4442970D01*
G01X-1855827Y-4439847D01*
G01X-1875657Y-4440266D01*
G01X-1895095Y-4444214D01*
G01X-1913517Y-4451564D01*
G01X-1930335Y-4462080D01*
G01X-1945008Y-4475425D01*
G01X-1957067Y-4491173D01*
G01X-1966125Y-4508818D01*
G01X-1971893Y-4527796D01*
G01X-1974185Y-4547497D01*
G01X-1972928Y-4567292D01*
G01X-1968163Y-4586546D01*
G01X-1997804Y-4616187D01*
G01X-2024223Y-4616187D01*
G01X-2013698Y-4598775D01*
G01X-2006534Y-4579731D01*
G01X-2002973Y-4559699D01*
G01X-2003134Y-4539353D01*
G01X-2007013Y-4519380D01*
G01X-2014478Y-4500453D01*
G01X-2025277Y-4483209D01*
G01X-2039047Y-4468231D01*
G01X-2055324Y-4456023D01*
G01X-2073558Y-4446996D01*
G01X-2093136Y-4441455D01*
G01X-2113396Y-4439587D01*
G01X-2133656Y-4441455D01*
G01X-2153234Y-4446996D01*
G01X-2171468Y-4456023D01*
G01X-2187745Y-4468231D01*
G01X-2201515Y-4483209D01*
G01X-2212315Y-4500453D01*
G01X-2219779Y-4519380D01*
G01X-2223658Y-4539353D01*
G01X-2223819Y-4559699D01*
G01X-2220258Y-4579731D01*
G01X-2213094Y-4598775D01*
G01X-2202570Y-4616187D01*
G01X-2274235Y-4616187D01*
G01X-2263710Y-4598775D01*
G01X-2256546Y-4579731D01*
G01X-2252985Y-4559699D01*
G01X-2253147Y-4539353D01*
G01X-2257025Y-4519380D01*
G01X-2264490Y-4500453D01*
G01X-2275289Y-4483209D01*
G01X-2289060Y-4468231D01*
G01X-2305336Y-4456023D01*
G01X-2323571Y-4446996D01*
G01X-2343148Y-4441455D01*
G01X-2363408Y-4439587D01*
G01X-2383669Y-4441455D01*
G01X-2403246Y-4446996D01*
G01X-2421480Y-4456023D01*
G01X-2437757Y-4468231D01*
G01X-2451527Y-4483209D01*
G01X-2462327Y-4500453D01*
G01X-2469792Y-4519380D01*
G01X-2473670Y-4539353D01*
G01X-2473831Y-4559699D01*
G01X-2470270Y-4579731D01*
G01X-2463106Y-4598775D01*
G01X-2452582Y-4616187D01*
G01X-3360890Y-4616187D01*
G01X-3350955Y-4598725D01*
G01X-3344187Y-4579809D01*
G01X-3340790Y-4560008D01*
G01X-3340867Y-4539918D01*
G01X-3344414Y-4520143D01*
G01X-3351325Y-4501279D01*
G01X-3361392Y-4483893D01*
G01X-3374312Y-4468509D01*
G01X-3389697Y-4455588D01*
G01X-3407083Y-4445521D01*
G01X-3425947Y-4438610D01*
G01X-3445722Y-4435063D01*
G01X-3465812Y-4434987D01*
G01X-3485613Y-4438383D01*
G01X-3504529Y-4445151D01*
G01X-3521991Y-4455086D01*
G01X-3521991Y-4100311D01*
G01X-3512893Y-4087940D01*
G01X-3506884Y-4073808D01*
G01X-3504287Y-4058672D01*
G01X-3505241Y-4043345D01*
G01X-3505528Y-4042401D01*
G01X-3022119Y-4042401D01*
G01X-3020212Y-4062984D01*
G01X-3014555Y-4082865D01*
G01X-3005341Y-4101369D01*
G01X-2992885Y-4117865D01*
G01X-2977609Y-4131790D01*
G01X-2960034Y-4142672D01*
G01X-2940759Y-4150139D01*
G01X-2920441Y-4153937D01*
G01X-2899770Y-4153937D01*
G01X-2879451Y-4150139D01*
G01X-2860176Y-4142672D01*
G01X-2842602Y-4131790D01*
G01X-2827326Y-4117865D01*
G01X-2814869Y-4101369D01*
G01X-2805655Y-4082865D01*
G01X-2799998Y-4062984D01*
G01X-2798091Y-4042401D01*
G01X-2799998Y-4021819D01*
G01X-2805655Y-4001937D01*
G01X-2814869Y-3983434D01*
G01X-2827326Y-3966938D01*
G01X-2842602Y-3953012D01*
G01X-2860176Y-3942130D01*
G01X-2879451Y-3934663D01*
G01X-2899770Y-3930865D01*
G01X-2920441Y-3930865D01*
G01X-2940759Y-3934663D01*
G01X-2960034Y-3942130D01*
G01X-2977609Y-3953012D01*
G01X-2992885Y-3966938D01*
G01X-3005341Y-3983434D01*
G01X-3014555Y-4001937D01*
G01X-3020212Y-4021819D01*
G01X-3022119Y-4042401D01*
G01X-3022119Y-4042401D01*
G01X-3505528Y-4042401D01*
G01X-3509696Y-4028649D01*
G01X-3517411Y-4015371D01*
G01X-3527973Y-4004223D01*
G01X-3540816Y-3995804D01*
G01X-3555252Y-3990565D01*
G01X-3570505Y-3988787D01*
G01X-3585759Y-3990565D01*
G01X-3600194Y-3995804D01*
G01X-3613037Y-4004223D01*
G01X-3623600Y-4015371D01*
G01X-3631315Y-4028649D01*
G01X-3635769Y-4043345D01*
G01X-3636723Y-4058672D01*
G01X-3634126Y-4073808D01*
G01X-3628117Y-4087940D01*
G01X-3619019Y-4100311D01*
G01X-3619019Y-4479001D01*
G01X-3630623Y-4466261D01*
G01X-3643989Y-4455384D01*
G01X-3658821Y-4446610D01*
G01X-3674791Y-4440135D01*
G01X-3674791Y-3535396D01*
G01X-2836730Y-3535396D01*
G01X-2834977Y-3546463D01*
G01X-2829890Y-3556447D01*
G01X-2821967Y-3564370D01*
G01X-2811983Y-3569457D01*
G01X-2800916Y-3571210D01*
G01X-2553916Y-3571210D01*
G01X-2542849Y-3569457D01*
G01X-2532865Y-3564370D01*
G01X-2524942Y-3556447D01*
G01X-2519855Y-3546463D01*
G01X-2518102Y-3535396D01*
G01X-2518102Y-3437395D01*
G01X-2519855Y-3426328D01*
G01X-2524942Y-3416344D01*
G01X-2532865Y-3408421D01*
G01X-2542849Y-3403334D01*
G01X-2553916Y-3401581D01*
G01X-2800916Y-3401581D01*
G01X-2811983Y-3403334D01*
G01X-2821967Y-3408421D01*
G01X-2829890Y-3416344D01*
G01X-2834977Y-3426328D01*
G01X-2836730Y-3437395D01*
G01X-2836730Y-3535396D01*
G01X-2836730Y-3535396D01*
G01X-3674791Y-3535396D01*
G01X-3674791Y363901D01*
G01X-3661905Y359261D01*
G01X-3648341Y357368D01*
G37*
G36*
G01X-3544624Y371609D02*
G01X-3544624Y-1259296D01*
G01X-3542971Y-1271852D01*
G01X-3538125Y-1283553D01*
G01X-3530415Y-1293601D01*
G01X-3425171Y-1398844D01*
G01X-3430224Y-1416970D01*
G01X-3432274Y-1435675D01*
G01X-3431269Y-1454464D01*
G01X-3427234Y-1472843D01*
G01X-3420276Y-1490326D01*
G01X-3410578Y-1506452D01*
G01X-3398398Y-1520794D01*
G01X-3384056Y-1532975D01*
G01X-3367930Y-1542672D01*
G01X-3350447Y-1549630D01*
G01X-3332068Y-1553665D01*
G01X-3313279Y-1554670D01*
G01X-3294574Y-1552620D01*
G01X-3276448Y-1547567D01*
G01X-3238019Y-1585996D01*
G01X-3238019Y-1607738D01*
G01X-3254349Y-1595180D01*
G01X-3272645Y-1585714D01*
G01X-3292330Y-1579639D01*
G01X-3312779Y-1577147D01*
G01X-3333346Y-1578318D01*
G01X-3353380Y-1583115D01*
G01X-3372247Y-1591384D01*
G01X-3389351Y-1602866D01*
G01X-3404150Y-1617196D01*
G01X-3416176Y-1633922D01*
G01X-3425049Y-1652513D01*
G01X-3430487Y-1672383D01*
G01X-3432319Y-1692901D01*
G01X-3430487Y-1713420D01*
G01X-3425049Y-1733289D01*
G01X-3416176Y-1751881D01*
G01X-3404150Y-1768606D01*
G01X-3389351Y-1782937D01*
G01X-3372247Y-1794418D01*
G01X-3353380Y-1802688D01*
G01X-3333346Y-1807484D01*
G01X-3312779Y-1808655D01*
G01X-3292330Y-1806164D01*
G01X-3272645Y-1800089D01*
G01X-3254349Y-1790623D01*
G01X-3238019Y-1778065D01*
G01X-3238019Y-2734301D01*
G01X-3236366Y-2746858D01*
G01X-3231520Y-2758558D01*
G01X-3223810Y-2768606D01*
G01X-2849378Y-3143038D01*
G01X-2846799Y-3159159D01*
G01X-2840358Y-3174162D01*
G01X-2830448Y-3187137D01*
G01X-2835123Y-3196792D01*
G01X-2836730Y-3207398D01*
G01X-2836730Y-3210845D01*
G01X-3085081Y-3210845D01*
G01X-3085081Y-3076399D01*
G01X-3086834Y-3065332D01*
G01X-3091921Y-3055348D01*
G01X-3099844Y-3047425D01*
G01X-3109828Y-3042338D01*
G01X-3120895Y-3040585D01*
G01X-3367894Y-3040585D01*
G01X-3376870Y-3041728D01*
G01X-3385272Y-3045083D01*
G01X-3550301Y-2880054D01*
G01X-3550301Y376451D01*
G01X-3550308Y377293D01*
G01X-3544624Y371609D01*
G37*
G36*
G01X-3394991Y-762065D02*
G01X-3378661Y-774623D01*
G01X-3360365Y-784089D01*
G01X-3340681Y-790164D01*
G01X-3320232Y-792655D01*
G01X-3299665Y-791484D01*
G01X-3279631Y-786688D01*
G01X-3260763Y-778418D01*
G01X-3243660Y-766937D01*
G01X-3228860Y-752606D01*
G01X-3216834Y-735881D01*
G01X-3207962Y-717289D01*
G01X-3202523Y-697420D01*
G01X-3200691Y-676901D01*
G01X-3202523Y-656383D01*
G01X-3207962Y-636513D01*
G01X-3216834Y-617922D01*
G01X-3228860Y-601196D01*
G01X-3243660Y-586866D01*
G01X-3260763Y-575384D01*
G01X-3279631Y-567115D01*
G01X-3299665Y-562318D01*
G01X-3320232Y-561147D01*
G01X-3340681Y-563639D01*
G01X-3360365Y-569714D01*
G01X-3378661Y-579180D01*
G01X-3394991Y-591738D01*
G01X-3394991Y-508065D01*
G01X-3378186Y-520923D01*
G01X-3359322Y-530510D01*
G01X-3339028Y-536504D01*
G01X-3317983Y-538706D01*
G01X-3296888Y-537042D01*
G01X-3276448Y-531567D01*
G01X-3185414Y-622602D01*
G01X-3185414Y-754906D01*
G01X-3183761Y-767463D01*
G01X-3178914Y-779163D01*
G01X-3171205Y-789211D01*
G01X-2632389Y-1328026D01*
G01X-2622432Y-1335684D01*
G01X-2610842Y-1340528D01*
G01X-2598398Y-1342235D01*
G01X-2615145Y-1354235D01*
G01X-2629412Y-1369100D01*
G01X-2640714Y-1386326D01*
G01X-2648671Y-1405331D01*
G01X-2653011Y-1425472D01*
G01X-2653590Y-1446067D01*
G01X-2650386Y-1466420D01*
G01X-2643509Y-1485842D01*
G01X-2633191Y-1503675D01*
G01X-2619782Y-1519318D01*
G01X-2603734Y-1532239D01*
G01X-2585591Y-1542003D01*
G01X-2565967Y-1548278D01*
G01X-2545525Y-1550854D01*
G01X-2524958Y-1549641D01*
G01X-2504960Y-1544682D01*
G01X-2486209Y-1536144D01*
G01X-2469339Y-1524317D01*
G01X-2454921Y-1509599D01*
G01X-2443442Y-1492490D01*
G01X-2435291Y-1473568D01*
G01X-2430743Y-1453473D01*
G01X-1757178Y-2127038D01*
G01X-1754946Y-2141915D01*
G01X-1749418Y-2155907D01*
G01X-1740879Y-2168292D01*
G01X-1729768Y-2178434D01*
G01X-1716657Y-2185811D01*
G01X-1702220Y-2190043D01*
G01X-1687201Y-2190912D01*
G01X-1672373Y-2188373D01*
G01X-1672373Y-2521947D01*
G01X-1670720Y-2534504D01*
G01X-1665873Y-2546204D01*
G01X-1658164Y-2556252D01*
G01X-1579378Y-2635038D01*
G01X-1577062Y-2650225D01*
G01X-1571313Y-2664472D01*
G01X-1562440Y-2677014D01*
G01X-1550919Y-2687178D01*
G01X-1537369Y-2694417D01*
G01X-1522516Y-2698344D01*
G01X-1507158Y-2698748D01*
G01X-1492119Y-2695607D01*
G01X-1492119Y-2790406D01*
G01X-1598341Y-2896628D01*
G01X-1607787Y-2897642D01*
G01X-1616991Y-2899995D01*
G01X-1616991Y-2734301D01*
G01X-1618644Y-2721745D01*
G01X-1623491Y-2710044D01*
G01X-1631201Y-2699997D01*
G01X-2527234Y-1803964D01*
G01X-2507002Y-1799371D01*
G01X-2487964Y-1791127D01*
G01X-2470773Y-1779513D01*
G01X-2456019Y-1764928D01*
G01X-2444207Y-1747872D01*
G01X-2435744Y-1728931D01*
G01X-2430919Y-1708753D01*
G01X-2429897Y-1688032D01*
G01X-2432714Y-1667478D01*
G01X-2439274Y-1647796D01*
G01X-2449351Y-1629661D01*
G01X-2462599Y-1613695D01*
G01X-2478565Y-1600447D01*
G01X-2496700Y-1590370D01*
G01X-2516382Y-1583811D01*
G01X-2536936Y-1580993D01*
G01X-2557657Y-1582015D01*
G01X-2577834Y-1586840D01*
G01X-2596776Y-1595303D01*
G01X-2613832Y-1607115D01*
G01X-2628417Y-1621869D01*
G01X-2640031Y-1639060D01*
G01X-2648275Y-1658098D01*
G01X-2652867Y-1678330D01*
G01X-3127389Y-1203809D01*
G01X-3127389Y-1147704D01*
G01X-3129042Y-1135147D01*
G01X-3133888Y-1123447D01*
G01X-3141598Y-1113399D01*
G01X-3231401Y-1023597D01*
G01X-3239284Y-1017213D01*
G01X-3225411Y-1002418D01*
G01X-3214331Y-985429D01*
G01X-3206385Y-966768D01*
G01X-3201817Y-947007D01*
G01X-3200766Y-926752D01*
G01X-3203264Y-906625D01*
G01X-3209236Y-887241D01*
G01X-3218498Y-869197D01*
G01X-3230765Y-853046D01*
G01X-3245662Y-839282D01*
G01X-3262732Y-828328D01*
G01X-3281451Y-820520D01*
G01X-3301246Y-816097D01*
G01X-3321508Y-815196D01*
G01X-3341616Y-817843D01*
G01X-3360955Y-823957D01*
G01X-3378930Y-833352D01*
G01X-3394991Y-845738D01*
G01X-3394991Y-762065D01*
G37*
G36*
G01X-3052491Y-1415924D02*
G01X-1714019Y-2754396D01*
G01X-1714019Y-2925787D01*
G01X-1851274Y-2925787D01*
G01X-1862342Y-2927540D01*
G01X-1872325Y-2932627D01*
G01X-1880249Y-2940550D01*
G01X-1885336Y-2950534D01*
G01X-1887088Y-2961601D01*
G01X-1887088Y-3091202D01*
G01X-1885336Y-3102269D01*
G01X-1880249Y-3112253D01*
G01X-1872325Y-3120176D01*
G01X-1862342Y-3125263D01*
G01X-1851274Y-3127016D01*
G01X-1701275Y-3127016D01*
G01X-1690208Y-3125263D01*
G01X-1680224Y-3120176D01*
G01X-1672301Y-3112253D01*
G01X-1667214Y-3102269D01*
G01X-1665461Y-3091202D01*
G01X-1665461Y-3056955D01*
G01X-1528578Y-3193838D01*
G01X-1526657Y-3207515D01*
G01X-1863813Y-3207515D01*
G01X-2002722Y-3068606D01*
G01X-2002722Y-2961601D01*
G01X-2004475Y-2950534D01*
G01X-2009562Y-2940550D01*
G01X-2017485Y-2932627D01*
G01X-2027469Y-2927540D01*
G01X-2038536Y-2925787D01*
G01X-2188536Y-2925787D01*
G01X-2199603Y-2927540D01*
G01X-2209587Y-2932627D01*
G01X-2217510Y-2940550D01*
G01X-2222597Y-2950534D01*
G01X-2224350Y-2961601D01*
G01X-2224350Y-2977887D01*
G01X-2518102Y-2977887D01*
G01X-2518102Y-2977401D01*
G01X-2519855Y-2966334D01*
G01X-2524942Y-2956350D01*
G01X-2532865Y-2948427D01*
G01X-2542849Y-2943340D01*
G01X-2553916Y-2941587D01*
G01X-2676226Y-2941587D01*
G01X-3052491Y-2565322D01*
G01X-3052491Y-1415924D01*
G37*
G36*
G01X-1958159Y-3250387D02*
G01X-2016503Y-3250387D01*
G01X-2028143Y-3252332D01*
G01X-2038520Y-3257954D01*
G01X-2046505Y-3266644D01*
G01X-2054491Y-3257954D01*
G01X-2064867Y-3252332D01*
G01X-2076508Y-3250387D01*
G01X-2156507Y-3250387D01*
G01X-2166903Y-3251929D01*
G01X-2176403Y-3256422D01*
G01X-2184191Y-3263480D01*
G01X-2189594Y-3272493D01*
G01X-2192149Y-3282687D01*
G01X-2518102Y-3282687D01*
G01X-2518102Y-3207398D01*
G01X-2519855Y-3196331D01*
G01X-2524942Y-3186347D01*
G01X-2532865Y-3178424D01*
G01X-2542849Y-3173337D01*
G01X-2553916Y-3171584D01*
G01X-2724421Y-3171584D01*
G01X-2718822Y-3156987D01*
G01X-2716796Y-3141486D01*
G01X-2718455Y-3125941D01*
G01X-2723707Y-3111216D01*
G01X-2553916Y-3111216D01*
G01X-2542849Y-3109463D01*
G01X-2532865Y-3104376D01*
G01X-2524942Y-3096453D01*
G01X-2519855Y-3086469D01*
G01X-2518102Y-3075402D01*
G01X-2518102Y-3074915D01*
G01X-2224350Y-3074915D01*
G01X-2224350Y-3091202D01*
G01X-2222597Y-3102269D01*
G01X-2217510Y-3112253D01*
G01X-2209587Y-3120176D01*
G01X-2199603Y-3125263D01*
G01X-2188536Y-3127016D01*
G01X-2081530Y-3127016D01*
G01X-1958159Y-3250387D01*
G37*
G36*
G01X-2002722Y-3482301D02*
G01X-2004475Y-3471234D01*
G01X-2009562Y-3461250D01*
G01X-2017485Y-3453327D01*
G01X-2027469Y-3448240D01*
G01X-2038536Y-3446487D01*
G01X-2067994Y-3446487D01*
G01X-2067994Y-3410988D01*
G01X-2059619Y-3407783D01*
G01X-2052304Y-3402598D01*
G01X-2046505Y-3395759D01*
G01X-2038520Y-3404448D01*
G01X-2028143Y-3410071D01*
G01X-2016503Y-3412015D01*
G01X-1936503Y-3412015D01*
G01X-1925436Y-3410262D01*
G01X-1915452Y-3405175D01*
G01X-1907529Y-3397252D01*
G01X-1902442Y-3387268D01*
G01X-1900689Y-3376201D01*
G01X-1900689Y-3301549D01*
G01X-1892431Y-3303789D01*
G01X-1883908Y-3304543D01*
G01X-1370520Y-3304543D01*
G01X-1370520Y-3306029D01*
G01X-1368767Y-3317096D01*
G01X-1363680Y-3327080D01*
G01X-1355757Y-3335003D01*
G01X-1345773Y-3340090D01*
G01X-1334706Y-3341843D01*
G01X-1219119Y-3341843D01*
G01X-1219119Y-3470844D01*
G01X-1229005Y-3469453D01*
G01X-1315406Y-3469453D01*
G01X-1326473Y-3471206D01*
G01X-1336456Y-3476293D01*
G01X-1344380Y-3484216D01*
G01X-1349467Y-3494200D01*
G01X-1351220Y-3505267D01*
G01X-1351220Y-3585914D01*
G01X-1349905Y-3595528D01*
G01X-1346058Y-3604436D01*
G01X-1339961Y-3611985D01*
G01X-1332062Y-3617619D01*
G01X-1322939Y-3620927D01*
G01X-1332062Y-3624234D01*
G01X-1339961Y-3629869D01*
G01X-1346058Y-3637418D01*
G01X-1349905Y-3646326D01*
G01X-1351220Y-3655940D01*
G01X-1351220Y-3736587D01*
G01X-1349467Y-3747654D01*
G01X-1344380Y-3757638D01*
G01X-1336456Y-3765561D01*
G01X-1326473Y-3770648D01*
G01X-1315406Y-3772401D01*
G01X-1229005Y-3772401D01*
G01X-1217938Y-3770648D01*
G01X-1207954Y-3765561D01*
G01X-1200031Y-3757638D01*
G01X-1194944Y-3747654D01*
G01X-1193191Y-3736587D01*
G01X-1193191Y-3685858D01*
G01X-1161919Y-3654586D01*
G01X-1161919Y-4280301D01*
G01X-1327266Y-4445648D01*
G01X-1346081Y-4440951D01*
G01X-1365427Y-4439606D01*
G01X-1384711Y-4441654D01*
G01X-1403342Y-4447032D01*
G01X-1420751Y-4455577D01*
G01X-1436404Y-4467025D01*
G01X-1436404Y-4175719D01*
G01X-1438057Y-4163163D01*
G01X-1442903Y-4151462D01*
G01X-1450613Y-4141415D01*
G01X-2002722Y-3589306D01*
G01X-2002722Y-3482301D01*
G01X-1887088Y-3482301D01*
G01X-1887088Y-3611902D01*
G01X-1885336Y-3622969D01*
G01X-1880249Y-3632953D01*
G01X-1872325Y-3640876D01*
G01X-1862342Y-3645963D01*
G01X-1851274Y-3647716D01*
G01X-1701275Y-3647716D01*
G01X-1690208Y-3645963D01*
G01X-1680224Y-3640876D01*
G01X-1672301Y-3632953D01*
G01X-1667214Y-3622969D01*
G01X-1665461Y-3611902D01*
G01X-1665461Y-3482301D01*
G01X-1665461Y-3482301D01*
G01X-1667214Y-3471234D01*
G01X-1672301Y-3461250D01*
G01X-1680224Y-3453327D01*
G01X-1690208Y-3448240D01*
G01X-1701275Y-3446487D01*
G01X-1851274Y-3446487D01*
G01X-1862342Y-3448240D01*
G01X-1872325Y-3453327D01*
G01X-1880249Y-3461250D01*
G01X-1885336Y-3471234D01*
G01X-1887088Y-3482301D01*
G01X-2002722Y-3482301D01*
G37*
G36*
G01X-1318891Y1167841D02*
G01X-1303398Y1162915D01*
G01X-1287171Y1161907D01*
G01X-1271187Y1164878D01*
G01X-1256406Y1171649D01*
G01X-1243717Y1181812D01*
G01X-1233882Y1194758D01*
G01X-1227492Y1209708D01*
G01X-1224932Y1225762D01*
G01X-1199195Y1251500D01*
G01X-1191683Y1238880D01*
G01X-1181577Y1228222D01*
G01X-1169374Y1220051D01*
G01X-1155671Y1214765D01*
G01X-1141141Y1212626D01*
G01X-1099413Y1170898D01*
G01X-1110864Y1153391D01*
G01X-1118859Y1134061D01*
G01X-1123121Y1113581D01*
G01X-1123501Y1092666D01*
G01X-1119986Y1072045D01*
G01X-1112697Y1052438D01*
G01X-1101890Y1034527D01*
G01X-1087942Y1018938D01*
G01X-1071337Y1006214D01*
G01X-1052657Y996800D01*
G01X-1032552Y991023D01*
G01X-1011724Y989085D01*
G01X-990898Y991053D01*
G01X-970801Y996859D01*
G01X-952135Y1006301D01*
G01X-935549Y1019049D01*
G01X-921623Y1034658D01*
G01X-910842Y1052585D01*
G01X-335568Y1052585D01*
G01X-326741Y1036816D01*
G01X-315569Y1022613D01*
G01X-471705Y1022613D01*
G01X-484262Y1020960D01*
G01X-495962Y1016113D01*
G01X-506010Y1008403D01*
G01X-633010Y881403D01*
G01X-640720Y871356D01*
G01X-645566Y859655D01*
G01X-647219Y847099D01*
G01X-647219Y-4390891D01*
G01X-656763Y-4404056D01*
G01X-662816Y-4419148D01*
G01X-665014Y-4435259D01*
G01X-663225Y-4451421D01*
G01X-679609Y-4461542D01*
G01X-693993Y-4474347D01*
G01X-705943Y-4489448D01*
G01X-715098Y-4506391D01*
G01X-721182Y-4524662D01*
G01X-724011Y-4543711D01*
G01X-723499Y-4562962D01*
G01X-719662Y-4581833D01*
G01X-712615Y-4599756D01*
G01X-702573Y-4616187D01*
G01X-774238Y-4616187D01*
G01X-763713Y-4598775D01*
G01X-756549Y-4579731D01*
G01X-752988Y-4559699D01*
G01X-753150Y-4539353D01*
G01X-757028Y-4519380D01*
G01X-764493Y-4500453D01*
G01X-775292Y-4483209D01*
G01X-789063Y-4468231D01*
G01X-805339Y-4456023D01*
G01X-823574Y-4446996D01*
G01X-843151Y-4441455D01*
G01X-863411Y-4439587D01*
G01X-883672Y-4441455D01*
G01X-903249Y-4446996D01*
G01X-921483Y-4456023D01*
G01X-937760Y-4468231D01*
G01X-951530Y-4483209D01*
G01X-962330Y-4500453D01*
G01X-969795Y-4519380D01*
G01X-973673Y-4539353D01*
G01X-973834Y-4559699D01*
G01X-970273Y-4579731D01*
G01X-963109Y-4598775D01*
G01X-952585Y-4616187D01*
G01X-1024225Y-4616187D01*
G01X-1014816Y-4601011D01*
G01X-1007968Y-4584521D01*
G01X-1003856Y-4567145D01*
G01X-1002589Y-4549334D01*
G01X-1004199Y-4531551D01*
G01X-1008645Y-4514257D01*
G01X-793001Y-4298613D01*
G01X-785291Y-4288565D01*
G01X-780444Y-4276865D01*
G01X-778791Y-4264308D01*
G01X-778791Y878089D01*
G01X-769693Y890460D01*
G01X-763684Y904592D01*
G01X-761087Y919728D01*
G01X-762041Y935055D01*
G01X-766496Y949751D01*
G01X-774211Y963029D01*
G01X-784773Y974177D01*
G01X-797616Y982596D01*
G01X-812052Y987835D01*
G01X-827305Y989613D01*
G01X-842559Y987835D01*
G01X-856994Y982596D01*
G01X-869837Y974177D01*
G01X-880400Y963029D01*
G01X-888115Y949751D01*
G01X-892569Y935055D01*
G01X-893523Y919728D01*
G01X-890926Y904592D01*
G01X-884917Y890460D01*
G01X-875819Y878089D01*
G01X-875819Y-4244213D01*
G01X-1077254Y-4445648D01*
G01X-1096738Y-4440847D01*
G01X-1116768Y-4439639D01*
G01X-1136687Y-4442062D01*
G01X-1155843Y-4448039D01*
G01X-1173608Y-4457372D01*
G01X-1189397Y-4469755D01*
G01X-1202695Y-4484783D01*
G01X-1213065Y-4501963D01*
G01X-1220166Y-4520731D01*
G01X-1223766Y-4540472D01*
G01X-1223747Y-4560538D01*
G01X-1220110Y-4580273D01*
G01X-1212973Y-4599027D01*
G01X-1202572Y-4616187D01*
G01X-1274237Y-4616187D01*
G01X-1264829Y-4601011D01*
G01X-1257980Y-4584521D01*
G01X-1253869Y-4567145D01*
G01X-1252602Y-4549334D01*
G01X-1254212Y-4531551D01*
G01X-1258657Y-4514257D01*
G01X-1079101Y-4334701D01*
G01X-1071391Y-4324653D01*
G01X-1066544Y-4312953D01*
G01X-1064891Y-4300396D01*
G01X-1064891Y-1794501D01*
G01X-1064985Y-1791487D01*
G01X-1046345Y-1799457D01*
G01X-1026573Y-1803938D01*
G01X-1006318Y-1804781D01*
G01X-986243Y-1801960D01*
G01X-967005Y-1795566D01*
G01X-949234Y-1785810D01*
G01X-933513Y-1773010D01*
G01X-920356Y-1757587D01*
G01X-910195Y-1740044D01*
G01X-903362Y-1720958D01*
G01X-900081Y-1700952D01*
G01X-900460Y-1680683D01*
G01X-904485Y-1660814D01*
G01X-912027Y-1641996D01*
G01X-922836Y-1624845D01*
G01X-936559Y-1609924D01*
G01X-952748Y-1597721D01*
G01X-970870Y-1588635D01*
G01X-990334Y-1582964D01*
G01X-1010501Y-1580895D01*
G01X-1030710Y-1582494D01*
G01X-1050301Y-1587710D01*
G01X-1068630Y-1596371D01*
G01X-1085098Y-1608194D01*
G01X-1099166Y-1622792D01*
G01X-1110371Y-1639686D01*
G01X-1118349Y-1658324D01*
G01X-1122836Y-1678093D01*
G01X-1123687Y-1698348D01*
G01X-1120873Y-1718425D01*
G01X-1318891Y-1520406D01*
G01X-1318891Y-1438901D01*
G01X-1185719Y-1438901D01*
G01X-1184023Y-1453805D01*
G01X-1179021Y-1467945D01*
G01X-1170968Y-1480600D01*
G01X-1160278Y-1491122D01*
G01X-1147496Y-1498972D01*
G01X-1133278Y-1503748D01*
G01X-1118349Y-1505207D01*
G01X-1103475Y-1503274D01*
G01X-1090416Y-1518698D01*
G01X-1074798Y-1531524D01*
G01X-1057129Y-1541336D01*
G01X-1037985Y-1547813D01*
G01X-1017989Y-1550744D01*
G01X-997791Y-1550035D01*
G01X-978050Y-1545708D01*
G01X-959407Y-1537904D01*
G01X-942470Y-1526878D01*
G01X-927791Y-1512987D01*
G01X-915846Y-1496685D01*
G01X-907025Y-1478501D01*
G01X-901614Y-1459029D01*
G01X-899791Y-1438901D01*
G01X-899791Y-1438901D01*
G01X-901614Y-1418774D01*
G01X-907025Y-1399301D01*
G01X-915846Y-1381118D01*
G01X-927791Y-1364816D01*
G01X-942470Y-1350925D01*
G01X-959407Y-1339898D01*
G01X-978050Y-1332094D01*
G01X-997791Y-1327767D01*
G01X-1017989Y-1327058D01*
G01X-1037985Y-1329990D01*
G01X-1057129Y-1336467D01*
G01X-1074798Y-1346278D01*
G01X-1090416Y-1359105D01*
G01X-1103475Y-1374529D01*
G01X-1118349Y-1372596D01*
G01X-1133278Y-1374055D01*
G01X-1147496Y-1378831D01*
G01X-1160278Y-1386681D01*
G01X-1170968Y-1397202D01*
G01X-1179021Y-1409857D01*
G01X-1184023Y-1423998D01*
G01X-1185719Y-1438901D01*
G01X-1318891Y-1438901D01*
G01X-1318891Y-1184901D01*
G01X-1185719Y-1184901D01*
G01X-1184023Y-1199805D01*
G01X-1179021Y-1213945D01*
G01X-1170968Y-1226600D01*
G01X-1160278Y-1237122D01*
G01X-1147496Y-1244972D01*
G01X-1133278Y-1249748D01*
G01X-1118349Y-1251207D01*
G01X-1103475Y-1249274D01*
G01X-1090416Y-1264698D01*
G01X-1074798Y-1277524D01*
G01X-1057129Y-1287336D01*
G01X-1037985Y-1293813D01*
G01X-1017989Y-1296744D01*
G01X-997791Y-1296035D01*
G01X-978050Y-1291708D01*
G01X-959407Y-1283904D01*
G01X-942470Y-1272878D01*
G01X-927791Y-1258987D01*
G01X-915846Y-1242685D01*
G01X-907025Y-1224501D01*
G01X-901614Y-1205029D01*
G01X-899791Y-1184901D01*
G01X-899791Y-1184901D01*
G01X-901614Y-1164774D01*
G01X-907025Y-1145301D01*
G01X-915846Y-1127118D01*
G01X-927791Y-1110816D01*
G01X-942470Y-1096925D01*
G01X-959407Y-1085898D01*
G01X-978050Y-1078094D01*
G01X-997791Y-1073767D01*
G01X-1017989Y-1073058D01*
G01X-1037985Y-1075990D01*
G01X-1057129Y-1082467D01*
G01X-1074798Y-1092278D01*
G01X-1090416Y-1105105D01*
G01X-1103475Y-1120529D01*
G01X-1118349Y-1118596D01*
G01X-1133278Y-1120055D01*
G01X-1147496Y-1124831D01*
G01X-1160278Y-1132681D01*
G01X-1170968Y-1143202D01*
G01X-1179021Y-1155857D01*
G01X-1184023Y-1169998D01*
G01X-1185719Y-1184901D01*
G01X-1318891Y-1184901D01*
G01X-1318891Y-920566D01*
G01X-1123341Y-920566D01*
G01X-1123341Y-941237D01*
G01X-1119543Y-961555D01*
G01X-1112076Y-980830D01*
G01X-1101194Y-998405D01*
G01X-1087269Y-1013681D01*
G01X-1070773Y-1026138D01*
G01X-1052269Y-1035351D01*
G01X-1032388Y-1041008D01*
G01X-1011805Y-1042915D01*
G01X-991223Y-1041008D01*
G01X-971341Y-1035351D01*
G01X-952837Y-1026138D01*
G01X-936342Y-1013681D01*
G01X-922416Y-998405D01*
G01X-911534Y-980830D01*
G01X-904067Y-961555D01*
G01X-900269Y-941237D01*
G01X-900269Y-920566D01*
G01X-904067Y-900247D01*
G01X-911534Y-880972D01*
G01X-922416Y-863398D01*
G01X-936342Y-848122D01*
G01X-952837Y-835665D01*
G01X-971341Y-826451D01*
G01X-991223Y-820795D01*
G01X-1011805Y-818887D01*
G01X-1011805Y-818887D01*
G01X-1032388Y-820795D01*
G01X-1052269Y-826451D01*
G01X-1070773Y-835665D01*
G01X-1087269Y-848122D01*
G01X-1101194Y-863398D01*
G01X-1112076Y-880972D01*
G01X-1119543Y-900247D01*
G01X-1123341Y-920566D01*
G01X-1318891Y-920566D01*
G01X-1318891Y-666566D01*
G01X-1123341Y-666566D01*
G01X-1123341Y-687237D01*
G01X-1119543Y-707555D01*
G01X-1112076Y-726830D01*
G01X-1101194Y-744405D01*
G01X-1087269Y-759681D01*
G01X-1070773Y-772138D01*
G01X-1052269Y-781351D01*
G01X-1032388Y-787008D01*
G01X-1011805Y-788915D01*
G01X-991223Y-787008D01*
G01X-971341Y-781351D01*
G01X-952837Y-772138D01*
G01X-936342Y-759681D01*
G01X-922416Y-744405D01*
G01X-911534Y-726830D01*
G01X-904067Y-707555D01*
G01X-900269Y-687237D01*
G01X-900269Y-666566D01*
G01X-904067Y-646247D01*
G01X-911534Y-626972D01*
G01X-922416Y-609398D01*
G01X-936342Y-594122D01*
G01X-952837Y-581665D01*
G01X-971341Y-572451D01*
G01X-991223Y-566795D01*
G01X-1011805Y-564887D01*
G01X-1011805Y-564887D01*
G01X-1032388Y-566795D01*
G01X-1052269Y-572451D01*
G01X-1070773Y-581665D01*
G01X-1087269Y-594122D01*
G01X-1101194Y-609398D01*
G01X-1112076Y-626972D01*
G01X-1119543Y-646247D01*
G01X-1123341Y-666566D01*
G01X-1318891Y-666566D01*
G01X-1318891Y-412566D01*
G01X-1123341Y-412566D01*
G01X-1123341Y-433237D01*
G01X-1119543Y-453555D01*
G01X-1112076Y-472830D01*
G01X-1101194Y-490405D01*
G01X-1087269Y-505681D01*
G01X-1070773Y-518138D01*
G01X-1052269Y-527351D01*
G01X-1032388Y-533008D01*
G01X-1011805Y-534915D01*
G01X-991223Y-533008D01*
G01X-971341Y-527351D01*
G01X-952837Y-518138D01*
G01X-936342Y-505681D01*
G01X-922416Y-490405D01*
G01X-911534Y-472830D01*
G01X-904067Y-453555D01*
G01X-900269Y-433237D01*
G01X-900269Y-412566D01*
G01X-904067Y-392247D01*
G01X-911534Y-372972D01*
G01X-922416Y-355398D01*
G01X-936342Y-340122D01*
G01X-952837Y-327665D01*
G01X-971341Y-318451D01*
G01X-991223Y-312795D01*
G01X-1011805Y-310887D01*
G01X-1011805Y-310887D01*
G01X-1032388Y-312795D01*
G01X-1052269Y-318451D01*
G01X-1070773Y-327665D01*
G01X-1087269Y-340122D01*
G01X-1101194Y-355398D01*
G01X-1112076Y-372972D01*
G01X-1119543Y-392247D01*
G01X-1123341Y-412566D01*
G01X-1318891Y-412566D01*
G01X-1318891Y-158566D01*
G01X-1123341Y-158566D01*
G01X-1123341Y-179237D01*
G01X-1119543Y-199555D01*
G01X-1112076Y-218830D01*
G01X-1101194Y-236405D01*
G01X-1087269Y-251681D01*
G01X-1070773Y-264138D01*
G01X-1052269Y-273351D01*
G01X-1032388Y-279008D01*
G01X-1011805Y-280915D01*
G01X-991223Y-279008D01*
G01X-971341Y-273351D01*
G01X-952837Y-264138D01*
G01X-936342Y-251681D01*
G01X-922416Y-236405D01*
G01X-911534Y-218830D01*
G01X-904067Y-199555D01*
G01X-900269Y-179237D01*
G01X-900269Y-158566D01*
G01X-904067Y-138247D01*
G01X-911534Y-118972D01*
G01X-922416Y-101398D01*
G01X-936342Y-86122D01*
G01X-952837Y-73665D01*
G01X-971341Y-64451D01*
G01X-991223Y-58795D01*
G01X-1011805Y-56887D01*
G01X-1011805Y-56887D01*
G01X-1032388Y-58795D01*
G01X-1052269Y-64451D01*
G01X-1070773Y-73665D01*
G01X-1087269Y-86122D01*
G01X-1101194Y-101398D01*
G01X-1112076Y-118972D01*
G01X-1119543Y-138247D01*
G01X-1123341Y-158566D01*
G01X-1318891Y-158566D01*
G01X-1318891Y95434D01*
G01X-1123341Y95434D01*
G01X-1123341Y74763D01*
G01X-1119543Y54445D01*
G01X-1112076Y35170D01*
G01X-1101194Y17595D01*
G01X-1087269Y2319D01*
G01X-1070773Y-10138D01*
G01X-1052269Y-19351D01*
G01X-1032388Y-25008D01*
G01X-1011805Y-26915D01*
G01X-991223Y-25008D01*
G01X-971341Y-19351D01*
G01X-952837Y-10138D01*
G01X-936342Y2319D01*
G01X-922416Y17595D01*
G01X-911534Y35170D01*
G01X-904067Y54445D01*
G01X-900269Y74763D01*
G01X-900269Y95434D01*
G01X-904067Y115753D01*
G01X-911534Y135028D01*
G01X-922416Y152602D01*
G01X-936342Y167878D01*
G01X-952837Y180335D01*
G01X-971341Y189549D01*
G01X-991223Y195205D01*
G01X-1011805Y197113D01*
G01X-1011805Y197113D01*
G01X-1032388Y195205D01*
G01X-1052269Y189549D01*
G01X-1070773Y180335D01*
G01X-1087269Y167878D01*
G01X-1101194Y152602D01*
G01X-1112076Y135028D01*
G01X-1119543Y115753D01*
G01X-1123341Y95434D01*
G01X-1318891Y95434D01*
G01X-1318891Y349434D01*
G01X-1123341Y349434D01*
G01X-1123341Y328763D01*
G01X-1119543Y308445D01*
G01X-1112076Y289170D01*
G01X-1101194Y271595D01*
G01X-1087269Y256319D01*
G01X-1070773Y243862D01*
G01X-1052269Y234649D01*
G01X-1032388Y228992D01*
G01X-1011805Y227085D01*
G01X-991223Y228992D01*
G01X-971341Y234649D01*
G01X-952837Y243862D01*
G01X-936342Y256319D01*
G01X-922416Y271595D01*
G01X-911534Y289170D01*
G01X-904067Y308445D01*
G01X-900269Y328763D01*
G01X-900269Y349434D01*
G01X-904067Y369753D01*
G01X-911534Y389028D01*
G01X-922416Y406602D01*
G01X-936342Y421878D01*
G01X-952837Y434335D01*
G01X-971341Y443549D01*
G01X-991223Y449205D01*
G01X-1011805Y451113D01*
G01X-1011805Y451113D01*
G01X-1032388Y449205D01*
G01X-1052269Y443549D01*
G01X-1070773Y434335D01*
G01X-1087269Y421878D01*
G01X-1101194Y406602D01*
G01X-1112076Y389028D01*
G01X-1119543Y369753D01*
G01X-1123341Y349434D01*
G01X-1318891Y349434D01*
G01X-1318891Y603434D01*
G01X-1123341Y603434D01*
G01X-1123341Y582763D01*
G01X-1119543Y562445D01*
G01X-1112076Y543170D01*
G01X-1101194Y525595D01*
G01X-1087269Y510319D01*
G01X-1070773Y497862D01*
G01X-1052269Y488649D01*
G01X-1032388Y482992D01*
G01X-1011805Y481085D01*
G01X-991223Y482992D01*
G01X-971341Y488649D01*
G01X-952837Y497862D01*
G01X-936342Y510319D01*
G01X-922416Y525595D01*
G01X-911534Y543170D01*
G01X-904067Y562445D01*
G01X-900269Y582763D01*
G01X-900269Y603434D01*
G01X-904067Y623753D01*
G01X-911534Y643028D01*
G01X-922416Y660602D01*
G01X-936342Y675878D01*
G01X-952837Y688335D01*
G01X-971341Y697549D01*
G01X-991223Y703205D01*
G01X-1011805Y705113D01*
G01X-1011805Y705113D01*
G01X-1032388Y703205D01*
G01X-1052269Y697549D01*
G01X-1070773Y688335D01*
G01X-1087269Y675878D01*
G01X-1101194Y660602D01*
G01X-1112076Y643028D01*
G01X-1119543Y623753D01*
G01X-1123341Y603434D01*
G01X-1318891Y603434D01*
G01X-1318891Y857434D01*
G01X-1123341Y857434D01*
G01X-1123341Y836763D01*
G01X-1119543Y816445D01*
G01X-1112076Y797170D01*
G01X-1101194Y779595D01*
G01X-1087269Y764319D01*
G01X-1070773Y751862D01*
G01X-1052269Y742649D01*
G01X-1032388Y736992D01*
G01X-1011805Y735085D01*
G01X-991223Y736992D01*
G01X-971341Y742649D01*
G01X-952837Y751862D01*
G01X-936342Y764319D01*
G01X-922416Y779595D01*
G01X-911534Y797170D01*
G01X-904067Y816445D01*
G01X-900269Y836763D01*
G01X-900269Y857434D01*
G01X-904067Y877753D01*
G01X-911534Y897028D01*
G01X-922416Y914602D01*
G01X-936342Y929878D01*
G01X-952837Y942335D01*
G01X-971341Y951549D01*
G01X-991223Y957205D01*
G01X-1011805Y959113D01*
G01X-1011805Y959113D01*
G01X-1032388Y957205D01*
G01X-1052269Y951549D01*
G01X-1070773Y942335D01*
G01X-1087269Y929878D01*
G01X-1101194Y914602D01*
G01X-1112076Y897028D01*
G01X-1119543Y877753D01*
G01X-1123341Y857434D01*
G01X-1318891Y857434D01*
G01X-1318891Y1167841D01*
G37*
G36*
G01X2649672Y-4362187D02*
G01X2392905Y-4362187D01*
G01X2380567Y-4353108D01*
G01X2366474Y-4347102D01*
G01X2351380Y-4344490D01*
G01X2336088Y-4345411D01*
G01X2321417Y-4349816D01*
G01X2308147Y-4357470D01*
G01X2296988Y-4367965D01*
G01X2288535Y-4380741D01*
G01X2283238Y-4395115D01*
G01X2281382Y-4410321D01*
G01X2283064Y-4425547D01*
G01X2288195Y-4439981D01*
G01X2296501Y-4452853D01*
G01X2307539Y-4463475D01*
G01X2294524Y-4479555D01*
G01X2284320Y-4497551D01*
G01X2277203Y-4516975D01*
G01X2273365Y-4537303D01*
G01X2272910Y-4557985D01*
G01X2275850Y-4578462D01*
G01X2282106Y-4598181D01*
G01X2124400Y-4755887D01*
G01X1973209Y-4755887D01*
G01X1973209Y-4719401D01*
G01X1971456Y-4708334D01*
G01X1966369Y-4698351D01*
G01X1958446Y-4690427D01*
G01X1948462Y-4685340D01*
G01X1937395Y-4683587D01*
G01X1800190Y-4683587D01*
G01X1799605Y-4683002D01*
G01X1789557Y-4675292D01*
G01X1777856Y-4670446D01*
G01X1765300Y-4668792D01*
G01X1607083Y-4668792D01*
G01X1607083Y-4550401D01*
G01X1731581Y-4550401D01*
G01X1733416Y-4571380D01*
G01X1738867Y-4591722D01*
G01X1747767Y-4610808D01*
G01X1759846Y-4628059D01*
G01X1774737Y-4642950D01*
G01X1791988Y-4655029D01*
G01X1811074Y-4663929D01*
G01X1831416Y-4669380D01*
G01X1852395Y-4671215D01*
G01X1852395Y-4671215D01*
G01X1873374Y-4669380D01*
G01X1893716Y-4663929D01*
G01X1912802Y-4655029D01*
G01X1930052Y-4642950D01*
G01X1944944Y-4628059D01*
G01X1957023Y-4610808D01*
G01X1965923Y-4591722D01*
G01X1971373Y-4571380D01*
G01X1973209Y-4550401D01*
G01X1971373Y-4529422D01*
G01X1965923Y-4509081D01*
G01X1957023Y-4489994D01*
G01X1944944Y-4472744D01*
G01X1930052Y-4457853D01*
G01X1912802Y-4445773D01*
G01X1893716Y-4436873D01*
G01X1873374Y-4431423D01*
G01X1852395Y-4429587D01*
G01X1831416Y-4431423D01*
G01X1811074Y-4436873D01*
G01X1791988Y-4445773D01*
G01X1774737Y-4457853D01*
G01X1759846Y-4472744D01*
G01X1747767Y-4489994D01*
G01X1738867Y-4509081D01*
G01X1733416Y-4529422D01*
G01X1731581Y-4550401D01*
G01X1607083Y-4550401D01*
G01X1607083Y-4296401D01*
G01X1731581Y-4296401D01*
G01X1733416Y-4317380D01*
G01X1738867Y-4337722D01*
G01X1747767Y-4356808D01*
G01X1759846Y-4374059D01*
G01X1774737Y-4388950D01*
G01X1791988Y-4401029D01*
G01X1811074Y-4409929D01*
G01X1831416Y-4415380D01*
G01X1852395Y-4417215D01*
G01X1852395Y-4417215D01*
G01X1873374Y-4415380D01*
G01X1893716Y-4409929D01*
G01X1912802Y-4401029D01*
G01X1930052Y-4388950D01*
G01X1944944Y-4374059D01*
G01X1957023Y-4356808D01*
G01X1965923Y-4337722D01*
G01X1971373Y-4317380D01*
G01X1973209Y-4296401D01*
G01X1971373Y-4275422D01*
G01X1965923Y-4255081D01*
G01X1957023Y-4235994D01*
G01X1944944Y-4218744D01*
G01X1930052Y-4203853D01*
G01X1912802Y-4191773D01*
G01X1893716Y-4182873D01*
G01X1873374Y-4177423D01*
G01X1852395Y-4175587D01*
G01X1831416Y-4177423D01*
G01X1811074Y-4182873D01*
G01X1791988Y-4191773D01*
G01X1774737Y-4203853D01*
G01X1759846Y-4218744D01*
G01X1747767Y-4235994D01*
G01X1738867Y-4255081D01*
G01X1733416Y-4275422D01*
G01X1731581Y-4296401D01*
G01X1607083Y-4296401D01*
G01X1607083Y-3822717D01*
G01X1616056Y-3810564D01*
G01X1622046Y-3796696D01*
G01X1624742Y-3781833D01*
G01X1624004Y-3766745D01*
G01X1619871Y-3752215D01*
G01X2039700Y-3752215D01*
G01X2649672Y-4362187D01*
G37*
G54D10*
G01X-4436391Y4628899D02*
G02X-4172205Y4893085I264186J0D01*
G01X4227795Y4893085D01*
G02X4491981Y4628899I0J-264186D01*
G01X4491981Y-4771101D01*
G02X4227795Y-5035287I-264186J0D01*
G01X-4172205Y-5035287D01*
G02X-4436391Y-4771101I0J264186D01*
G01X-4436391Y4628899D01*
G01X-3796419Y-4473071D02*
G03X-3824316Y-4570190I86214J-77330D01*
G03X-3765348Y-4652245I114111J19788D01*
G03X-3753207Y-4669603I55143J25643D01*
G01X-3613507Y-4809303D01*
G03X-3570505Y-4827115I43002J43002D01*
G01X420686Y-4827115D01*
G03X463688Y-4809303I0J60814D01*
G01X614084Y-4658907D01*
G03X721753Y-4621298I22501J108505D01*
G01X721753Y-4627504D01*
G03X735962Y-4661808I48514J0D01*
G01X825765Y-4751611D01*
G03X860069Y-4765820I34305J34305D01*
G01X1731581Y-4765820D01*
G01X1731581Y-4889401D01*
G03X1767395Y-4925215I35814J0D01*
G01X1937395Y-4925215D01*
G03X1973209Y-4889401I0J35814D01*
G01X1973209Y-4852915D01*
G01X2144495Y-4852915D01*
G03X2178799Y-4838706I0J48514D01*
G01X2350716Y-4666790D01*
G03X2504089Y-4618804I47779J116388D01*
G03X2485179Y-4459215I-105594J68403D01*
G01X2565810Y-4459215D01*
G03X2564307Y-4640135I86685J-91186D01*
G03X2745173Y-4635489I88188J89733D01*
G01X2821390Y-4711706D01*
G03X2855695Y-4725915I34305J34305D01*
G01X3033495Y-4725915D01*
G03X3067799Y-4711706I0J48514D01*
G01X3112716Y-4666790D01*
G03X3249459Y-4461438I47779J116388D01*
G03X3044106Y-4598181I-88964J-88964D01*
G01X3013400Y-4628887D01*
G01X3004826Y-4628887D01*
G03X3007157Y-4474928I-98331J78486D01*
G03X2858716Y-4434013I-100662J-75473D01*
G01X2126118Y-3701415D01*
G01X2496900Y-3701415D01*
G01X3298106Y-4502622D01*
G03X3503459Y-4639365I116388J-47779D01*
G03X3366716Y-4434013I-88964J88964D01*
G01X2551299Y-3618597D01*
G03X2516995Y-3604387I-34305J-34305D01*
G01X-36014Y-3604387D01*
G01X-44486Y-3595915D01*
G01X79695Y-3595915D01*
G03X115509Y-3560101I0J35814D01*
G01X115509Y-3422897D01*
G01X370390Y-3168015D01*
G01X3166896Y-3168015D01*
G03X3201201Y-3153806I0J48514D01*
G01X3292092Y-3062915D01*
G01X3409296Y-3062915D01*
G03X3445110Y-3027101I0J35814D01*
G01X3445110Y-2907101D01*
G03X3409296Y-2871287I-35814J0D01*
G01X3229297Y-2871287D01*
G03X3193483Y-2907101I0J-35814D01*
G01X3193483Y-3024306D01*
G01X3146801Y-3070987D01*
G01X1937831Y-3070987D01*
G01X1945904Y-3062915D01*
G01X2063108Y-3062915D01*
G03X2098922Y-3027101I0J35814D01*
G01X2098922Y-2907101D01*
G03X2063108Y-2871287I-35814J0D01*
G01X1883109Y-2871287D01*
G03X1847295Y-2907101I0J-35814D01*
G01X1847295Y-3008390D01*
G01X1552721Y-3008390D01*
G01X1552721Y-2907101D01*
G03X1516907Y-2871287I-35814J0D01*
G01X1336907Y-2871287D01*
G03X1301093Y-2907101I0J-35814D01*
G01X1301093Y-3008390D01*
G01X752722Y-3008390D01*
G01X752722Y-2907101D01*
G03X716908Y-2871287I-35814J0D01*
G01X536909Y-2871287D01*
G03X501095Y-2907101I0J-35814D01*
G01X501095Y-2918587D01*
G01X105340Y-2918587D01*
G03X-126119Y-2967101I-110645J-48514D01*
G03X105340Y-3015615I120814J0D01*
G01X133419Y-3015615D01*
G03X124588Y-3022599I25473J-41288D01*
G01X38628Y-3108559D01*
G03X-83795Y-3129257I-43933J-112543D01*
G01X-83795Y-3094101D01*
G03X-98005Y-3059797I-48514J0D01*
G01X-146767Y-3011035D01*
G03X-173881Y-2881673I-112543J43933D01*
G03X-303243Y-2854559I-85428J-85428D01*
G01X-308891Y-2848910D01*
G01X-308891Y-1778065D01*
G03X-114591Y-1692901I78486J85163D01*
G03X-308891Y-1607738I-115814J0D01*
G01X-308891Y-1524065D01*
G03X-114591Y-1438901I78486J85163D01*
G03X-308891Y-1353738I-115814J0D01*
G01X-308891Y-1270065D01*
G03X-114591Y-1184901I78486J85163D01*
G03X-308891Y-1099738I-115814J0D01*
G01X-308891Y-1077996D01*
G01X-270462Y-1039567D01*
G03X-148512Y-849009I40057J108666D01*
G03X-339071Y-970958I-81893J-81893D01*
G01X-359691Y-991578D01*
G01X-359691Y-874796D01*
G01X-270462Y-785567D01*
G03X-148512Y-595009I40057J108666D01*
G03X-339071Y-716958I-81893J-81893D01*
G01X-410491Y-788378D01*
G01X-410491Y-671596D01*
G01X-270462Y-531567D01*
G03X-148512Y-341009I40057J108666D01*
G03X-339071Y-462958I-81893J-81893D01*
G01X-473991Y-597878D01*
G01X-473991Y547604D01*
G01X-456719Y564876D01*
G01X-456719Y491499D01*
G03X-442510Y457194I48514J0D01*
G01X-344469Y359154D01*
G03X-195449Y228686I114064J-20055D01*
G03X-148665Y421144I-34956J110413D01*
G03X-132601Y431794I-18240J44955D01*
G01X122598Y686992D01*
G01X289885Y686992D01*
G03X287522Y671635I63910J-17694D01*
G01X-190348Y193765D01*
G03X-312298Y3206I-40057J-108666D01*
G03X-121739Y125156I81893J81893D01*
G01X356131Y603026D01*
G03X407271Y630084I-2336J66273D01*
G03X417705Y686992I-53477J39215D01*
G01X1092976Y686992D01*
G03X1115298Y679184I22323J28006D01*
G01X1195946Y679184D01*
G03X1230958Y707465I0J35814D01*
G03X1265971Y679184I35013J7534D01*
G01X1346619Y679184D01*
G03X1382433Y714998I0J35814D01*
G01X1382433Y801399D01*
G03X1354809Y836264I-35814J0D01*
G01X1354809Y1135636D01*
G03X1306295Y1356613I-48514J105163D01*
G03X1257781Y1135636I0J-115814D01*
G01X1257781Y836264D01*
G03X1230958Y808933I8190J-34865D01*
G03X1195946Y837213I-35013J-7534D01*
G01X1115298Y837213D01*
G03X1079484Y801399I0J-35814D01*
G01X1079484Y784020D01*
G01X102502Y784020D01*
G03X68198Y769811I0J-48514D01*
G01X-114760Y586853D01*
G03X-153184Y679411I-115645J6246D01*
G03X-145301Y685794I-26421J40688D01*
G01X34305Y865399D01*
G03X48514Y899704I-34305J34305D01*
G01X48514Y1260609D01*
G01X889531Y2101626D01*
G03X951359Y2151152I-2336J66273D01*
G01X2336784Y765727D01*
G01X2336784Y714998D01*
G03X2372598Y679184I35814J0D01*
G01X2443371Y679184D01*
G01X2443371Y169508D01*
G03X2446746Y151731I48514J0D01*
G03X2618133Y20910I104149J-41232D01*
G03X2540399Y222020I-67238J89589D01*
G01X2540399Y679184D01*
G01X2603919Y679184D01*
G03X2639733Y714998I0J35814D01*
G01X2639733Y801399D01*
G03X2612109Y836264I-35814J0D01*
G01X2612109Y1141167D01*
G03X2627095Y1155812I-48514J64632D01*
G03X2756381Y1158862I63500J49986D01*
G01X2756381Y211462D01*
G03X2804895Y-1515I48514J-100963D01*
G03X2853409Y211462I0J112014D01*
G01X2853409Y3348999D01*
G03X2839199Y3383303I-48514J0D01*
G01X2656591Y3565912D01*
G03X2591089Y3707553I-105696J37087D01*
G03X2583311Y3749778I-65594J9746D01*
G03X2601612Y3956873I-32416J107221D01*
G03X2445199Y3819912I-50717J-99875D01*
G01X1171900Y2546613D01*
G01X-145242Y2546613D01*
G03X-145242Y2703585I-85163J78486D01*
G01X587995Y2703585D01*
G03X622300Y2717794I0J48514D01*
G01X1198608Y3294102D01*
G03X1325523Y3332880I37087J105696D01*
G03X1326356Y3465585I-89828J66918D01*
G01X1355300Y3465585D01*
G01X1383999Y3436886D01*
G03X1568901Y3320593I105696J-37087D01*
G03X1452608Y3505495I-79206J79206D01*
G01X1409700Y3548403D01*
G03X1375395Y3562613I-34305J-34305D01*
G01X1191995Y3562613D01*
G03X1157690Y3548403I0J-48514D01*
G01X1081490Y3472203D01*
G03X1074231Y3462920I34305J-34305D01*
G03X884621Y3455689I-92536J-63121D01*
G03X973567Y3288080I97074J-55890D01*
G01X740100Y3054613D01*
G01X-114591Y3054613D01*
G01X-114591Y3213099D01*
G03X-150405Y3248913I-35814J0D01*
G01X-310405Y3248913D01*
G03X-346219Y3213099I0J-35814D01*
G01X-346219Y3054613D01*
G01X-931886Y3054613D01*
G03X-913048Y3185959I-79919J78486D01*
G03X-1032791Y3243129I-98757J-52860D01*
G01X-1032791Y3748289D01*
G03X-1045074Y3849040I-48514J45210D01*
G03X-1029986Y3964947I-23531J61999D01*
G03X-1134878Y3913375I-38619J-53908D01*
G01X-1204510Y3843744D01*
G03X-1218719Y3809439I34305J-34305D01*
G01X-1218719Y3629497D01*
G03X-1299978Y3567235I-14986J-64599D01*
G01X-1987397Y2879816D01*
G03X-2001606Y2845512I34305J-34305D01*
G01X-2001606Y2205881D01*
G03X-2087378Y2144835I-19499J-63383D01*
G01X-2320600Y1911613D01*
G01X-2440842Y1911613D01*
G03X-2642768Y1911613I-100963J-48514D01*
G01X-3211342Y1911613D01*
G03X-3432319Y1863099I-105163J-48514D01*
G03X-3211342Y1814585I115814J0D01*
G01X-2642768Y1814585D01*
G03X-2440842Y1814585I100963J48514D01*
G01X-2300505Y1814585D01*
G03X-2266201Y1828794I0J48514D01*
G01X-2018769Y2076226D01*
G03X-2001606Y2079116I-2336J66273D01*
G01X-2001606Y1595607D01*
G01X-2404441Y1192772D01*
G03X-2452857Y1169182I2336J-66273D01*
G03X-2615229Y1185693I-88949J-68083D01*
G03X-2621724Y1022613I73423J-84594D01*
G01X-3231342Y1022613D01*
G03X-3293982Y1214701I-85163J78486D01*
G03X-3425171Y1061042I-22523J-113603D01*
G01X-3447596Y1038617D01*
G01X-3447596Y1409398D01*
G01X-3356562Y1500433D01*
G03X-3234612Y1690991I40057J108666D01*
G03X-3425171Y1569042I-81893J-81893D01*
G01X-3530415Y1463798D01*
G03X-3544624Y1429494I34305J-34305D01*
G01X-3544624Y887979D01*
G03X-3551608Y896811I-41288J-25473D01*
G01X-3580432Y925635D01*
G03X-3674791Y983371I-66273J-2336D01*
G01X-3674791Y2104596D01*
G01X-3430223Y2349164D01*
G03X-3264922Y2267407I113718J21934D01*
G03X-3230413Y2448564I-51584J103692D01*
G03X-3222691Y2455097I-35280J49534D01*
G01X-3108403Y2569384D01*
G03X-3090591Y2612386I-43002J43002D01*
G01X-3090591Y3831586D01*
G03X-3108403Y3874588I-60814J0D01*
G01X-3572109Y4338294D01*
G03X-3766698Y4446879I-112696J26692D01*
G03X-3658113Y4252290I81893J-81893D01*
G01X-3212219Y3806396D01*
G01X-3212219Y3239420D01*
G03X-3236505Y3248913I-24286J-26322D01*
G01X-3396505Y3248913D01*
G03X-3432319Y3213099I0J-35814D01*
G01X-3432319Y3181613D01*
G01X-3838527Y3181613D01*
G03X-3873945Y3212113I-35418J-5314D01*
G01X-3954593Y3212113D01*
G03X-3989605Y3183833I0J-35814D01*
G03X-4024618Y3212113I-35013J-7534D01*
G01X-4105265Y3212113D01*
G03X-4141079Y3176299I0J-35814D01*
G01X-4141079Y3089898D01*
G03X-4113456Y3055033I35814J0D01*
G01X-4113456Y2957164D01*
G03X-4141079Y2922299I8190J-34865D01*
G01X-4141079Y2871570D01*
G01X-4163610Y2849040D01*
G03X-4177819Y2814735I34305J-34305D01*
G01X-4177819Y1659899D01*
G03X-4163610Y1625594I48514J0D01*
G01X-4087410Y1549394D01*
G03X-4084888Y1547046I34305J34305D01*
G03X-4073713Y1354861I69883J-92354D01*
G03X-3900327Y1438512I58707J99831D01*
G01X-3873019Y1411204D01*
G01X-3873019Y1070109D01*
G03X-3878128Y985884I48514J-45210D01*
G03X-3796419Y964826I53623J39014D01*
G01X-3796419Y-4473071D01*
G01X-4015005Y1088891D02*
G03X-4015005Y1320519I0J115814D01*
G03X-4015005Y1088891I0J-115814D01*
G01X-3899191Y1030893D02*
G03X-3935005Y1066707I-35814J0D01*
G01X-4095005Y1066707D01*
G03X-4130819Y1030893I0J-35814D01*
G01X-4130819Y878493D01*
G03X-4095005Y842679I35814J0D01*
G01X-3935005Y842679D01*
G03X-3899191Y878493I0J35814D01*
G01X-3899191Y1030893D01*
G01X-3884205Y-4666190D02*
G03X-3848391Y-4630376I0J35814D01*
G01X-3848391Y-4470376D01*
G03X-3884205Y-4434562I-35814J0D01*
G01X-4044205Y-4434562D01*
G03X-4080019Y-4470376I0J-35814D01*
G01X-4080019Y-4630376D01*
G03X-4044205Y-4666190I35814J0D01*
G01X-3884205Y-4666190D01*
G01X-3858805Y4249198D02*
G03X-3822991Y4285012I0J35814D01*
G01X-3822991Y4445011D01*
G03X-3858805Y4480825I-35814J0D01*
G01X-4018805Y4480825D01*
G03X-4054619Y4445011I0J-35814D01*
G01X-4054619Y4285012D01*
G03X-4018805Y4249198I35814J0D01*
G01X-3858805Y4249198D01*
G01X-3546619Y4364986D02*
G03X-3314991Y4364986I115814J0D01*
G03X-3546619Y4364986I-115814J0D01*
G01X-3316505Y1470913D02*
G03X-3316505Y1239285I0J-115814D01*
G03X-3316505Y1470913I0J115814D01*
G01X-3316505Y2232913D02*
G03X-3316505Y2001285I0J-115814D01*
G03X-3316505Y2232913I0J115814D01*
G01X-2381119Y4013846D02*
G01X-2381119Y2517909D01*
G03X-2332605Y2406385I48514J-45210D01*
G03X-2284091Y2517909I0J66314D01*
G01X-2284091Y4033941D01*
G03X-2298301Y4068246I-48514J0D01*
G01X-2547861Y4317807D01*
G01X-2547861Y4445011D01*
G03X-2583675Y4480825I-35814J0D01*
G01X-2743675Y4480825D01*
G03X-2779489Y4445011I0J-35814D01*
G01X-2779489Y4285012D01*
G03X-2743675Y4249198I35814J0D01*
G01X-2616470Y4249198D01*
G01X-2381119Y4013846D01*
G01X-2541805Y1467113D02*
G03X-2541805Y1243085I0J-112014D01*
G03X-2541805Y1467113I0J112014D01*
G01X-2541805Y1721113D02*
G03X-2541805Y1497085I0J-112014D01*
G03X-2541805Y1721113I0J112014D01*
G01X-2541805Y2483113D02*
G03X-2541805Y2259085I0J-112014D01*
G03X-2541805Y2483113I0J112014D01*
G01X-2541805Y3245113D02*
G03X-2541805Y3021085I0J-112014D01*
G03X-2541805Y3245113I0J112014D01*
G01X-2541805Y2991113D02*
G03X-2541805Y2767085I0J-112014D01*
G03X-2541805Y2991113I0J112014D01*
G01X-2541805Y2737113D02*
G03X-2541805Y2513085I0J-112014D01*
G03X-2541805Y2737113I0J112014D01*
G01X-2541805Y2229113D02*
G03X-2541805Y2005085I0J-112014D01*
G03X-2541805Y2229113I0J112014D01*
G01X-2525489Y4364986D02*
G03X-2293861Y4364986I115814J0D01*
G03X-2525489Y4364986I-115814J0D01*
G01X-2271489Y4364986D02*
G03X-2039861Y4364986I115814J0D01*
G03X-2271489Y4364986I-115814J0D01*
G01X-97595Y3872385D02*
G01X-57905Y3832695D01*
G03X50686Y3810108I61700J24304D01*
G03X28099Y3918698I-46891J46891D01*
G01X-29403Y3976201D01*
G03X-72405Y3994013I-43002J-43002D01*
G01X-182291Y3994013D01*
G01X-182291Y4428499D01*
G03X-200103Y4471501I-60814J0D01*
G01X-428703Y4700101D01*
G03X-471705Y4717913I-43002J-43002D01*
G01X-1072557Y4717913D01*
G03X-1115559Y4700101I0J-60814D01*
G01X-1355433Y4460226D01*
G01X-1461443Y4460226D01*
G03X-1497257Y4424412I0J-35814D01*
G01X-1497257Y4264412D01*
G03X-1461443Y4228598I35814J0D01*
G01X-1309043Y4228598D01*
G03X-1273229Y4264412I0J35814D01*
G01X-1273229Y4370422D01*
G01X-1047367Y4596285D01*
G01X-496895Y4596285D01*
G01X-303919Y4403309D01*
G01X-303919Y3933199D01*
G03X-243105Y3872385I60814J0D01*
G01X-97595Y3872385D01*
G01X-1251045Y4344412D02*
G03X-1019417Y4344412I115814J0D01*
G03X-1251045Y4344412I-115814J0D01*
G01X-1001058Y4344412D02*
G03X-769431Y4344412I115814J0D01*
G03X-1001058Y4344412I-115814J0D01*
G01X-751046Y4344412D02*
G03X-519418Y4344412I115814J0D01*
G03X-751046Y4344412I-115814J0D01*
G01X-230405Y-53087D02*
G03X-230405Y-284715I0J-115814D01*
G03X-230405Y-53087I0J115814D01*
G01X-619Y4450012D02*
G03X251009Y4450012I125814J0D01*
G03X-619Y4450012I-125814J0D01*
G01X1366305Y4086923D02*
G03X1332001Y4072714I0J-48514D01*
G01X1004759Y3745472D01*
G03X980652Y3740013I2336J-66273D01*
G01X422685Y3740013D01*
G01X281395Y3881303D01*
G03X172804Y3903890I-61700J-24304D01*
G03X195391Y3795299I46891J-46891D01*
G01X351877Y3638813D01*
G01X284705Y3638813D01*
G03X173181Y3590299I-45210J-48514D01*
G03X284705Y3541785I66314J0D01*
G01X1001495Y3541785D01*
G03X1035799Y3555994I0J48514D01*
G01X1427990Y3948185D01*
G01X2226285Y3948185D01*
G03X2323934Y3956107I45210J48514D01*
G03X2307130Y4052625I-52439J40592D01*
G01X2513808Y4259302D01*
G03X2630101Y4444205I37087J105696D01*
G03X2445199Y4327912I-79206J-79206D01*
G01X2204210Y4086923D01*
G01X1366305Y4086923D01*
G01X253381Y4450012D02*
G03X505009Y4450012I125814J0D01*
G03X253381Y4450012I-125814J0D01*
G01X585709Y3399799D02*
G03X361681Y3399799I-112014J0D01*
G03X585709Y3399799I112014J0D01*
G01X501095Y-3477087D02*
G03X536909Y-3512901I35814J0D01*
G01X716908Y-3512901D01*
G03X752722Y-3477087I0J35814D01*
G01X752722Y-3357088D01*
G03X716908Y-3321274I-35814J0D01*
G01X536909Y-3321274D01*
G03X501095Y-3357088I0J-35814D01*
G01X501095Y-3477087D01*
G01X507381Y4450012D02*
G03X759009Y4450012I125814J0D01*
G03X507381Y4450012I-125814J0D01*
G01X839709Y3399799D02*
G03X615681Y3399799I-112014J0D01*
G03X839709Y3399799I112014J0D01*
G01X761381Y4450012D02*
G03X1013009Y4450012I125814J0D01*
G03X761381Y4450012I-125814J0D01*
G01X1015381Y4450012D02*
G03X1267009Y4450012I125814J0D01*
G03X1015381Y4450012I-125814J0D01*
G01X1269381Y4450012D02*
G03X1521009Y4450012I125814J0D01*
G03X1269381Y4450012I-125814J0D01*
G01X1667200Y-450587D02*
G01X1406550Y-450587D01*
G03X1290135Y-435578I-62155J-23114D01*
G03X1343719Y-540012I54260J-38124D01*
G03X1369795Y-547615I26075J40911D01*
G01X1687295Y-547615D01*
G03X1721599Y-533406I0J48514D01*
G01X2259808Y4802D01*
G03X2376101Y189705I37087J105696D01*
G03X2191199Y73412I-79206J-79206D01*
G01X1667200Y-450587D01*
G01X1301093Y-3477087D02*
G03X1336907Y-3512901I35814J0D01*
G01X1516907Y-3512901D01*
G03X1552721Y-3477087I0J35814D01*
G01X1552721Y-3357088D01*
G03X1516907Y-3321274I-35814J0D01*
G01X1336907Y-3321274D01*
G03X1301093Y-3357088I0J-35814D01*
G01X1301093Y-3477087D01*
G01X1480295Y1356613D02*
G03X1444481Y1320799I0J-35814D01*
G01X1444481Y1160799D01*
G03X1480295Y1124985I35814J0D01*
G01X1640295Y1124985D01*
G03X1676109Y1160799I0J35814D01*
G01X1676109Y1320799D01*
G03X1640295Y1356613I-35814J0D01*
G01X1480295Y1356613D01*
G01X1523381Y4450012D02*
G03X1775009Y4450012I125814J0D01*
G03X1523381Y4450012I-125814J0D01*
G01X1855709Y3399799D02*
G03X1631681Y3399799I-112014J0D01*
G03X1855709Y3399799I112014J0D01*
G01X1847295Y-3477087D02*
G03X1883109Y-3512901I35814J0D01*
G01X2063108Y-3512901D01*
G03X2098922Y-3477087I0J35814D01*
G01X2098922Y-3357088D01*
G03X2063108Y-3321274I-35814J0D01*
G01X1883109Y-3321274D01*
G03X1847295Y-3357088I0J-35814D01*
G01X1847295Y-3477087D01*
G01X1930881Y110499D02*
G03X2154909Y110499I112014J0D01*
G03X1930881Y110499I-112014J0D01*
G01X2550895Y4223013D02*
G03X2550895Y3998985I0J-112014D01*
G03X2550895Y4223013I0J112014D01*
G01X2647293Y-3027101D02*
G03X2683107Y-3062915I35814J0D01*
G01X2863107Y-3062915D01*
G03X2898921Y-3027101I0J35814D01*
G01X2898921Y-2907101D01*
G03X2863107Y-2871287I-35814J0D01*
G01X2683107Y-2871287D01*
G03X2647293Y-2907101I0J-35814D01*
G01X2647293Y-3027101D01*
G01X2647293Y-3477087D02*
G03X2683107Y-3512901I35814J0D01*
G01X2863107Y-3512901D01*
G03X2898921Y-3477087I0J35814D01*
G01X2898921Y-3357088D01*
G03X2863107Y-3321274I-35814J0D01*
G01X2683107Y-3321274D01*
G03X2647293Y-3357088I0J-35814D01*
G01X2647293Y-3477087D01*
G01X3193483Y-3477087D02*
G03X3229297Y-3512901I35814J0D01*
G01X3409296Y-3512901D01*
G03X3445110Y-3477087I0J35814D01*
G01X3445110Y-3357088D01*
G03X3409296Y-3321274I-35814J0D01*
G01X3229297Y-3321274D01*
G03X3193483Y-3357088I0J-35814D01*
G01X3193483Y-3477087D01*
G01X3213484Y1240799D02*
G03X3465112Y1240799I125814J0D01*
G03X3213484Y1240799I-125814J0D01*
G01X3542681Y-4550401D02*
G03X3794309Y-4550401I125814J0D01*
G03X3542681Y-4550401I-125814J0D01*
G01X3833595Y4117185D02*
G03X3833595Y4358813I0J120814D01*
G03X3833595Y4117185I0J-120814D01*
G01X3833595Y3863185D02*
G03X3833595Y4104813I0J120814D01*
G03X3833595Y3863185I0J-120814D01*
G01X3833595Y3609185D02*
G03X3833595Y3850813I0J120814D01*
G03X3833595Y3609185I0J-120814D01*
G01X3954409Y3560999D02*
G03X3918595Y3596813I-35814J0D01*
G01X3748595Y3596813D01*
G03X3712781Y3560999I0J-35814D01*
G01X3712781Y3390999D01*
G03X3748595Y3355185I35814J0D01*
G01X3918595Y3355185D01*
G03X3954409Y3390999I0J35814D01*
G01X3954409Y3560999D01*
G01X3796681Y-4550401D02*
G03X4048309Y-4550401I125814J0D01*
G03X3796681Y-4550401I-125814J0D01*
G01X4087595Y4117185D02*
G03X4087595Y4358813I0J120814D01*
G03X4087595Y4117185I0J-120814D01*
G01X4087595Y3863185D02*
G03X4087595Y4104813I0J120814D01*
G03X4087595Y3863185I0J-120814D01*
G01X4087595Y3609185D02*
G03X4087595Y3850813I0J120814D01*
G03X4087595Y3609185I0J-120814D01*
G01X4208409Y3560999D02*
G03X4172595Y3596813I-35814J0D01*
G01X4002595Y3596813D01*
G03X3966781Y3560999I0J-35814D01*
G01X3966781Y3390999D01*
G03X4002595Y3355185I35814J0D01*
G01X4172595Y3355185D01*
G03X4208409Y3390999I0J35814D01*
G01X4208409Y3560999D01*
G01X3973478Y1240799D02*
G03X4225105Y1240799I125814J0D01*
G03X3973478Y1240799I-125814J0D01*
G01X3993481Y-3027101D02*
G03X4029295Y-3062915I35814J0D01*
G01X4209295Y-3062915D01*
G03X4245109Y-3027101I0J35814D01*
G01X4245109Y-2907101D01*
G03X4209295Y-2871287I-35814J0D01*
G01X4029295Y-2871287D01*
G03X3993481Y-2907101I0J-35814D01*
G01X3993481Y-3027101D01*
G01X3993481Y-3477087D02*
G03X4029295Y-3512901I35814J0D01*
G01X4209295Y-3512901D01*
G03X4245109Y-3477087I0J35814D01*
G01X4245109Y-3357088D01*
G03X4209295Y-3321274I-35814J0D01*
G01X4029295Y-3321274D01*
G03X3993481Y-3357088I0J-35814D01*
G01X3993481Y-3477087D01*
G01X-3940573Y1615976D02*
G03X-3922882Y1774891I-74432J88728D01*
G03X-4080791Y1800020I-92123J-70186D01*
G01X-4080791Y2794640D01*
G01X-4075347Y2800084D01*
G01X-4024618Y2800084D01*
G03X-3989605Y2828365I0J35814D01*
G03X-3954593Y2800084I35013J7534D01*
G01X-3873945Y2800084D01*
G03X-3838527Y2830585I0J35814D01*
G01X-3421668Y2830585D01*
G03X-3212219Y2828727I105163J48514D01*
G01X-3212219Y2675470D01*
G03X-3381074Y2721243I-104286J-50371D01*
G03X-3402588Y2547622I64569J-96144D01*
G03X-3410294Y2541101I35295J-49523D01*
G01X-3778607Y2172788D01*
G03X-3796419Y2129786I43002J-43002D01*
G01X-3796419Y1471822D01*
G01X-3940573Y1615976D01*
G01X-4016428Y3055033D02*
G03X-3989605Y3082365I-8190J34865D01*
G03X-3954593Y3054084I35013J7534D01*
G01X-3873945Y3054084D01*
G03X-3838527Y3084585I0J35814D01*
G01X-3432319Y3084585D01*
G01X-3432319Y3053099D01*
G03X-3396505Y3017285I35814J0D01*
G01X-3236505Y3017285D01*
G03X-3212219Y3026777I0J35814D01*
G01X-3212219Y2929470D01*
G03X-3421668Y2927613I-104286J-50371D01*
G01X-3838527Y2927613D01*
G03X-3873945Y2958113I-35418J-5314D01*
G01X-3954593Y2958113D01*
G03X-3989605Y2929833I0J-35814D01*
G03X-4016428Y2957164I-35013J-7534D01*
G01X-4016428Y3055033D01*
G01X-3648341Y357368D02*
G01X-3647329Y356356D01*
G01X-3647329Y-2900149D01*
G03X-3633120Y-2934454I48514J0D01*
G01X-3403708Y-3163865D01*
G01X-3403708Y-3436398D01*
G03X-3367894Y-3472212I35814J0D01*
G01X-3120895Y-3472212D01*
G03X-3085081Y-3436398I0J35814D01*
G01X-3085081Y-3307873D01*
G01X-2836644Y-3307873D01*
G03X-2800916Y-3341213I35728J2474D01*
G01X-2661211Y-3341213D01*
G01X-2636917Y-3365506D01*
G03X-2602613Y-3379715I34305J34305D01*
G01X-2192149Y-3379715D01*
G03X-2165022Y-3410988I35641J3514D01*
G01X-2165022Y-3446487D01*
G01X-2188536Y-3446487D01*
G03X-2224350Y-3482301I0J-35814D01*
G01X-2224350Y-3611902D01*
G03X-2188536Y-3647716I35814J0D01*
G01X-2081530Y-3647716D01*
G01X-1533432Y-4195814D01*
G01X-1533432Y-4473686D01*
G03X-1723849Y-4559347I-79965J-76715D01*
G03X-1522128Y-4613248I110452J8946D01*
G03X-1519222Y-4616424I37210J31129D01*
G01X-1436640Y-4699006D01*
G03X-1428606Y-4705487I34305J34305D01*
G01X-1951439Y-4705487D01*
G03X-1943405Y-4699006I-26270J40786D01*
G01X-1899554Y-4655155D01*
G03X-1785052Y-4472044I36144J104754D01*
G03X-1968163Y-4586546I-78357J-78357D01*
G01X-1997804Y-4616187D01*
G01X-2024223Y-4616187D01*
G03X-2113396Y-4439587I-89173J65786D01*
G03X-2202570Y-4616187I0J-110814D01*
G01X-2274235Y-4616187D01*
G03X-2363408Y-4439587I-89173J65786D01*
G03X-2452582Y-4616187I0J-110814D01*
G01X-3360890Y-4616187D01*
G03X-3374312Y-4468509I-95316J65786D01*
G03X-3521991Y-4455086I-81893J-81893D01*
G01X-3521991Y-4100311D01*
G03X-3570505Y-3988787I-48514J45210D01*
G03X-3619019Y-4100311I0J-66314D01*
G01X-3619019Y-4479001D01*
G03X-3674791Y-4440135I-91186J-71400D01*
G01X-3674791Y363901D01*
G03X-3648341Y357368I28786J59740D01*
G01X-3022119Y-4042401D02*
G03X-2798091Y-4042401I112014J0D01*
G03X-3022119Y-4042401I-112014J0D01*
G01X-2836730Y-3535396D02*
G03X-2800916Y-3571210I35814J0D01*
G01X-2553916Y-3571210D01*
G03X-2518102Y-3535396I0J35814D01*
G01X-2518102Y-3437395D01*
G03X-2553916Y-3401581I-35814J0D01*
G01X-2800916Y-3401581D01*
G03X-2836730Y-3437395I0J-35814D01*
G01X-2836730Y-3535396D01*
G01X-3544624Y371609D02*
G01X-3544624Y-1259296D01*
G03X-3530415Y-1293601I48514J0D01*
G01X-3425171Y-1398844D01*
G03X-3398398Y-1520794I108666J-40057D01*
G03X-3276448Y-1547567I81893J81893D01*
G01X-3238019Y-1585996D01*
G01X-3238019Y-1607738D01*
G03X-3432319Y-1692901I-78486J-85163D01*
G03X-3238019Y-1778065I115814J0D01*
G01X-3238019Y-2734301D01*
G03X-3223810Y-2768606I48514J0D01*
G01X-2849378Y-3143038D01*
G03X-2830448Y-3187137I66273J2336D01*
G03X-2836730Y-3207398I29532J-20261D01*
G01X-2836730Y-3210845D01*
G01X-3085081Y-3210845D01*
G01X-3085081Y-3076399D01*
G03X-3120895Y-3040585I-35814J0D01*
G01X-3367894Y-3040585D01*
G03X-3385272Y-3045083I0J-35814D01*
G01X-3550301Y-2880054D01*
G01X-3550301Y376451D01*
G01X-3550308Y377293D01*
G01X-3544624Y371609D01*
G01X-3394991Y-762065D02*
G03X-3200691Y-676901I78486J85163D01*
G03X-3394991Y-591738I-115814J0D01*
G01X-3394991Y-508065D01*
G03X-3276448Y-531567I78486J85163D01*
G01X-3185414Y-622602D01*
G01X-3185414Y-754906D01*
G03X-3171205Y-789211I48514J0D01*
G01X-2632389Y-1328026D01*
G03X-2598398Y-1342235I34305J34305D01*
G03X-2603734Y-1532239I56593J-96667D01*
G03X-2430743Y-1453473I61929J93338D01*
G01X-1757178Y-2127038D01*
G03X-1672373Y-2188373I66273J2336D01*
G01X-1672373Y-2521947D01*
G03X-1658164Y-2556252I48514J0D01*
G01X-1579378Y-2635038D01*
G03X-1492119Y-2695607I66273J2336D01*
G01X-1492119Y-2790406D01*
G01X-1598341Y-2896628D01*
G03X-1616991Y-2899995I2336J-66273D01*
G01X-1616991Y-2734301D01*
G03X-1631201Y-2699997I-48514J0D01*
G01X-2527234Y-1803964D01*
G03X-2462599Y-1613695I-14571J111062D01*
G03X-2652867Y-1678330I-79206J-79206D01*
G01X-3127389Y-1203809D01*
G01X-3127389Y-1147704D01*
G03X-3141598Y-1113399I-48514J0D01*
G01X-3231401Y-1023597D01*
G03X-3239284Y-1017213I-34305J-34305D01*
G03X-3230765Y-853046I-77221J86312D01*
G03X-3394991Y-845738I-85740J-77856D01*
G01X-3394991Y-762065D01*
G01X-3052491Y-1415924D02*
G01X-1714019Y-2754396D01*
G01X-1714019Y-2925787D01*
G01X-1851274Y-2925787D01*
G03X-1887088Y-2961601I0J-35814D01*
G01X-1887088Y-3091202D01*
G03X-1851274Y-3127016I35814J0D01*
G01X-1701275Y-3127016D01*
G03X-1665461Y-3091202I0J35814D01*
G01X-1665461Y-3056955D01*
G01X-1528578Y-3193838D01*
G03X-1526657Y-3207515I66273J2336D01*
G01X-1863813Y-3207515D01*
G01X-2002722Y-3068606D01*
G01X-2002722Y-2961601D01*
G03X-2038536Y-2925787I-35814J0D01*
G01X-2188536Y-2925787D01*
G03X-2224350Y-2961601I0J-35814D01*
G01X-2224350Y-2977887D01*
G01X-2518102Y-2977887D01*
G01X-2518102Y-2977401D01*
G03X-2553916Y-2941587I-35814J0D01*
G01X-2676226Y-2941587D01*
G01X-3052491Y-2565322D01*
G01X-3052491Y-1415924D01*
G01X-1958159Y-3250387D02*
G01X-2016503Y-3250387D01*
G03X-2046505Y-3266644I0J-35814D01*
G03X-2076508Y-3250387I-30002J-19557D01*
G01X-2156507Y-3250387D01*
G03X-2192149Y-3282687I0J-35814D01*
G01X-2518102Y-3282687D01*
G01X-2518102Y-3207398D01*
G03X-2553916Y-3171584I-35814J0D01*
G01X-2724421Y-3171584D01*
G03X-2723707Y-3111216I-58684J30883D01*
G01X-2553916Y-3111216D01*
G03X-2518102Y-3075402I0J35814D01*
G01X-2518102Y-3074915D01*
G01X-2224350Y-3074915D01*
G01X-2224350Y-3091202D01*
G03X-2188536Y-3127016I35814J0D01*
G01X-2081530Y-3127016D01*
G01X-1958159Y-3250387D01*
G01X-2002722Y-3482301D02*
G03X-2038536Y-3446487I-35814J0D01*
G01X-2067994Y-3446487D01*
G01X-2067994Y-3410988D01*
G03X-2046505Y-3395759I-8514J34787D01*
G03X-2016503Y-3412015I30002J19557D01*
G01X-1936503Y-3412015D01*
G03X-1900689Y-3376201I0J35814D01*
G01X-1900689Y-3301549D01*
G03X-1883908Y-3304543I16781J45519D01*
G01X-1370520Y-3304543D01*
G01X-1370520Y-3306029D01*
G03X-1334706Y-3341843I35814J0D01*
G01X-1219119Y-3341843D01*
G01X-1219119Y-3470844D01*
G03X-1229005Y-3469453I-9886J-34423D01*
G01X-1315406Y-3469453D01*
G03X-1351220Y-3505267I0J-35814D01*
G01X-1351220Y-3585914D01*
G03X-1322939Y-3620927I35814J0D01*
G03X-1351220Y-3655940I7534J-35013D01*
G01X-1351220Y-3736587D01*
G03X-1315406Y-3772401I35814J0D01*
G01X-1229005Y-3772401D01*
G03X-1193191Y-3736587I0J35814D01*
G01X-1193191Y-3685858D01*
G01X-1161919Y-3654586D01*
G01X-1161919Y-4280301D01*
G01X-1327266Y-4445648D01*
G03X-1436404Y-4467025I-36144J-104754D01*
G01X-1436404Y-4175719D01*
G03X-1450613Y-4141415I-48514J0D01*
G01X-2002722Y-3589306D01*
G01X-2002722Y-3482301D01*
G01X-1665461Y-3482301D02*
G03X-1701275Y-3446487I-35814J0D01*
G01X-1851274Y-3446487D01*
G03X-1887088Y-3482301I0J-35814D01*
G01X-1887088Y-3611902D01*
G03X-1851274Y-3647716I35814J0D01*
G01X-1701275Y-3647716D01*
G03X-1665461Y-3611902I0J35814D01*
G01X-1665461Y-3482301D01*
G01X-1318891Y1167841D02*
G03X-1224932Y1225762I27686J60258D01*
G01X-1199195Y1251500D01*
G03X-1141141Y1212626I60389J27399D01*
G01X-1099413Y1170898D01*
G03X-1071337Y1006214I87608J-69799D01*
G03X-910842Y1052585I59532J94884D01*
G01X-335568Y1052585D01*
G03X-315569Y1022613I105163J48514D01*
G01X-471705Y1022613D01*
G03X-506010Y1008403I0J-48514D01*
G01X-633010Y881403D01*
G03X-647219Y847099I34305J-34305D01*
G01X-647219Y-4390891D01*
G03X-663225Y-4451421I48514J-45210D01*
G03X-702573Y-4616187I49826J-98980D01*
G01X-774238Y-4616187D01*
G03X-863411Y-4439587I-89173J65786D01*
G03X-952585Y-4616187I0J-110814D01*
G01X-1024225Y-4616187D01*
G03X-1003856Y-4567145I-89173J65786D01*
G03X-1008645Y-4514257I-109542J16743D01*
G01X-793001Y-4298613D01*
G03X-778791Y-4264308I-34305J34305D01*
G01X-778791Y878089D01*
G03X-827305Y989613I-48514J45210D01*
G03X-875819Y878089I0J-66314D01*
G01X-875819Y-4244213D01*
G01X-1077254Y-4445648D01*
G03X-1202695Y-4484783I-36144J-104754D01*
G03X-1202572Y-4616187I89297J-65618D01*
G01X-1274237Y-4616187D01*
G03X-1253869Y-4567145I-89173J65786D01*
G03X-1258657Y-4514257I-109542J16743D01*
G01X-1079101Y-4334701D01*
G03X-1064891Y-4300396I-34305J34305D01*
G01X-1064891Y-1794501D01*
G03X-1064985Y-1791487I-48514J0D01*
G03X-922836Y-1624845I53180J98585D01*
G03X-1120873Y-1718425I-88969J-68056D01*
G01X-1318891Y-1520406D01*
G01X-1318891Y1167841D01*
G01X-899791Y-1184901D02*
G03X-1103475Y-1120529I-112014J0D01*
G03X-1185719Y-1184901I-15930J-64372D01*
G03X-1103475Y-1249274I66314J0D01*
G03X-899791Y-1184901I91670J64372D01*
G01X-899791Y-1438901D02*
G03X-1103475Y-1374529I-112014J0D01*
G03X-1185719Y-1438901I-15930J-64372D01*
G03X-1103475Y-1503274I66314J0D01*
G03X-899791Y-1438901I91670J64372D01*
G01X-1011805Y197113D02*
G03X-1011805Y-26915I0J-112014D01*
G03X-1011805Y197113I0J112014D01*
G01X-1011805Y451113D02*
G03X-1011805Y227085I0J-112014D01*
G03X-1011805Y451113I0J112014D01*
G01X-1011805Y705113D02*
G03X-1011805Y481085I0J-112014D01*
G03X-1011805Y705113I0J112014D01*
G01X-1011805Y959113D02*
G03X-1011805Y735085I0J-112014D01*
G03X-1011805Y959113I0J112014D01*
G01X-1011805Y-564887D02*
G03X-1011805Y-788915I0J-112014D01*
G03X-1011805Y-564887I0J112014D01*
G01X-1011805Y-310887D02*
G03X-1011805Y-534915I0J-112014D01*
G03X-1011805Y-310887I0J112014D01*
G01X-1011805Y-56887D02*
G03X-1011805Y-280915I0J-112014D01*
G03X-1011805Y-56887I0J112014D01*
G01X-1011805Y-818887D02*
G03X-1011805Y-1042915I0J-112014D01*
G03X-1011805Y-818887I0J112014D01*
G01X2649672Y-4362187D02*
G01X2392905Y-4362187D01*
G03X2296988Y-4367965I-45210J-48514D01*
G03X2307539Y-4463475I50707J-42736D01*
G03X2282106Y-4598181I90956J-86926D01*
G01X2124400Y-4755887D01*
G01X1973209Y-4755887D01*
G01X1973209Y-4719401D01*
G03X1937395Y-4683587I-35814J0D01*
G01X1800190Y-4683587D01*
G01X1799605Y-4683002D01*
G03X1765300Y-4668792I-34305J-34305D01*
G01X1607083Y-4668792D01*
G01X1607083Y-3822717D01*
G03X1619871Y-3752215I-48514J45210D01*
G01X2039700Y-3752215D01*
G01X2649672Y-4362187D01*
G01X1852395Y-4417215D02*
G03X1852395Y-4175587I0J120814D01*
G03X1852395Y-4417215I0J-120814D01*
G01X1852395Y-4671215D02*
G03X1852395Y-4429587I0J120814D01*
G03X1852395Y-4671215I0J-120814D01*
G54D11*
G01X-2800662Y-3486395D02*
G01X-2826570Y-3486395D01*
G01X-2554170Y-3486395D02*
G01X-2528262Y-3486395D01*
G01X-2677416Y-3437649D02*
G01X-2677416Y-3411741D01*
G01X-2677416Y-3535142D02*
G01X-2677416Y-3561050D01*
G01X-1936757Y-3331201D02*
G01X-1910849Y-3331201D01*
G01X-1976503Y-3286455D02*
G01X-1976503Y-3260547D01*
G01X-1976503Y-3375947D02*
G01X-1976503Y-3401855D01*
G01X-1701529Y-3547101D02*
G01X-1675621Y-3547101D01*
G01X-1851020Y-3547101D02*
G01X-1876928Y-3547101D01*
G01X-1776275Y-3611648D02*
G01X-1776275Y-3637556D01*
G01X-1776275Y-3482555D02*
G01X-1776275Y-3456647D01*
G01X-1272205Y-3505521D02*
G01X-1272205Y-3479613D01*
G01X-1315152Y-3545591D02*
G01X-1341060Y-3545591D01*
G01X-1851020Y-3026401D02*
G01X-1876928Y-3026401D01*
G01X-1776275Y-3090948D02*
G01X-1776275Y-3116856D01*
G01X-1776275Y-2961855D02*
G01X-1776275Y-2935947D01*
G01X1337161Y-3417088D02*
G01X1311253Y-3417088D01*
G01X1516653Y-3417088D02*
G01X1542561Y-3417088D01*
G01X1426907Y-3357342D02*
G01X1426907Y-3331434D01*
G01X1426907Y-3476833D02*
G01X1426907Y-3502741D01*
G01X2683361Y-3417088D02*
G01X2657453Y-3417088D01*
G01X2862853Y-3417088D02*
G01X2888761Y-3417088D01*
G01X2773107Y-3357342D02*
G01X2773107Y-3331434D01*
G01X2773107Y-3476833D02*
G01X2773107Y-3502741D01*
G01X4029549Y-3417088D02*
G01X4003641Y-3417088D01*
G01X4209041Y-3417088D02*
G01X4234949Y-3417088D01*
G01X4119295Y-3357342D02*
G01X4119295Y-3331434D01*
G01X4119295Y-3476833D02*
G01X4119295Y-3502741D01*
G01X-4015005Y1784450D02*
G01X-4015005Y1810358D01*
G01X-3935259Y1704704D02*
G01X-3909351Y1704704D01*
G01X-3376459Y-4550401D02*
G01X-3350551Y-4550401D01*
G01X-3456205Y-4470655D02*
G01X-3456205Y-4444747D01*
G01X-2288662Y-4550401D02*
G01X-2262754Y-4550401D01*
G01X-2438154Y-4550401D02*
G01X-2464062Y-4550401D01*
G01X-2363408Y-4475655D02*
G01X-2363408Y-4449747D01*
G01X-1214977Y4344412D02*
G01X-1240885Y4344412D01*
G01X-1055485Y4344412D02*
G01X-1029577Y4344412D01*
G01X-1135231Y4424158D02*
G01X-1135231Y4450066D01*
G01X-1135231Y4264666D02*
G01X-1135231Y4238758D01*
G01X-3510551Y4364986D02*
G01X-3536459Y4364986D01*
G01X-3351059Y4364986D02*
G01X-3325151Y4364986D01*
G01X-3430805Y4444732D02*
G01X-3430805Y4470640D01*
G01X-3430805Y4285240D02*
G01X-3430805Y4259332D01*
G01X-2235421Y4364986D02*
G01X-2261329Y4364986D01*
G01X-2075929Y4364986D02*
G01X-2050021Y4364986D01*
G01X-2155675Y4444732D02*
G01X-2155675Y4470640D01*
G01X-2155675Y4285240D02*
G01X-2155675Y4259332D01*
G01X-3316505Y-1613155D02*
G01X-3316505Y-1587247D01*
G01X-3316505Y-1772647D02*
G01X-3316505Y-1798555D01*
G01X-3396251Y-1692901D02*
G01X-3422159Y-1692901D01*
G01X-2541805Y-1616955D02*
G01X-2541805Y-1591047D01*
G01X-2465859Y-1692901D02*
G01X-2439951Y-1692901D01*
G01X-1011805Y3209045D02*
G01X-1011805Y3234953D01*
G01X-935859Y3133099D02*
G01X-909951Y3133099D01*
G01X-2986051Y-4042401D02*
G01X-3011959Y-4042401D01*
G01X-2834159Y-4042401D02*
G01X-2808251Y-4042401D01*
G01X-2910105Y-3966455D02*
G01X-2910105Y-3940547D01*
G01X-2910105Y-4118347D02*
G01X-2910105Y-4144255D01*
G01X-230405Y3212845D02*
G01X-230405Y3238753D01*
G01X-150659Y3133099D02*
G01X-124751Y3133099D01*
G01X-310151Y3133099D02*
G01X-336059Y3133099D01*
G01X-230405Y-1613155D02*
G01X-230405Y-1587247D01*
G01X-230405Y-1772647D02*
G01X-230405Y-1798555D01*
G01X-150659Y-1692901D02*
G01X-124751Y-1692901D01*
G01X-1011805Y-1616955D02*
G01X-1011805Y-1591047D01*
G01X-1011805Y-1768847D02*
G01X-1011805Y-1794755D01*
G01X-935859Y-1692901D02*
G01X-909951Y-1692901D01*
G01X-1087751Y-1692901D02*
G01X-1113659Y-1692901D01*
G01X1966949Y110499D02*
G01X1941041Y110499D01*
G01X2118841Y110499D02*
G01X2144749Y110499D01*
G01X2042895Y186445D02*
G01X2042895Y212353D01*
G01X2042895Y34553D02*
G01X2042895Y8645D01*
G01X35449Y4450012D02*
G01X9541Y4450012D01*
G01X214941Y4450012D02*
G01X240849Y4450012D01*
G01X125195Y4539758D02*
G01X125195Y4565666D01*
G01X125195Y4360267D02*
G01X125195Y4334359D01*
G01X1852395Y-4381147D02*
G01X1852395Y-4407055D01*
G01X1852395Y-4211655D02*
G01X1852395Y-4185747D01*
G01X1767649Y-4296401D02*
G01X1741741Y-4296401D01*
G01X1937141Y-4296401D02*
G01X1963049Y-4296401D01*
G01X905749Y3399799D02*
G01X879841Y3399799D01*
G01X981695Y3475745D02*
G01X981695Y3501653D01*
G01X2550895Y4186945D02*
G01X2550895Y4212853D01*
G01X2550895Y4035053D02*
G01X2550895Y4009145D01*
G01X2626841Y4110999D02*
G01X2652749Y4110999D01*
G01X2474949Y4110999D02*
G01X2449041Y4110999D01*
G01X2562749Y-4550401D02*
G01X2536841Y-4550401D01*
G01X2652495Y-4640147D02*
G01X2652495Y-4666055D01*
G01X4087595Y4153253D02*
G01X4087595Y4127345D01*
G01X4087595Y4322745D02*
G01X4087595Y4348653D01*
G01X4002849Y4237999D02*
G01X3976941Y4237999D01*
G01X4172341Y4237999D02*
G01X4198249Y4237999D01*
G01X4087595Y3899253D02*
G01X4087595Y3873345D01*
G01X4087595Y4068745D02*
G01X4087595Y4094653D01*
G01X4002849Y3983999D02*
G01X3976941Y3983999D01*
G01X4172341Y3983999D02*
G01X4198249Y3983999D01*
G01X4087595Y3645253D02*
G01X4087595Y3619345D01*
G01X4087595Y3814745D02*
G01X4087595Y3840653D01*
G01X4002849Y3729999D02*
G01X3976941Y3729999D01*
G01X4172341Y3729999D02*
G01X4198249Y3729999D01*
G01X4087595Y3391253D02*
G01X4087595Y3365345D01*
G01X4087595Y3560745D02*
G01X4087595Y3586653D01*
G01X4002849Y3475999D02*
G01X3976941Y3475999D01*
G01X4172341Y3475999D02*
G01X4198249Y3475999D01*
G01X4009546Y1240799D02*
G01X3983638Y1240799D01*
G01X4189037Y1240799D02*
G01X4214945Y1240799D01*
G01X4099292Y1330545D02*
G01X4099292Y1356453D01*
G01X4099292Y1151053D02*
G01X4099292Y1125145D01*
G04 Copper End*

G04 Pad Start*
G54D12*
G01X-2910105Y-4042401D03*
G54D13*
G01X-4015005Y1704704D03*
G01X-4015005Y1454692D03*
G01X-4015005Y1204705D03*
G54D14*
G01X-4015005Y954693D03*
G54D15*
G01X-4064942Y2879099D03*
G01X-3914269Y2879099D03*
G01X-4064942Y3133099D03*
G01X-3914269Y3133099D03*
G54D16*
G01X-3964205Y-4550376D03*
G54D13*
G01X-3710205Y-4550401D03*
G01X-3456205Y-4550401D03*
G54D16*
G01X-3938805Y4365011D03*
G54D13*
G01X-3684805Y4364986D03*
G01X-3430805Y4364986D03*
G01X-3316505Y-1692901D03*
G01X-3316505Y-1438901D03*
G01X-3316505Y-1184901D03*
G01X-3316505Y-930901D03*
G01X-3316505Y-676901D03*
G01X-3316505Y-422901D03*
G01X-3316505Y-168901D03*
G01X-3316505Y85099D03*
G01X-3316505Y339099D03*
G01X-3316505Y593099D03*
G01X-3316505Y847099D03*
G01X-3316505Y1101099D03*
G01X-3316505Y1355099D03*
G01X-3316505Y1609099D03*
G01X-3316505Y1863099D03*
G01X-3316505Y2117099D03*
G01X-3316505Y2371099D03*
G01X-3316505Y2625099D03*
G01X-3316505Y2879099D03*
G54D16*
G01X-3316505Y3133099D03*
G54D18*
G01X-2677416Y-3486395D03*
G01X-2677416Y-3256398D03*
G01X-2677416Y-3026401D03*
G54D19*
G01X-3244395Y-3256398D03*
G54D16*
G01X-2663675Y4365011D03*
G54D13*
G01X-2409675Y4364986D03*
G01X-2155675Y4364986D03*
G54D20*
G01X-1976503Y-3331201D03*
G01X-2116508Y-3331201D03*
G54D21*
G01X-2113536Y-3547101D03*
G01X-1776275Y-3547101D03*
G01X-2113536Y-3026401D03*
G01X-1776275Y-3026401D03*
G54D12*
G01X-2541805Y3133099D03*
G01X-2541805Y2879099D03*
G01X-2541805Y2625099D03*
G01X-2541805Y2371099D03*
G01X-2541805Y2117099D03*
G01X-2541805Y1863099D03*
G01X-2541805Y1609099D03*
G01X-2541805Y1355099D03*
G01X-2541805Y1101099D03*
G01X-2541805Y847099D03*
G01X-2541805Y593099D03*
G01X-2541805Y339099D03*
G01X-2541805Y85099D03*
G01X-2541805Y-168901D03*
G01X-2541805Y-422901D03*
G01X-2541805Y-676901D03*
G01X-2541805Y-930901D03*
G01X-2541805Y-1184901D03*
G01X-2541805Y-1438901D03*
G01X-2541805Y-1692901D03*
G01X-1011805Y3133099D03*
G01X-1011805Y2879099D03*
G01X-1011805Y2625099D03*
G01X-1011805Y2371099D03*
G01X-1011805Y2117099D03*
G01X-1011805Y1863099D03*
G01X-1011805Y1609099D03*
G01X-1011805Y1355099D03*
G01X-1011805Y1101099D03*
G01X-1011805Y847099D03*
G01X-1011805Y593099D03*
G01X-1011805Y339099D03*
G01X-1011805Y85099D03*
G01X-1011805Y-168901D03*
G01X-1011805Y-422901D03*
G01X-1011805Y-676901D03*
G01X-1011805Y-930901D03*
G01X-1011805Y-1184901D03*
G01X-1011805Y-1438901D03*
G01X-1011805Y-1692901D03*
G54D22*
G01X-1272205Y-3696263D03*
G01X-1272205Y-3545591D03*
G54D23*
G01X-1272205Y-3256029D03*
G01X-1272205Y-3036015D03*
G54D13*
G01X-635232Y4344412D03*
G01X-885244Y4344412D03*
G01X-1135231Y4344412D03*
G54D24*
G01X-1385243Y4344412D03*
G54D25*
G01X-363412Y-4550401D03*
G01X-113400Y-4550401D03*
G01X136587Y-4550401D03*
G01X386599Y-4550401D03*
G01X636586Y-4550401D03*
G54D26*
G01X886598Y-4550401D03*
G54D25*
G01X-613399Y-4550401D03*
G01X-863411Y-4550401D03*
G01X-1113398Y-4550401D03*
G01X-1363410Y-4550401D03*
G01X-1613397Y-4550401D03*
G01X-1863409Y-4550401D03*
G01X-2113396Y-4550401D03*
G01X-2363408Y-4550401D03*
G54D27*
G01X-259309Y-3475101D03*
G54D28*
G01X-259309Y-3221101D03*
G01X-259309Y-2967101D03*
G54D13*
G01X-230405Y-1692901D03*
G01X-230405Y-1438901D03*
G01X-230405Y-1184901D03*
G01X-230405Y-930901D03*
G01X-230405Y-676901D03*
G01X-230405Y-422901D03*
G01X-230405Y-168901D03*
G01X-230405Y85099D03*
G01X-230405Y339099D03*
G01X-230405Y593099D03*
G01X-230405Y847099D03*
G01X-230405Y1101099D03*
G01X-230405Y1355099D03*
G01X-230405Y1609099D03*
G01X-230405Y1863099D03*
G01X-230405Y2117099D03*
G01X-230405Y2371099D03*
G01X-230405Y2625099D03*
G01X-230405Y2879099D03*
G54D16*
G01X-230405Y3133099D03*
G54D29*
G01X-259305Y-4041101D03*
G54D30*
G01X-5305Y-4041101D03*
G54D27*
G01X-5305Y-3475101D03*
G54D28*
G01X-5305Y-3221101D03*
G01X-5305Y-2967101D03*
G54D31*
G01X886595Y-4041101D03*
G01X658096Y-4041101D03*
G54D29*
G01X125195Y4450012D03*
G01X379195Y4450012D03*
G01X633195Y4450012D03*
G01X887195Y4450012D03*
G01X1141195Y4450012D03*
G01X1395195Y4450012D03*
G01X1649195Y4450012D03*
G54D32*
G01X626908Y-2967101D03*
G01X626908Y-3417088D03*
G01X1426907Y-3417088D03*
G01X1426907Y-2967101D03*
G54D12*
G01X1743695Y3399799D03*
G01X1489695Y3399799D03*
G01X1235695Y3399799D03*
G01X981695Y3399799D03*
G01X727695Y3399799D03*
G01X473695Y3399799D03*
G54D15*
G01X1306295Y758199D03*
G01X1155622Y758199D03*
G54D16*
G01X1560295Y1240799D03*
G54D13*
G01X1306295Y1240799D03*
G54D27*
G01X1852395Y-4804401D03*
G54D28*
G01X1852395Y-4550401D03*
G01X1852395Y-4296401D03*
G54D32*
G01X1973108Y-2967101D03*
G01X1973108Y-3417088D03*
G01X2773107Y-3417088D03*
G01X2773107Y-2967101D03*
G54D12*
G01X2042895Y110499D03*
G01X2296895Y110499D03*
G01X2550895Y110499D03*
G01X2804895Y110499D03*
G54D15*
G01X2412922Y758199D03*
G01X2563595Y758199D03*
G54D33*
G01X2436595Y1240799D03*
G54D34*
G01X2563595Y1240799D03*
G01X2690595Y1240799D03*
G54D12*
G01X2550895Y4364999D03*
G01X2550895Y4110999D03*
G01X2550895Y3856999D03*
G01X2550895Y3602999D03*
G01X2550895Y3348999D03*
G01X2550895Y3094999D03*
G01X2550895Y2840999D03*
G01X2550895Y2586999D03*
G54D29*
G01X2398495Y-4550401D03*
G01X2652495Y-4550401D03*
G01X2906495Y-4550401D03*
G01X3160495Y-4550401D03*
G01X3414495Y-4550401D03*
G01X3668495Y-4550401D03*
G01X3922495Y-4550401D03*
G01X4099292Y1240799D03*
G01X3339298Y1240799D03*
G54D32*
G01X3319296Y-2967101D03*
G01X3319296Y-3417088D03*
G01X4119295Y-3417088D03*
G01X4119295Y-2967101D03*
G54D27*
G01X3833595Y3475999D03*
G54D28*
G01X3833595Y3729999D03*
G01X3833595Y3983999D03*
G01X3833595Y4237999D03*
G54D27*
G01X4087595Y3475999D03*
G54D28*
G01X4087595Y3729999D03*
G01X4087595Y3983999D03*
G01X4087595Y4237999D03*
G04 Pad End*

G04 Via Start*
G54D35*
G01X-3824505Y1024899D03*
G01X-3646705Y923299D03*
G01X-3646005Y423641D03*
G01X-3570505Y-4055101D03*
G01X-3519705Y516899D03*
G01X-3348605Y974099D03*
G01X-2783105Y-3140701D03*
G01X-2402105Y1126499D03*
G01X-2338605Y897899D03*
G01X-2332605Y2472699D03*
G01X-2235861Y-3469757D03*
G01X-2021105Y2142499D03*
G01X-1983005Y-3242301D03*
G01X-1983005Y-270501D03*
G01X-1843305Y618499D03*
G01X-1779805Y-2708901D03*
G01X-1754405Y1685299D03*
G01X-1690905Y-2124701D03*
G01X-1678205Y1558299D03*
G01X-1596005Y1736099D03*
G01X-1596005Y-2962901D03*
G01X-1525805Y-2531101D03*
G01X-1513105Y1329699D03*
G01X-1513105Y-2632701D03*
G01X-1462305Y-3191501D03*
G01X-1291205Y1228099D03*
G01X-1284505Y2091699D03*
G01X-1246805Y-3154429D03*
G01X-1233705Y3564899D03*
G01X-1164205Y1583699D03*
G01X-1138805Y1278899D03*
G01X-1119405Y-1184901D03*
G01X-1119405Y-1438901D03*
G01X-1081305Y3793499D03*
G01X-1068605Y3006099D03*
G01X-1068605Y3911039D03*
G01X-967005Y2752099D03*
G01X-827305Y2371099D03*
G01X-827305Y923299D03*
G01X-598705Y-4436101D03*
G01X-509805Y847099D03*
G01X-446305Y1685299D03*
G01X-446305Y643899D03*
G01X-408205Y2548899D03*
G01X-357805Y-3916429D03*
G01X-344705Y516899D03*
G01X-192811Y-3338399D03*
G01X3795Y3856999D03*
G01X219695Y3856999D03*
G01X239495Y3590299D03*
G01X353795Y669299D03*
G01X887195Y2167899D03*
G01X1007095Y3679199D03*
G01X1268195Y-3191501D03*
G01X1344395Y-473701D03*
G01X1501682Y-427788D03*
G01X1558569Y-3777507D03*
G01X2271495Y3996699D03*
G01X2347695Y-4410701D03*
G01X2525495Y3717299D03*
G04 Via End*

G04 Track Start*
G54D11*
G01X-4129305Y1659899D02*
G01X-4129305Y2814735D01*
G01X-4064942Y2879099D01*
G01X-4053105Y1583699D02*
G01X-4129305Y1659899D01*
G01X-4064942Y2879099D02*
G01X-4064942Y3133099D01*
G01X-3976905Y1583699D02*
G01X-4053105Y1583699D01*
G01X-3989605Y1730104D02*
G01X-4015005Y1704704D01*
G01X-3989605Y4110986D02*
G01X-3989605Y1730104D01*
G01X-3826948Y4273643D02*
G01X-3989605Y4110986D01*
G01X-3824505Y1431299D02*
G01X-3976905Y1583699D01*
G01X-3826948Y4400643D02*
G01X-3826948Y4273643D01*
G01X-3824505Y1024899D02*
G01X-3824505Y1431299D01*
G01X-3750748Y4476843D02*
G01X-3826948Y4400643D01*
G54D36*
G01X-3735605Y-4512314D02*
G01X-3735605Y2129786D01*
G01X-3710205Y-4537714D02*
G01X-3735605Y-4512314D01*
G01X-3710205Y-4550401D02*
G01X-3710205Y-4626601D01*
G01X-3710205Y-4537714D02*
G01X-3710205Y-4550401D01*
G01X-3710205Y-4626601D02*
G01X-3570505Y-4766301D01*
G54D11*
G01X-3522148Y4476843D02*
G01X-3750748Y4476843D01*
G01X-3598815Y376451D02*
G01X-3646005Y423641D01*
G01X-3585913Y862506D02*
G01X-3646705Y923299D01*
G01X-3316505Y3133099D02*
G01X-3914269Y3133099D01*
G01X-3316505Y2879099D02*
G01X-3914269Y2879099D01*
G01X-3598815Y-2900149D02*
G01X-3598815Y376451D01*
G01X-3585913Y481506D02*
G01X-3585913Y862506D01*
G01X-3570505Y-4055101D02*
G01X-3570505Y-4613901D01*
G54D36*
G01X-3735605Y2129786D02*
G01X-3367292Y2498099D01*
G54D11*
G01X-3570505Y-4613901D02*
G01X-3519705Y-4664701D01*
G01X-3496110Y391704D02*
G01X-3585913Y481506D01*
G01X-3496110Y540493D02*
G01X-3519705Y516899D01*
G01X-3496110Y-1259296D02*
G01X-3496110Y391704D01*
G01X-3496110Y1429493D02*
G01X-3496110Y540493D01*
G01X-3420548Y4375243D02*
G01X-3522148Y4476843D01*
G01X-3443505Y974099D02*
G01X-3443505Y-981701D01*
G01X-3420548Y4375243D02*
G01X-3430805Y4364986D01*
G01X-3239605Y-3259359D02*
G01X-3598815Y-2900149D01*
G54D36*
G01X-3684805Y4364986D02*
G01X-3151405Y3831586D01*
G54D11*
G01X-3316505Y-1438901D02*
G01X-3496110Y-1259296D01*
G01X-3316505Y1609099D02*
G01X-3496110Y1429493D01*
G01X-3443505Y-981701D02*
G01X-3367305Y-1057901D01*
G01X-3316505Y1101099D02*
G01X-3443505Y974099D01*
G01X-3303805Y4491986D02*
G01X-3420548Y4375243D01*
G01X-3367305Y-1057901D02*
G01X-3265705Y-1057901D01*
G54D36*
G01X-3265692Y2498099D02*
G01X-3367292Y2498099D01*
G54D11*
G01X-3316505Y-1438901D02*
G01X-3189505Y-1565901D01*
G01X-3241434Y-3259359D02*
G01X-3244395Y-3256398D01*
G01X-3239605Y-3259359D02*
G01X-3241434Y-3259359D01*
G01X-3316505Y-422901D02*
G01X-3136900Y-602507D01*
G01X-3316505Y339099D02*
G01X-3136900Y159493D01*
G01X-3265705Y-1057901D02*
G01X-3175903Y-1147704D01*
G54D36*
G01X-3316505Y-1184901D02*
G01X-3113305Y-1388101D01*
G01X-3151405Y2612386D02*
G01X-3265692Y2498099D01*
G54D11*
G01X-3189505Y-1565901D02*
G01X-3189505Y-2734301D01*
G01X-3175903Y-1147704D02*
G01X-3175903Y-1223904D01*
G54D36*
G01X-3151405Y3831586D02*
G01X-3151405Y2612386D01*
G54D11*
G01X-3136900Y-602507D02*
G01X-3136900Y-754907D01*
G01X-3136900Y159493D02*
G01X-3136900Y-500907D01*
G54D36*
G01X-3113305Y-1388101D02*
G01X-3113305Y-2590512D01*
G54D11*
G01X-3189505Y-2734301D02*
G01X-2783105Y-3140701D01*
G01X-2674455Y-3259359D02*
G01X-3239605Y-3259359D01*
G01X-3316505Y593099D02*
G01X-2541805Y593099D01*
G01X-3316505Y1863099D02*
G01X-2541805Y1863099D01*
G01X-2362861Y-4549854D02*
G01X-3455658Y-4549854D01*
G54D36*
G01X-3113305Y-2590512D02*
G01X-2677416Y-3026401D01*
G54D11*
G01X-3136900Y-754907D02*
G01X-2598085Y-1293722D01*
G01X-3136900Y-500907D02*
G01X-2598085Y-1039722D01*
G01X-2358005Y974099D02*
G01X-3348605Y974099D01*
G01X-2282675Y4491986D02*
G01X-3303805Y4491986D01*
G01X-3519705Y-4664701D02*
G01X-1977709Y-4664701D01*
G01X-2674455Y-3259359D02*
G01X-2677416Y-3256398D01*
G01X-2660778Y-3469757D02*
G01X-2677416Y-3486395D01*
G01X-2602613Y-3331201D02*
G01X-2674455Y-3259359D01*
G01X-2598085Y-1293722D02*
G01X-2521885Y-1293722D01*
G01X-2598085Y-1039722D02*
G01X-2521885Y-1039722D01*
G01X-2362861Y-3469757D02*
G01X-2660778Y-3469757D01*
G01X-2332605Y4033941D02*
G01X-2663675Y4365011D01*
G01X-2541805Y1863099D02*
G01X-2300505Y1863099D01*
G01X-3175903Y-1223904D02*
G01X-1665505Y-2734301D01*
G01X-2677416Y-3026401D02*
G01X-2113536Y-3026401D01*
G01X-2362861Y-3469757D02*
G01X-2362861Y-4549854D01*
G01X-2116508Y-3331201D02*
G01X-2602613Y-3331201D01*
G01X-2332605Y2472699D02*
G01X-2332605Y4033941D01*
G01X-2235861Y-3469757D02*
G01X-2362861Y-3469757D01*
G01X-2155675Y4364986D02*
G01X-2282675Y4491986D01*
G01X-2541805Y593099D02*
G01X-1868705Y593099D01*
G01X-2402105Y1126499D02*
G01X-1953092Y1575511D01*
G01X-2300505Y1863099D02*
G01X-2021105Y2142499D01*
G01X-2116508Y-3331201D02*
G01X-2116508Y-3544130D01*
G01X-2113536Y-3547101D01*
G01X-2521885Y-1293722D02*
G01X-1690905Y-2124701D01*
G01X-2020546Y4229857D02*
G01X-2155675Y4364986D01*
G01X-2521885Y-1039722D02*
G01X-1623859Y-1937747D01*
G01X-2338605Y897899D02*
G01X-1678205Y1558299D01*
G01X-2113536Y-3026401D02*
G01X-1883908Y-3256029D01*
G01X-1983005Y-3242301D02*
G01X-1983005Y-3324699D01*
G01X-1976503Y-3331201D01*
G01X-1596005Y1736099D02*
G01X-2358005Y974099D01*
G01X-1976503Y-3331201D02*
G01X-1976503Y-3346873D01*
G01X-1953092Y1575511D02*
G01X-1953092Y2845511D01*
G01X-1977709Y-4664701D02*
G01X-1863409Y-4550401D01*
G01X-1976503Y-3346873D02*
G01X-1778937Y-3544439D01*
G01X-1868705Y593099D02*
G01X-1843305Y618499D01*
G01X-2113536Y-3547101D02*
G01X-1484918Y-4175719D01*
G01X-1779805Y-2708901D02*
G01X-1779805Y-3022871D01*
G01X-1776275Y-3026401D01*
G01X-1778937Y-3544439D02*
G01X-1776275Y-3547101D01*
G01X-1983005Y-270501D02*
G01X-1533992Y-719514D01*
G01X-1754405Y1685299D02*
G01X-1754405Y2701299D01*
G01X-1665505Y-2734301D02*
G01X-1665505Y-2988301D01*
G01X-1623859Y-1937747D02*
G01X-1623859Y-2521947D01*
G01X-1223876Y4229857D02*
G01X-2020546Y4229857D01*
G01X-1953092Y2845511D02*
G01X-1233705Y3564899D01*
G01X-1883908Y-3256029D02*
G01X-1272205Y-3256029D01*
G54D36*
G01X-3570505Y-4766301D02*
G01X420686Y-4766301D01*
G54D11*
G01X-1623859Y-2521947D02*
G01X-1513105Y-2632701D01*
G01X-1665505Y-2988301D02*
G01X-1462305Y-3191501D01*
G01X-1533992Y-719514D02*
G01X-1533992Y-2522914D01*
G01X-1525805Y-2531101D01*
G01X-1778937Y-3544439D02*
G01X-1273357Y-3544439D01*
G01X-1443605Y-2810501D02*
G01X-1596005Y-2962901D01*
G01X-1513105Y1329699D02*
G01X-1513105Y2802899D01*
G01X-1484918Y-4175719D02*
G01X-1484918Y-4582119D01*
G01X-1754405Y2701299D02*
G01X-1170205Y3285499D01*
G01X-1484918Y-4582119D02*
G01X-1402336Y-4664701D01*
G01X-1443605Y2447299D02*
G01X-1443605Y-2810501D01*
G01X-1367405Y2269499D02*
G01X-1367405Y-1540501D01*
G01X-1513105Y2802899D02*
G01X-1081305Y3234699D01*
G01X-1273357Y-3544439D02*
G01X-1272205Y-3545591D01*
G01X-1272205Y-3256029D02*
G01X-1272205Y-3179829D01*
G01X-1246805Y-3154429D01*
G01X-1367405Y-1540501D02*
G01X-1113405Y-1794501D01*
G01X-1113405Y-4300396D02*
G01X-1363410Y-4550401D01*
G54D36*
G01X-1385243Y4344412D02*
G01X-1072557Y4657099D01*
G54D11*
G01X-1164205Y1355099D02*
G01X-1291205Y1228099D01*
G01X-1011805Y2879099D02*
G01X-1443605Y2447299D01*
G01X-1272205Y-3036015D02*
G01X-1170605Y-3137615D01*
G01X-1170605Y-3594663D02*
G01X-1272205Y-3696263D01*
G01X-1284505Y2091699D02*
G01X-1132105Y2244099D01*
G01X-1011805Y2625099D02*
G01X-1367405Y2269499D01*
G01X-1122276Y4331457D02*
G01X-1223876Y4229857D01*
G01X-1170605Y-3137615D02*
G01X-1170605Y-3594663D01*
G01X-1170205Y3285499D02*
G01X-1170205Y3809439D01*
G01X-1138805Y1609099D02*
G01X-1164205Y1583699D01*
G01X-1122276Y4331457D02*
G01X-1135231Y4344412D01*
G01X-1170205Y3809439D02*
G01X-1068605Y3911039D01*
G01X-1113405Y-1794501D02*
G01X-1113405Y-4300396D01*
G01X-1011805Y1355099D02*
G01X-1164205Y1355099D01*
G01X-1081305Y3234699D02*
G01X-1081305Y3793499D01*
G01X-1011805Y1609099D02*
G01X-1138805Y1609099D01*
G01X-1011805Y1151899D02*
G01X-1138805Y1278899D01*
G01X-1010023Y4219204D02*
G01X-1122276Y4331457D01*
G01X-1119405Y-1184901D02*
G01X-1011805Y-1184901D01*
G01X-1119405Y-1438901D02*
G01X-1011805Y-1438901D01*
G01X-1011805Y1101099D02*
G01X-1011805Y1151899D01*
G01X-1010023Y3134881D02*
G01X-1011805Y3133099D01*
G01X-1010023Y3134881D02*
G01X-1010023Y4219204D01*
G01X-827305Y-4264308D02*
G01X-1113398Y-4550401D01*
G01X-827305Y2371099D02*
G01X-1011805Y2371099D01*
G01X-827305Y923299D02*
G01X-827305Y-4264308D01*
G54D36*
G01X-1072557Y4657099D02*
G01X-471705Y4657099D01*
G54D11*
G01X-446305Y1863099D02*
G01X-1011805Y1863099D01*
G01X-243105Y2117099D02*
G01X-1011805Y2117099D01*
G01X-230405Y1355099D02*
G01X-1011805Y1355099D01*
G01X-230405Y1101099D02*
G01X-1011805Y1101099D01*
G01X-230405Y1609099D02*
G01X-1011805Y1609099D01*
G01X-230405Y2879099D02*
G01X-1011805Y2879099D01*
G01X-230405Y2625099D02*
G01X-1011805Y2625099D01*
G01X-228623Y3134881D02*
G01X-1010023Y3134881D01*
G01X-598705Y847099D02*
G01X-598705Y-4436101D01*
G01X-471705Y974099D02*
G01X-598705Y847099D01*
G01X-230405Y2371099D02*
G01X-827305Y2371099D01*
G01X-522505Y567699D02*
G01X-522505Y-4391308D01*
G01X-1402336Y-4664701D02*
G01X426464Y-4664701D01*
G01X-446305Y643899D02*
G01X-522505Y567699D01*
G01X-459005Y-651501D02*
G01X-459005Y-3275405D01*
G01X-446305Y1863099D02*
G01X-446305Y1685299D01*
G01X-522505Y-4391308D02*
G01X-363412Y-4550401D01*
G01X-408205Y-854701D02*
G01X-408205Y-3072205D01*
G01X-408205Y491499D02*
G01X-408205Y593099D01*
G01X-408205Y2548899D02*
G01X-357405Y2498099D01*
G01X-230405Y847099D02*
G01X-509805Y847099D01*
G01X-459005Y-3275405D02*
G01X-259309Y-3475101D01*
G01X-357405Y-1057901D02*
G01X-357405Y-2869005D01*
G54D36*
G01X-471705Y4657099D02*
G01X-243105Y4428499D01*
G54D11*
G01X-230405Y-422901D02*
G01X-459005Y-651501D01*
G01X-408205Y593099D02*
G01X-281205Y720099D01*
G01X-408205Y-3072205D02*
G01X-269011Y-3211399D01*
G01X-230405Y1863099D02*
G01X-446305Y1863099D01*
G01X-192305Y974099D02*
G01X-471705Y974099D01*
G01X-255805Y339099D02*
G01X-408205Y491499D01*
G01X-344705Y516899D02*
G01X-293905Y466099D01*
G01X-230405Y-676901D02*
G01X-408205Y-854701D01*
G01X-357405Y-2869005D02*
G01X-259309Y-2967101D01*
G01X-230405Y-930901D02*
G01X-357405Y-1057901D01*
G01X-269011Y-3211399D02*
G01X-269011Y-3262199D01*
G01X-269011Y-3211399D02*
G01X-259309Y-3221101D01*
G01X-259309Y-3475101D02*
G01X-259309Y-3525901D01*
G01X-357805Y-3916429D02*
G01X-129977Y-3916429D01*
G01X-230405Y339099D02*
G01X-255805Y339099D01*
G54D36*
G01X-243105Y4428499D02*
G01X-243105Y3933199D01*
G54D11*
G01X-230405Y2117099D02*
G01X-243105Y2117099D01*
G01X-269011Y-3262199D02*
G01X-192811Y-3338399D01*
G01X-293905Y466099D02*
G01X-166905Y466099D01*
G01X-281205Y720099D02*
G01X-179605Y720099D01*
G01X-228623Y3134881D02*
G01X-230405Y3133099D01*
G01X-259309Y-2967101D02*
G01X-132309Y-3094101D01*
G01X-124655Y-4175751D02*
G01X-259305Y-4041101D01*
G01X-967005Y2752099D02*
G01X587995Y2752099D01*
G01X-143310Y3220193D02*
G01X-228623Y3134881D01*
G01X-243105Y2117099D02*
G01X-116105Y1990099D01*
G01X-259309Y-3525901D02*
G01X-81509Y-3703701D01*
G54D36*
G01X-243105Y3933199D02*
G01X-72405Y3933199D01*
G54D11*
G01X-116105Y1050299D02*
G01X-192305Y974099D01*
G01X-1068605Y3006099D02*
G01X760195Y3006099D01*
G01X-132309Y-3094101D02*
G01X-132309Y-3576701D01*
G01X-116105Y1990099D02*
G01X-116105Y1050299D01*
G01X-1132105Y2244099D02*
G01X927022Y2244099D01*
G01X-132309Y-3576701D02*
G01X-56109Y-3652901D01*
G01X-179605Y720099D02*
G01X0Y899704D01*
G01X-129977Y-3916429D02*
G01X-5305Y-4041101D01*
G54D36*
G01X-72405Y3933199D02*
G01X3795Y3856999D01*
G54D11*
G01X-166905Y466099D02*
G01X102502Y735506D01*
G01X128990Y3220193D02*
G01X-143310Y3220193D01*
G01X0Y899704D02*
G01X0Y1280704D01*
G01X-230405Y85099D02*
G01X353795Y669299D01*
G01X158892Y-3056904D02*
G01X-5305Y-3221101D01*
G01X128990Y4446217D02*
G01X125195Y4450012D01*
G01X128990Y3220193D02*
G01X128990Y4446217D01*
G01X350295Y-3119501D02*
G01X-5305Y-3475101D01*
G54D36*
G01X219695Y3856999D02*
G01X397495Y3679199D01*
G54D11*
G01X626908Y-2967101D02*
G01X-5305Y-2967101D01*
G01X-5305Y-4041101D02*
G01X658096Y-4041101D01*
G01X835798Y-4175751D02*
G01X-124655Y-4175751D01*
G01X-357405Y2498099D02*
G01X1191995Y2498099D01*
G01X0Y1280704D02*
G01X887195Y2167899D01*
G01X802090Y3220193D02*
G01X128990Y3220193D01*
G01X426464Y-4664701D02*
G01X516267Y-4574899D01*
G01X516267Y-4524099D01*
G54D36*
G01X420686Y-4766301D02*
G01X636586Y-4550401D01*
G54D11*
G01X516267Y-4524099D02*
G01X604264Y-4436101D01*
G01X102502Y735506D02*
G01X1132930Y735506D01*
G01X239495Y3590299D02*
G01X1001495Y3590299D01*
G01X604264Y-4436101D02*
G01X680464Y-4436101D01*
G54D36*
G01X397495Y3679199D02*
G01X1007095Y3679199D01*
G54D11*
G01X680464Y-4436101D02*
G01X770267Y-4525904D01*
G01X770267Y-4627504D01*
G01X860069Y-4717307D01*
G01X886598Y-4124951D02*
G01X835798Y-4175751D01*
G01X886598Y-4550401D02*
G01X886598Y-4124951D01*
G01X886598Y-4041104D01*
G01X981695Y3399799D02*
G01X802090Y3220193D01*
G01X587995Y2752099D02*
G01X1235695Y3399799D01*
G01X760195Y3006099D02*
G01X1115795Y3361699D01*
G01X-81509Y-3703701D02*
G01X2059795Y-3703701D01*
G01X1883306Y-3056904D02*
G01X158892Y-3056904D01*
G01X1115795Y3361699D02*
G01X1115795Y3437899D01*
G01X1132930Y735506D02*
G01X1155622Y758199D01*
G01X1115795Y3437899D02*
G01X1191995Y3514099D01*
G01X1007095Y3679199D02*
G01X1366305Y4038409D01*
G01X1191995Y2498099D02*
G01X1196485Y2502589D01*
G01X1196485Y2248589D01*
G01X1001495Y3590299D02*
G01X1407895Y3996699D01*
G01X860069Y-4717307D02*
G01X1558569Y-4717307D01*
G01X-56109Y-3652901D02*
G01X2516995Y-3652901D01*
G01X1515150Y3933254D02*
G01X981695Y3399799D01*
G01X1268195Y-3191501D02*
G01X1268195Y-3258376D01*
G01X1191995Y3514099D02*
G01X1375395Y3514099D01*
G01X1306295Y758199D02*
G01X1306295Y1240799D01*
G01X1268195Y-3258376D02*
G01X1426907Y-3417088D01*
G01X1344395Y-473701D02*
G01X1369795Y-499101D01*
G01X1375395Y3514099D02*
G01X1489695Y3399799D01*
G01X1426907Y-3417088D02*
G01X1516709Y-3327285D01*
G01X1501682Y-427788D02*
G01X1504608Y-427788D01*
G01X1369795Y-499101D02*
G01X1687295Y-499101D01*
G01X1558569Y-4717307D02*
G01X1558569Y-3777507D01*
G01X1558569Y-4717307D02*
G01X1765300Y-4717307D01*
G01X927022Y2244099D02*
G01X2412922Y758199D01*
G01X3166896Y-3119501D02*
G01X350295Y-3119501D01*
G01X1504608Y-427788D02*
G01X2042895Y110499D01*
G01X1366305Y4038409D02*
G01X2224305Y4038409D01*
G01X1765300Y-4717307D02*
G01X1852395Y-4804401D01*
G01X1407895Y3996699D02*
G01X2271495Y3996699D01*
G01X1196485Y2248589D02*
G01X2491885Y953189D01*
G01X1196485Y2502589D02*
G01X2550895Y3856999D01*
G01X1973108Y-2967101D02*
G01X1883306Y-3056904D01*
G01X2373150Y3933254D02*
G01X1515150Y3933254D01*
G01X1687295Y-499101D02*
G01X2296895Y110499D01*
G01X1852395Y-4804401D02*
G01X2144495Y-4804401D01*
G01X1516709Y-3327285D02*
G01X2683304Y-3327285D01*
G01X2042895Y110499D02*
G01X2169895Y237499D01*
G01X2322295Y237499D01*
G01X2144495Y-4804401D02*
G01X2398495Y-4550401D01*
G01X2322295Y237499D02*
G01X2412097Y147696D01*
G01X2224305Y4038409D02*
G01X2550895Y4364999D01*
G01X2412097Y147696D02*
G01X2412097Y96896D01*
G01X2550895Y4110999D02*
G01X2373150Y3933254D01*
G01X2412097Y96896D02*
G01X2525495Y-16501D01*
G01X2059795Y-3703701D02*
G01X2906495Y-4550401D01*
G01X2491885Y953189D02*
G01X2491885Y169508D01*
G01X2550895Y110499D01*
G01X2525495Y3717299D02*
G01X2525495Y3628399D01*
G01X2347695Y-4410701D02*
G01X2703295Y-4410701D01*
G01X2525495Y3628399D02*
G01X2550895Y3602999D01*
G01X2557245Y4117349D02*
G01X2550895Y4110999D01*
G01X2563595Y1240799D02*
G01X2563595Y758199D01*
G01X2550895Y3602999D02*
G01X2804895Y3348999D01*
G01X2525495Y-16501D02*
G01X2841992Y-16501D01*
G01X2683304Y-3327285D02*
G01X2773107Y-3417088D01*
G01X2703295Y-4410701D02*
G01X2779495Y-4486901D01*
G01X2779495Y-4601201D01*
G01X2804895Y3348999D02*
G01X2804895Y110499D01*
G01X2779495Y-4601201D02*
G01X2855695Y-4677401D01*
G01X2773107Y-3417088D02*
G01X2862909Y-3327285D01*
G01X2855695Y-4677401D02*
G01X3033495Y-4677401D01*
G01X2516995Y-3652901D02*
G01X3414495Y-4550401D01*
G01X3033495Y-4677401D02*
G01X3160495Y-4550401D01*
G01X3319296Y-2967101D02*
G01X3166896Y-3119501D01*
G01X4087595Y4117349D02*
G01X2557245Y4117349D01*
G01X2862909Y-3327285D02*
G01X4029492Y-3327285D01*
G01X2841992Y-16501D02*
G01X4099292Y1240799D01*
G01X4029492Y-3327285D02*
G01X4119295Y-3417088D01*
G01X4087595Y4117349D02*
G01X4087595Y4237999D01*
G01X4087595Y3983999D02*
G01X4087595Y4117349D01*
G01X4090311Y3981282D02*
G01X4087595Y3983999D01*
G01X4090311Y3473282D02*
G01X4087595Y3475999D01*
G01X4090311Y3727282D02*
G01X4087595Y3729999D01*
G01X4090311Y3727282D02*
G01X4090311Y3981282D01*
G01X4090311Y3473282D02*
G01X4090311Y3727282D01*
G01X4099292Y3464302D02*
G01X4090311Y3473282D01*
G01X4099292Y1240799D02*
G01X4099292Y3464302D01*
G04 Track End*

M02*

